<?xml version="1.0" encoding="utf-8"?>
<!-- Generator: Adobe Illustrator 24.2.1, SVG Export Plug-In . SVG Version: 6.00 Build 0)  -->
<svg version="1.1" id="Laag_1" xmlns="http://www.w3.org/2000/svg" xmlns:xlink="http://www.w3.org/1999/xlink" x="0px" y="0px"
	 viewBox="0 0 267 221" style="enable-background:new 0 0 267 221;" xml:space="preserve">
<style type="text/css">
	.st0{clip-path:url(#SVGID_2_);}
	.st1{fill:#FFFFFF;}
</style>
<g>
	<g>
		<defs>
			<path id="SVGID_1_" d="M236,130.5c2-6.9,2.1-14.1,3.2-21.5c0-1.6-0.1-3.2-0.1-4.9c-0.5-4,0.1-8.2-0.4-11.7
				c-0.2-1.5-0.7-2.9-0.9-4.7c-0.1,0-0.2-0.1-0.3-0.1c-0.1-0.1-0.1-0.3-0.2-0.4c-0.2-2.1-1.3-4.1-1.8-5.8
				c-1.7-5.9-3.8-10.7-6.6-15.2c-0.3-0.5-0.9-2.4-1.6-2.3c-0.1,0.1-0.2,0.3-0.2,0.4c-0.4,0.1-0.8-0.8-0.8-1.1c0.2,0,0.4-0.1,0.6-0.1
				c0-0.1,0-0.2,0.1-0.2c-0.2-0.1-0.3-0.2-0.5-0.3c-0.1,0.1-0.2,0.3-0.3,0.4c-0.5-0.1-0.5-0.4-0.6-0.9c-0.2-0.8-0.8-0.6-1.2-1.1
				c-0.1-0.4-0.2-0.7-0.3-1.1c-0.9-0.8-1.8-1.7-2.6-2.5c-2.3-3-4.8-8.4-8-10.4h-0.1l-0.1,0.1c-0.2,1.6,3.5,3.4,2,4.6
				c-0.5-0.1-0.9-0.5-1.5-0.7c0-0.1-0.1-0.3-0.1-0.4c-0.1,0-0.1,0-0.2-0.1c-1,0.6-2.2-0.5-2.9-1c0-0.1,0-0.1,0-0.2
				c0.3-0.1,0.6-0.2,1-0.2V49v-0.1c-0.1-0.3-6.7-7.1-7-4.8c-0.6,0.3-1.5-0.5-2,0.3c0.1,0.2,0.2,0.3,0.2,0.5
				c-0.4,0.6-1.3,0.1-1.9,0.4v0.2c0.8,0.7,1.7,1.4,2.5,2.1c0.6,0.8-0.2,1.6,0.4,2.4c1.1,1.1,2.2,2.1,3.3,3.2
				c0.1,0.6,0.3,1.1,0.4,1.7c1.2,2.1,3.2,3.9,4.6,6c0.6,0.9,1,3.3,1.7,4c0.2,0.3,0.5,0.7,0.1,1c0.1,0.2,0.1,0.3,0.2,0.5
				c0.1,0,0.3-0.1,0.4-0.1c0.5,0.3,1.2,1.5,1.2,2.1c-0.8,0.7-0.1,0.7-0.1,1.6c0,0,0,0-0.1,0.1c-1.8-0.5-2.3-3.3-3.2-4.7
				c-0.3-0.1-0.6-0.2-0.9-0.3c-1.2-1.5-2.5-2.7-3.8-4.1c-1-1.1-0.7-2.3-1.4-3.5c-0.8-1.5-4-4.3-4.4-5.7c0.1-0.3,0.3-0.7,0.4-1
				c0-0.4-0.2-0.5-0.5-0.5l-0.1,0.1c0,0.2,0.1,0.4,0.1,0.6c-0.8,0.2-3.9-3.7-5.8-3.5l-0.1,0.1c-0.1,1.5,3.2,3.1,2.7,4.2
				c-5.4,1.7-10-5.1-12.1-8.2c-0.1,0.1-0.2,0.2-0.4,0.3c-0.1,2.7-3.3-1.5-4-1.4c-0.8,1.1,1.9,2.3-0.8,2.6c-0.5,0.9,0.1,1.3,0.5,1.6
				c0.1,0.6-0.5,1.2-0.1,1.8c1.4,1.9,4.6,3,6.2,5c1,1.2,2,2.3,3,3.5c0.7,1,0,1.9,0.8,2.7v0.2c0,0,0,0-0.1,0
				c-0.1-0.1-0.2-0.2-0.3-0.3c-3.7,0.8-6.4-8.3-9.9-6.9c-0.2,0.4,0,0.6,0.2,0.8c-0.2,2.1-5.4-3.2-5.5-3.3c0,0-0.1,0-0.1-0.1h-0.1
				h-0.1c-0.1,0-0.1,0-0.2,0s-0.3,0-0.4,0c0,0.2,0,0.4-0.1,0.6c1,1.2,2.1,2.4,3.1,3.7c2.1,2.5,4.5,6.1,5.8,9.1
				c1,1.9,2.1,3.9,3.1,5.8c2.1,5,3.9,10.6,5.1,16.2l1.5,10.5c0.1,1-0.3,2.8-0.1,3.4c0.6,2.1,0.6,8.6,0.1,11.3
				c-0.7,3.8-0.8,7.9-1.8,11.7c-2.8,10.9-5.8,21.2-10.3,30.1c-1.9,3.8-4.9,7-7.5,10.1c-1.6,1.9-2.3,4.2-4.2,5.8
				c-2.1,1.6-4.3,2.9-6.5,4.5c-3.5,2.5-6.6,6.3-10.9,7.9c-5.4,1.9-11.7,3.3-17.5,4.3c-1.6,0.3-3.4-0.4-5,0c-2.7,0.3-5.4,0.6-8,1
				c-1.4-0.2-3.6-0.9-5.1-0.9c-3.3,0-6.5-0.3-9.8-0.9c-0.7,0-1.4,0.1-2,0.1c-1.9-0.8-3.9-1.6-5.8-2.4c-0.8-0.1-1.7-0.1-2.5-0.2
				c-5.1-1.6-12.4-11.5-15-16.2c-0.6-1.1-0.9-3.8-2-4.5c-0.8,0.1-0.1,1.6-0.4,2.2c-2.2,0.3-5.8-10.8-6.8-13.1
				c-1.8-4.2-3.7-9.1-4.8-14.2c-0.3-1.3,0.2-2.7-0.1-4.2c-1.8-9.5,1.2-25.3,3.8-33.4c1.9-5.9,5-11.4,8.1-16.2
				c3.4-5.4,6.9-10,10.9-14.7c2-2.4,4.8-4.1,7.5-5.9c3.7-2.5,7.6-5.5,11.4-7.9c1.3-0.8,2.7-1.1,4.2-1.7c10.4-4.5,22.3-8.7,34.9-10.8
				c1.3-0.2,3,0.4,4.4,0.4c2.3-0.2,4.7-0.4,7-0.7c2.7,0.3,5.3,0.9,8,1.2c0-0.1,0.1-0.1,0.1-0.2c-1.1-1.6-5.4,0.1-5.9-2
				c-0.4-0.2-0.9-0.4-1.3-0.6c-1.3,0.1-4.9,0.7-5.8-0.5c0.1-0.3,0.6-0.6,0.9-0.6c3.2-0.2,6.5-0.3,9.8,0c0.5-0.1,1.1-0.2,1.6-0.3
				c3.4,0.5,8.3,0.9,12.1,0.4c0.8-0.1,0.6-0.8,1.1-1.1c0.6-0.1,1.1-0.2,1.7-0.2c3.7-0.5,10.2,1.6,12.4-1.2c0.3-0.4,0.1-0.9-0.2-1.1
				c-0.5-0.4-1.1-0.7-1.6-1.1c-0.8-1.1-1.5-2.1-2.3-3.2c-0.9-0.4-1.7-0.9-2.6-1.3c-0.7-0.6-1.4-1.2-2.1-1.8c-0.7-0.2-1.3-0.4-2-0.5
				c-1.3-0.9-2.1-2.6-3.4-3.4c-0.9-0.4-1.7-0.7-2.6-1.1c-1-1.1-1.9-2.2-2.9-3.2c-1.1-1.9-0.3-2.2-2.2-3.4c-2.7-1.7-6.9-1.5-9.7-3.3
				c0,0,0-0.1-0.1-0.1c0.3-0.3,0.6-0.5,0.9-0.8c0-0.1,0-0.1,0-0.2c-0.8-0.4-5.5-0.1-7-0.3c-2.4-0.4-4.3-1.6-6.1-2.1
				c-0.7-0.1-1.4-0.2-2.1-0.2c-0.5-0.4-1.1-0.9-1.6-1.3c-1.1,0-2.2,0-3.3-0.1c-0.8-0.2-1.6-0.5-2.4-0.7c-0.9,0.1-1.9,0.2-2.8,0.3
				c-1.2-0.2-2.7-1.1-4.2-1c-0.9,0-0.8-0.5-1-1.2c-0.1,0-0.1-0.1-0.2-0.1c-0.5,0.5-0.9,0.9-1.4,1.4c-2.6,1.1-6,0.1-8.6,0.5
				c-3.6,0.5-7.3,0.6-10.6,1.1c-2.1,0.4-4.4,1.3-6.3,1.5c-2.7,0.4-5.1-0.1-7.5,0.4c-5.4,1-10.6,2.9-15,5c-3.5,1.6-5.8,3.8-8.5,6.2
				c-1.6,1.3-3.4,2-4.8,3.5c-0.2,0.1-0.4,0.2-0.5,0.3c-0.3-0.3,0.2-0.7,0.3-0.9c-0.2-0.3-2.1,2-2.4,2.3c-1.2,1.2-2.8,2.1-4.2,3.1
				c-1.6,1.5-3.2,3-4.7,4.6c-2.7,3.3-5.4,6.6-8.1,10c-4.2,4.9-7.8,10.3-11.3,15.9c-1.3,2.2-1.7,4.5-2.8,6.9c-4.1,9.5-7,22.6-8,34.5
				c-0.1,0.9-0.3,2.7-0.7,3.8c-0.4,0.6-0.8,1.2-1.1,1.7c0.1,1,0.2,1.9,0.3,2.9c0,3.4,0.1,6.9,0.1,10.3c0.4,3,0.9,6,1.3,9
				c2.5,13.1,7.3,26,13.3,36.1c2.3,3.8,3.9,7.7,6.6,11.1c1.1,1.1,2.2,2.2,3.4,3.2c5.2,6.5,10.7,12,17.3,17
				c4.4,3.3,10.3,5.5,15.8,7.7c3.1,1.5,6.1,3,9.2,4.5c5.1,2.1,10.9,3.8,16.1,5.5c4.2,1.4,9,0.9,13.5,1.7c10.3,1.7,22.1-0.3,30.8-2.3
				c5-1.2,9.7-1.7,14.2-3.6c10.6-4.2,19.4-10.3,28-16.4c0.8-0.4,1.6-0.8,2.4-1.1c1.7-1.1,3.5-2.5,5.1-3.8c0-0.1,0-0.1,0-0.2
				c-2.1-0.2-5.4,4.1-6.6,3.7l-0.1-0.1c0.1-0.2,0.2-0.4,0.3-0.6c0.7-0.4,1.3-0.8,2-1.3c2.2-1.6,4.3-3.6,6.3-5.5
				c4.9-4.4,9.2-10.2,13-15.7C226.9,156.7,231.7,145.2,236,130.5L236,130.5z M224.5,154.6c0.6-1.5,1.3-2.9,1.9-4.4
				c0.1,0,0.1,0.1,0.2,0.1C226.5,151.2,225.3,154.3,224.5,154.6L224.5,154.6z M226.9,149.7c-0.1,0-0.1,0-0.2,0
				c0.2-0.3,0.4-0.6,0.5-0.9C227.1,149,227,149.4,226.9,149.7z M227.4,147.3l-0.1-0.1c0-0.1,0.1-0.2,0.1-0.3l0.2,0.2
				C227.6,147.2,227.5,147.2,227.4,147.3L227.4,147.3z M229.2,142.2c-0.4,1.2-0.7,2.5-1.1,3.7c-0.1,0-0.1,0-0.2,0
				c-0.1-1.2,1-3.8,1.5-4.8c0.1,0,0.1,0.1,0.2,0.1C229.7,141.6,229.5,142.1,229.2,142.2z M229.9,140.8c-0.2,0-0.3,0-0.4,0v-0.1
				c0-0.1,0.1-0.1,0.1-0.2h0.2l0.1,0.1C230,140.7,229.9,140.7,229.9,140.8L229.9,140.8z M227.7,65.7c0.5,0,0.9,0.6,0.8,1.2h-0.1
				c-0.3,0-0.6-0.8-0.8-1.1L227.7,65.7z M224.5,63.3c1.1,0.1,0.9,1.1,1.4,1.9c2.8,4.3,4.4,9.3,6.5,14.7c0.2,1.2,0.5,2.3,0.7,3.5
				c0.4,1.5,0.8,3,1.2,4.5c-0.2,0.1-0.4,0.2-0.5,0.3v0.1c2.3,1.1,1.3,6.7,1.8,9.4c1.6,8,0.6,16.5-1,23.7c-1.2,5.5-1.5,11.2-3.5,16
				c-0.4,1-0.7,2-1.1,3c-0.3-0.1,0.7-4.3,1.2-4.7c0-0.3,0.1-0.7,0.1-1h0.3c-0.1-0.4,1.6-8.4,1.8-8.6c0-1,0.1-2,0.1-3
				c2.7-13.3,2.2-29.6-2-40.8c-0.5-1.3-0.6-2.9-1.2-4c-0.4-1.1-0.7-2.2-1.1-3.3C228.7,73.6,223.3,64.7,224.5,63.3L224.5,63.3z
				 M192,59.9l-0.1-0.1c0-0.1,0-0.2,0-0.2c0.1,0.1,0.2,0.2,0.3,0.3C192.2,59.9,192.1,59.9,192,59.9z M193.1,61
				C193,61,193,61,193.1,61c-0.1,0-0.2,0-0.2,0c0-0.2-0.1-0.4-0.1-0.6C193,60.5,193.1,60.6,193.1,61z M215.3,52c0-0.1,0-0.1,0-0.2
				c0.2-0.1,0.4-0.1,0.6-0.2c0.9,0.1,3.3,4.8,4.7,5.5c0.1,0.6,0.1,1.2,0.2,1.9c0.7,0.9,2.6,2.1,2.3,4c-0.1,0.1-0.1,0.1-0.2,0.2h-0.1
				h-0.1c-0.7-1.3-1.4-2.6-2.1-3.9C219,56.7,216.8,54.4,215.3,52L215.3,52z M202.5,36.7c0.9-1.7,1.3-3-1.7-2.9
				C198,35.2,200.7,37.3,202.5,36.7z M209.3,42.3c-0.1-0.8-1.4-2.1-2.2-2.1c-0.1,0-0.1,0.1-0.2,0.1v0.1
				C207.2,41,208.5,42.2,209.3,42.3z M168.3,41.4c0.3,0.4,1,0.7,1.6,0.4c0-0.1,0-0.1,0-0.2c-0.5-0.1-0.9-0.3-1.4-0.4
				C168.5,41.2,168.4,41.3,168.3,41.4C168.3,41.3,168.3,41.4,168.3,41.4L168.3,41.4z M172.4,42.5c0-0.1,0-0.2,0-0.2
				c-0.6-0.3-1.2-0.5-1.8-0.8c-0.1,0.1-0.2,0.2-0.4,0.4C170.4,42.5,171.8,42.6,172.4,42.5z M174,42.4c-0.2,0.1-0.4,0.1-0.6,0.2v0.1
				c0.6,0.1,1.2,0.1,1.9,0.2C174.8,42.7,174.4,42.6,174,42.4L174,42.4z M212.3,45.2c-0.5-0.5-1-0.9-1.6-1.4c0,0.1-0.1,0.1-0.1,0.2
				C211.1,44.5,211.6,44.9,212.3,45.2C212.2,45.3,212.2,45.3,212.3,45.2L212.3,45.2z M176.3,45c-0.2-0.3-0.4-0.5-0.9-0.5
				c-0.1,0-0.2,0.1-0.3,0.1c0,0.1-0.1,0.2-0.1,0.3l1.2,0.3C176.3,45.1,176.3,45.1,176.3,45z M200.2,44.6c0,0,0,0.1,0.1,0.1h0.1v-0.1
				C200.4,44.6,200.3,44.6,200.2,44.6C200.3,44.6,200.3,44.6,200.2,44.6L200.2,44.6z M213,46.1c-0.1,0-0.1,0.1-0.2,0.1v0.1
				C213.1,46.5,213.3,46.2,213,46.1z M203,51.2l-0.1,0.1c0.2,0.3,0.5,0.5,0.7,0.8C203.8,51.7,203.4,51.3,203,51.2L203,51.2z
				 M204.6,53c0-0.1,0-0.1,0.1-0.2c-0.1-0.1-0.3-0.3-0.4-0.4C204.1,52.6,204.3,52.9,204.6,53L204.6,53z M205,53.7
				c-0.1,0-0.1-0.1-0.2-0.1v0.2h0.1C205,53.8,205,53.7,205,53.7L205,53.7z M237.4,74.7c0-0.1,0.1-0.1,0.1-0.2
				c-0.1,0-0.1-0.1-0.2-0.1c0,0,0,0-0.1,0.1C237.2,74.5,237.3,74.6,237.4,74.7C237.3,74.7,237.4,74.7,237.4,74.7z M238,77.8
				c0.2,0.1,0.3,0.1,0.5,0.2c0-0.1,0.1-0.1,0.1-0.2c-0.3-0.6-0.4-1.7-1.1-1.9l-0.1,0.1C237.6,76.6,237.8,77.2,238,77.8z M239.8,80.7
				h0.1l0.1-0.1c0.1-0.4-0.7-2.2-1.2-2.3C238.5,78.9,239.4,80.5,239.8,80.7L239.8,80.7z M239.9,81.1c-0.1,0.4,0.6,2.1,1,1.9
				c0-0.5-0.4-2-0.9-2.1C240,81,239.9,81.1,239.9,81.1z M241.8,88.1c0.1,0.1,0.2,0.1,0.2,0.2c0.1,0,0.2-0.1,0.3-0.1
				c-0.4-1.5-0.9-3-1.3-4.4c-0.1,0-0.1,0-0.2-0.1C240.5,84.3,241.4,87.3,241.8,88.1z M243.2,97.1c0.2,0,0.4-0.1,0.7-0.1
				c0.1-1-1.1-8.1-1.7-8.2C241.9,89.4,243,96,243.2,97.1z M243.5,97.8v2C244.2,100,244.3,98,243.5,97.8z M243.7,101
				c-0.3,0.4-0.4,2.3,0,2.5h0.2C244.2,103.1,244.3,101.1,243.7,101z M243.7,104.2C243.7,104.2,243.7,104.3,243.7,104.2
				c0.1,0,0.2,0,0.3-0.1c-0.1,0-0.1-0.1-0.2-0.1C243.7,104.1,243.7,104.1,243.7,104.2z M244,104.7c-0.1,0-0.1-0.1-0.2-0.1
				c-0.4,0.4-0.5,2.7,0.2,2.7C244.3,107,244.2,105.2,244,104.7z M243.4,115.2h0.2c0.5-1,0.5-7.2,0.2-7.3
				C243.5,108.1,243.2,115,243.4,115.2z M243.6,115.4c-1.6,1.1-1,11.5-2.5,13.5c1,2.7-2.5,6.2-1.8,9.2c0.1,0,0.1,0.1,0.2,0.1
				c0.1-0.2,0.3-0.4,0.4-0.5c0.6-2.5,1.3-4.9,1.9-7.4c1-3.2,0.6-6.3,1.2-9.4c0.1-0.7,1.3-4.8,1-5.4
				C243.7,115.4,243.6,115.4,243.6,115.4L243.6,115.4z M239.2,138.4c-0.2,0.1-0.3,0.3-0.5,0.4c0,0.3,0.1,0.5,0.4,0.5
				c0.3-0.2,0.5-0.6,0.3-0.9C239.3,138.5,239.2,138.5,239.2,138.4z M238.8,139.6c0,0-4.5,11.5-4.6,12c0.1,0.1,0.2,0.1,0.3,0.2
				c1-0.6,3.7-9.4,4.4-11.3C239,140.2,239.4,139.7,238.8,139.6L238.8,139.6z M234,152.2c-0.4,0.7-1.7,2.5-1.5,3.5
				c0.1,0,0.1,0.1,0.2,0.1c0.6-0.2,1.6-2.7,1.5-3.5C234.1,152.2,234.1,152.2,234,152.2z M232.6,155.8c-0.1,0-0.1,0.1-0.2,0.1v0.4
				h0.3c0.1-0.1,0.1-0.2,0.2-0.2c0-0.1,0-0.1,0-0.2C232.8,155.9,232.7,155.9,232.6,155.8z M232.2,156.8c-0.3,0.2-4.2,7.5-4.2,7.5
				c-1.1,0.7-5.7,7-6.4,8.4c-1.6,1.7-3.3,3.3-4.9,5v0.1c1.2,0.1,1.5-1.8,2.5-2c0.1-1.2,2-2.3,2.7-3.1c1.5-1.9,11.1-13.7,10.5-15.8
				C232.4,156.9,232.3,156.9,232.2,156.8L232.2,156.8z M211.1,182.2v0.1c0.8,0,5.2-3.6,5.7-4.3c-0.1,0-0.1-0.1-0.2-0.1
				C214.8,179.1,212.6,180.6,211.1,182.2z M208.1,184.4v0.2c0.5,0,2.5-1.7,2.8-2.2c-0.1-0.1-0.1-0.1-0.2-0.2
				C209.9,183,209,183.7,208.1,184.4z M207.1,185.2c-0.5,0.3-3.1,1.3-2.6,2c0.6,0.2,2.6-1.3,3-1.7c0-0.1,0-0.1,0-0.2
				C207.3,185.3,207.2,185.3,207.1,185.2z"/>
		</defs>
		<clipPath id="SVGID_2_">
			<use xlink:href="#SVGID_1_"  style="overflow:visible;"/>
		</clipPath>
		<g class="st0">
			
				<image style="overflow:visible;enable-background:new    ;" width="808" height="800" xlink:href="F3E948A6118DB5AF.jpg"  transform="matrix(0.281 0 0 0.281 22.7463 -6.2633)">
			</image>
		</g>
	</g>
</g>
<g>
	<path class="st1" d="M13.9,108.2H3.7v14.6H0V86.2h14.6c6.1,0,11,4.9,11,11c0,5-3.3,9.2-7.9,10.5l8.9,15.1h-4.2L13.9,108.2z
		 M3.7,104.7h11c4,0,7.3-3.4,7.3-7.5c0-4.2-3.3-7.5-7.3-7.5h-11L3.7,104.7z"/>
	<path class="st1" d="M35.6,109.7c0-7.7,6.1-13.7,13.8-13.7c7.6,0,13.8,6,13.8,13.7s-6.1,13.7-13.8,13.7S35.6,117.5,35.6,109.7z
		 M59.6,109.7c0-5.8-4.5-10.4-10.3-10.4S39,103.9,39,109.7s4.5,10.4,10.3,10.4S59.6,115.5,59.6,109.7z"/>
	<path class="st1" d="M74.3,109.7C74.3,102,80.4,96,88,96s13.8,6,13.8,13.7s-6.1,13.7-13.8,13.7C80.4,123.4,74.3,117.5,74.3,109.7z
		 M98.4,109.7c0-5.8-4.5-10.4-10.3-10.4s-10.3,4.5-10.3,10.4c0,5.8,4.5,10.4,10.3,10.4S98.4,115.5,98.4,109.7z"/>
	<path class="st1" d="M152.3,106.5v16.3h-3.5v-16.3c0-4.7-2.7-7.1-6.4-7.1c-4,0-7.3,2.5-7.3,8.9v14.5h-3.5v-16.3
		c0-4.7-2.4-7.1-6.1-7.1c-3.8,0-7.5,2.5-7.5,8.9v14.5h-3.5V96.7h3.5v3.8c2-3.2,4.9-4.4,8-4.4c3.7,0,6.5,1.7,7.9,4.8
		c1.9-3.2,5.1-4.8,8.5-4.8C148.2,96,152.3,99.9,152.3,106.5z"/>
	<path class="st1" d="M194.6,109.7c0,7.7-6.1,13.7-13.5,13.7c-4.7,0-8.4-2.2-10.6-5.8v15.6H167V96.7h3.5v5.1
		c2.2-3.5,5.9-5.8,10.6-5.8C188.4,96,194.6,102,194.6,109.7z M191.1,109.7c0-5.8-4.5-10.4-10.3-10.4s-10.3,4.5-10.3,10.4
		c0,5.8,4.5,10.4,10.3,10.4S191.1,115.5,191.1,109.7z"/>
	<path class="st1" d="M205,109.7c0-7.7,6.1-13.7,13.8-13.7c7.6,0,13.8,6,13.8,13.7s-6.1,13.7-13.8,13.7S205,117.5,205,109.7z
		 M229.1,109.7c0-5.8-4.5-10.4-10.3-10.4s-10.3,4.5-10.3,10.4c0,5.8,4.5,10.4,10.3,10.4S229.1,115.5,229.1,109.7z"/>
	<path class="st1" d="M250.3,100v15.8c0,4.5,2.5,4.1,7.5,3.9v3c-7.1,1-11-0.7-11-7V100h-5.5v-3.3h5.5v-6.3l3.5-1v7.3h7.5v3.3H250.3z
		"/>
	<circle class="st1" cx="265.4" cy="121.4" r="1.6"/>
</g>
</svg>
