<?xml version="1.0" encoding="utf-8"?>
<!-- Generator: Adobe Illustrator 16.0.0, SVG Export Plug-In . SVG Version: 6.00 Build 0)  -->
<!DOCTYPE svg PUBLIC "-//W3C//DTD SVG 1.1//EN" "http://www.w3.org/Graphics/SVG/1.1/DTD/svg11.dtd">
<svg version="1.1" id="Laag_1" xmlns="http://www.w3.org/2000/svg" xmlns:xlink="http://www.w3.org/1999/xlink" x="0px" y="0px"
	 width="136px" height="112.082px" viewBox="0 0 136 112.082" enable-background="new 0 0 136 112.082" xml:space="preserve">
<g>
	<g>
		<path fill="#6AA4B5" d="M25.519,16.092c1.772-1.359,3.638-2.598,5.584-3.716c0.337,0.072,0.685,0.132,1.058,0.203
			c0.022-0.018,0.055-0.037,0.086-0.056c0.104,0.308,0.162,0.643,0.205,0.966c-0.527,0.294-1.053,0.59-1.568,0.902
			c-0.169-0.193-0.336-0.383-0.523-0.591c-0.104,0.154-0.209,0.266-0.189,0.284c0.154,0.156,0.32,0.303,0.482,0.454
			c-1.339,0.823-2.634,1.709-3.883,2.653c-0.044-0.047-0.096-0.093-0.127-0.145c-0.195-0.323-0.451-0.548-0.755-0.746
			c-0.022-0.027-0.046-0.054-0.062-0.08C25.705,16.188,25.607,16.14,25.519,16.092 M18.142,88.999
			c-2.544-2.922-4.758-6.133-6.581-9.584c0.087,0.043,0.221,0.066,0.283,0.037c0.02-0.41,0.016-0.59,0.014-0.77
			c0.194,0.066,0.395,0.197,0.584,0.182c0.18-0.016,0.428-0.061,0.617-0.113c1.811,3.408,4.014,6.574,6.549,9.443
			c-0.191-0.051-0.402-0.105-0.664-0.174C18.668,88.353,18.402,88.673,18.142,88.999 M48.374,6.306
			c2.505-0.387,5.072-0.588,7.683-0.588c0.361,0,0.721,0.02,1.082,0.028c-0.059,0.166-0.115,0.331-0.172,0.498
			c-0.012,0.042,0.006,0.091,0.008,0.138c0.002,0.399,0.143,0.898-0.277,0.99c-0.119-0.001-0.238-0.008-0.357-0.009
			c-0.086-0.013-0.17-0.026-0.279-0.055c0,0-0.029,0.02-0.057,0.049c-2.251,0.002-4.466,0.17-6.638,0.471
			c0.015-0.081,0.033-0.17,0.056-0.297C49.116,7.167,48.769,6.72,48.374,6.306 M32.029,12.076c-0.095-0.027-0.195-0.041-0.291-0.066
			c0.062-0.034,0.121-0.071,0.182-0.104C31.961,11.958,31.994,12.019,32.029,12.076 M34.66,10.661
			c0.008,0.58-0.117,1.08,0.254,1.538c2.688-1.304,5.519-2.359,8.455-3.154c0.022-0.175,0.08-0.354,0.238-0.537
			c-0.138-0.091-0.281-0.13-0.398-0.201c-0.191-0.118-0.362-0.263-0.541-0.395c0.103-0.082,0.261-0.251,0.302-0.232
			c0.229,0.111,0.461,0.244,0.627,0.417c0.071,0.073,0.021,0.236,0.007,0.369c0.332,0.081,0.571,0.184,0.752,0.323
			c1.448-0.36,2.921-0.661,4.417-0.886c-0.439-0.222-0.859-0.473-1.306-0.685c-0.306-0.146-0.642-0.245-0.965-0.366
			c0.025-0.025,0.05-0.053,0.076-0.08c-0.238,0.005-0.51,0.055-0.719-0.012c-3.922,0.812-7.676,2.086-11.207,3.755
			C34.654,10.564,34.66,10.602,34.66,10.661 M39.312,9.295c0.189,0.122,0.377,0.246,0.545,0.355
			c-0.068,0.158-0.104,0.238-0.14,0.318c-0.17-0.143-0.351-0.278-0.499-0.437C39.188,9.497,39.279,9.376,39.312,9.295
			 M35.674,10.713c0.158,0.132,0.326,0.209,0.334,0.297c0.01,0.092-0.121,0.259-0.215,0.274c-0.094,0.014-0.285-0.102-0.314-0.191
			C35.451,11.008,35.578,10.886,35.674,10.713 M9.271,80.683c0.16,0.303,0.32,0.605,0.486,0.904
			C9.343,81.362,9.316,81.021,9.271,80.683 M64.08,105.659c-2.615,0.422-5.291,0.646-8.023,0.646
			c-6.459,0-12.632-1.238-18.311-3.467c-0.014-0.117-0.043-0.227-0.092-0.26c-0.207-0.137-0.605-0.244-0.758-0.131
			c-4.342-1.744-8.33-4.109-11.93-6.949c0-0.1,0.003-0.199,0.001-0.297c-0.001-0.041-0.084-0.119-0.106-0.113
			c-0.08,0.025-0.222,0.098-0.216,0.123c-1.084-0.836-2.131-1.752-3.142-2.709c0.041-0.033,0.083-0.068,0.124-0.102
			c-0.134-0.057-0.267-0.15-0.4-0.162c-0.967-0.93-1.897-1.895-2.788-2.898c0.16-0.082,0.319-0.168,0.485-0.24
			c0.17-0.076,0.424-0.066,0.542-0.166c0.158-0.131,0.279-0.287,0.4-0.441c2.974,3.311,6.398,6.207,10.17,8.604
			c-0.006,0.025-0.021,0.053-0.012,0.07c0.074,0.156,0.204,0.285,0.305,0.414c0.1-0.068,0.17-0.113,0.227-0.152
			c7.421,4.586,16.156,7.24,25.5,7.24c0.176,0,0.348-0.01,0.521-0.014c-0.123,0.133-0.23,0.248-0.307,0.361
			c-0.035,0.053,0.111,0.154,0.178,0.234c0.238-0.107,0.553-0.184,0.684-0.328c0.051-0.055-0.008-0.15-0.092-0.279
			c2.418-0.047,4.793-0.27,7.113-0.66c-0.07,0.375-0.086,0.758-0.098,1.137C64.049,105.3,64.066,105.479,64.08,105.659
			 M60.254,111.909c0.766-0.059,1.527-0.125,2.283-0.215c0.34-0.039,0.676-0.084,1.014-0.129c0.77-0.104,1.533-0.223,2.291-0.355
			c0.281-0.051,0.562-0.098,0.842-0.152c0.951-0.182,1.896-0.389,2.832-0.619c0.068-0.018,0.139-0.031,0.207-0.049
			c2.143-0.541,4.234-1.205,6.27-1.984c0.076-0.027,0.148-0.059,0.223-0.088c0.939-0.361,1.867-0.752,2.781-1.164
			c0.088-0.037,0.176-0.078,0.264-0.117c0.961-0.441,1.91-0.904,2.842-1.395c-0.059-0.201-0.117-0.404-0.201-0.602
			c-0.076-0.184-0.359-0.33-0.564-0.506c-0.176,0.021-0.373,0.033-0.547,0.074c-0.396,0.098-0.783,0.207-1.174,0.312
			c0.145-0.271,0.354-0.535,0.418-0.814c0.074-0.33,0.064-0.668,0.102-1.002c-0.467,0.238-0.932,0.48-1.406,0.707
			c0.02,0.135,0.039,0.27,0.066,0.459c-0.246,0.082-0.459,0.154-0.67,0.227c-0.041-0.107-0.145-0.242-0.166-0.338
			c-3.945,1.801-8.148,3.131-12.537,3.918c0.312,0.322,0.555,0.711,1.459,0.1c0.154,0.275,0.307,0.408,0.279,0.527
			c-0.07,0.299-0.221,0.59-0.34,0.885c-0.201-0.07-0.404-0.137-0.604-0.211c-0.502-0.182-1.016-0.354-1.5-0.553
			c-0.291-0.119-0.371-0.357-0.295-0.57c-2.725,0.436-5.518,0.668-8.365,0.668c-13.337,0-25.527-4.971-34.845-13.145
			c-0.171,0.018-0.347,0.039-0.445-0.041c-0.231-0.186-0.53-0.512-0.509-0.752c-4.139-3.861-7.676-8.336-10.439-13.297
			c-0.027,0.09-0.113,0.266-0.19,0.477c-0.375-0.34-0.865-0.578-0.835-0.799c0.066-0.494-0.184-0.74-0.619-0.984
			c-0.105-0.057-0.165-0.316-0.098-0.367c0.123-0.094,0.406-0.178,0.528-0.131c0.116,0.045,0.242,0.107,0.349,0.178
			c-0.719-1.398-1.375-2.834-1.969-4.303c-0.064,0.072-0.145,0.16-0.221,0.25c-0.232-0.174-0.439-0.262-0.502-0.398
			c-0.04-0.09,0.13-0.244,0.205-0.369c0.137,0.072,0.268,0.148,0.402,0.225c-0.797-2.006-1.486-4.064-2.035-6.18
			c-0.059,0.043-0.107,0.096-0.17,0.133c-0.176,0.104-0.574-0.021-0.869-0.051c-0.029-0.002-0.045-0.061-0.067-0.092
			c0.002-0.037-0.012-0.102,0.009-0.109c0.324-0.127,0.653-0.25,0.98-0.375c-0.967-3.889-1.501-7.945-1.553-12.116
			c-0.5-0.195-0.984-0.433-1.452-0.691c-0.111-0.062-0.159-0.259-0.187-0.402c-0.009-0.047,0.133-0.158,0.221-0.182
			c0.367-0.104,0.961,0.072,1.408,0.351c0.006-1.325,0.072-2.636,0.176-3.937c-0.049,0.013-0.094,0.021-0.144,0.035
			c-0.05-0.13-0.257-0.365-0.17-0.511c0.087-0.143,0.224-0.284,0.38-0.408c0.77-8.024,3.334-15.53,7.293-22.111
			c3.131-5.195,7.09-9.782,11.706-13.6c-0.053-0.08-0.12-0.154-0.21-0.22c-0.035-0.026,0.482-0.538,0.852-0.699
			c0.068-0.029,0.232,0.018,0.406,0.095c2.579-2.026,5.35-3.817,8.279-5.343c-0.154-0.06-0.301-0.117-0.441-0.173
			c0.356-0.195,0.688-0.495,1.084-0.543c0.1-0.011,0.228,0.08,0.362,0.202c2.041-1.008,4.158-1.88,6.336-2.622
			c-0.396-0.1-0.883-0.24-0.302-0.551c-0.189-0.144-0.373-0.289-0.539-0.446c-0.158-0.148-0.186-0.371-0.27-0.556
			c0.05-0.159,0.095-0.301,0.14-0.444c0.135,0.108,0.282,0.208,0.403,0.325c0.162,0.157,0.355,0.313,0.441,0.494
			c0.074,0.152,0.131,0.309,0.186,0.467c0.035-0.014,0.064-0.027,0.104-0.041c0.275-0.102,0.168-0.985,0.243-1.506
			c0.028-0.188,0.071-0.374,0.117-0.609c0.694,0.438,1.297,0.74,1.782,1.148c0.256,0.218,0.436,0.523,0.568,0.833
			c2.534-0.703,5.144-1.221,7.813-1.54c0.293-0.104,0.514-0.282,0.004-0.738c-0.135-0.121,0.216-0.769,0.475-1.091
			c0.288-0.362,0.664-0.332,0.717,0.182c0.061,0.604,0.205,0.984,1.045,0.689c0.172-0.061,0.51,0.113,0.705,0.251
			c0.596,0.413,0.616,0.426,1.275-0.014c0.161-0.108,0.357-0.189,0.482-0.323c0.398-0.425,0.381-0.429,0.729,0.053
			c0.099,0.133,0.28,0.353,0.364,0.334c0.176-0.042,0.418-0.196,0.447-0.334c0.093-0.477,0.237-0.855-0.57-1.196
			C54.809,1.044,54.501,0.546,54.256,0c-2.528,0.081-5.017,0.326-7.451,0.732c0.133,0.184,0.267,0.369,0.396,0.548
			c-0.151,0.307-0.25,0.51-0.35,0.713c-0.154-0.307-0.362-0.604-0.442-0.924c-0.021-0.085,0.016-0.18,0.068-0.277
			c-0.074,0.012-0.148,0.026-0.224,0.04c-0.009,0.349-0.04,0.693-0.15,1.011c-0.173,0.498-0.707,0.884-1.323,0.123
			c-0.113-0.139-0.404-0.184-0.723-0.181c0.132,0.146,0.332,0.299,0.314,0.429c-0.031,0.221-0.243,0.421-0.549,0.9
			c-0.137-0.531-0.263-0.773-0.231-0.995c0.017-0.121,0.211-0.223,0.362-0.329c-0.234,0.01-0.474,0.039-0.662,0.085
			c-0.538,0.13-0.838,0.019-1.038-0.196l-0.356,0.092c0.012,0.024,0.026,0.05,0.037,0.074c0.042,0.1-0.12,0.263-0.189,0.398
			c-0.1-0.115-0.213-0.225-0.31-0.341c-3.307,0.894-6.497,2.077-9.532,3.533C31.941,5.531,32,5.62,32.072,5.701
			c0.166,0.184,0.506,0.319,0.573,0.508c0.062,0.171-0.096,0.412-0.252,0.574c-0.071,0.075-0.44,0.101-0.553,0.039
			c-0.198-0.114-0.375-0.301-0.431-0.477c-0.056-0.177-0.017-0.387,0.01-0.671c-0.825,0.406-1.637,0.83-2.439,1.275
			c-0.822,0.457-1.604,0.916-2.373,1.393c-1.566,0.973-3.068,2.01-4.516,3.116c0.145,0.065,0.249,0.11,0.242,0.125
			c-0.084,0.163-0.206,0.315-0.318,0.47c-0.062-0.033-0.182-0.064-0.182-0.1c0.002-0.098,0.017-0.203,0.037-0.321
			c-2.062,1.591-4.01,3.321-5.83,5.176c-0.879,0.9-1.697,1.799-2.49,2.72c-0.082,0.096-0.166,0.189-0.248,0.286
			c-0.811,0.955-1.594,1.935-2.34,2.943c0.08,0.053,0.16,0.107,0.251,0.16c-0.334,0.23-0.558,0.453-0.767,0.566
			c-0.635,0.888-1.242,1.795-1.828,2.718c-0.053,0.083-0.107,0.164-0.158,0.247c-0.598,0.95-1.168,1.918-1.706,2.908
			c0.112,0.053,0.225,0.102,0.335,0.157c0.115,0.057,0.173,0.253,0.208,0.396c0.011,0.046-0.125,0.161-0.212,0.189
			C6.9,30.159,6.646,30.14,6.384,30.079c-0.492,0.939-0.957,1.895-1.396,2.865c-0.029,0.06-0.057,0.121-0.084,0.182
			c-0.43,0.957-0.834,1.926-1.211,2.91c-0.011,0.026-0.021,0.051-0.031,0.078c-0.78,2.041-1.442,4.138-1.982,6.285
			c-0.02,0.079-0.035,0.16-0.055,0.239c-0.228,0.921-0.428,1.852-0.608,2.789c-0.054,0.276-0.101,0.554-0.149,0.831
			c-0.133,0.757-0.252,1.52-0.354,2.287c-0.045,0.335-0.09,0.67-0.129,1.006c-0.087,0.756-0.154,1.518-0.212,2.283
			c-0.023,0.317-0.053,0.631-0.072,0.95C0.039,53.853,0,54.928,0,56.012c0,0.973,0.025,1.94,0.076,2.901
			c0.013,0.268,0.043,0.533,0.06,0.803c0.046,0.689,0.09,1.379,0.16,2.061c0.028,0.285,0.075,0.564,0.108,0.848
			c0.078,0.662,0.153,1.326,0.256,1.979c0.039,0.264,0.095,0.521,0.139,0.781c0.113,0.672,0.227,1.344,0.365,2.006
			c0.045,0.223,0.104,0.443,0.152,0.664c0.152,0.695,0.309,1.389,0.486,2.074c0.049,0.189,0.109,0.373,0.159,0.561
			c0.194,0.715,0.393,1.428,0.614,2.129c0.047,0.148,0.102,0.293,0.149,0.439c0.239,0.738,0.485,1.473,0.754,2.197
			c0.041,0.109,0.089,0.217,0.132,0.328c0.284,0.756,0.582,1.506,0.897,2.246c0.036,0.08,0.075,0.158,0.11,0.24
			c0.332,0.766,0.677,1.523,1.043,2.273c0.025,0.051,0.054,0.102,0.08,0.154c0.381,0.773,0.775,1.537,1.19,2.291
			c0.015,0.025,0.031,0.053,0.046,0.078c0.43,0.777,0.876,1.543,1.342,2.297c2.404,3.891,5.258,7.457,8.492,10.635
			c0.108,0.023,0.219,0.057,0.326,0.076c-0.041,0.039-0.08,0.078-0.121,0.119c0.678,0.658,1.375,1.303,2.085,1.926
			c0.042-0.029,0.081-0.051,0.103-0.037c0.228,0.117,0.423,0.303,0.631,0.463c-0.043,0.027-0.092,0.059-0.139,0.09
			c0.594,0.506,1.198,1,1.812,1.484c0.037,0.027,0.075,0.057,0.11,0.086c0.599,0.467,1.207,0.922,1.824,1.365
			c0.049,0.035,0.098,0.07,0.147,0.105c0.616,0.441,1.241,0.869,1.876,1.285c0.04,0.025,0.08,0.051,0.12,0.078
			c3.239,2.105,6.708,3.883,10.356,5.297c0.162,0.061,0.321,0.129,0.484,0.189c0.525,0.197,1.061,0.379,1.593,0.561
			c0.3,0.104,0.597,0.207,0.897,0.305c0.478,0.154,0.962,0.297,1.445,0.439c0.367,0.105,0.734,0.213,1.104,0.312
			c0.451,0.123,0.904,0.236,1.357,0.348c0.416,0.1,0.832,0.197,1.25,0.289c0.429,0.094,0.859,0.184,1.293,0.268
			c0.457,0.088,2.189,0.383,2.6,0.445c0.506,0.072,1.015,0.133,1.524,0.193c0.377,0.043,0.752,0.092,1.131,0.129
			c0.584,0.057,1.173,0.098,1.762,0.135c0.312,0.02,0.622,0.049,0.936,0.064c0.908,0.043,1.82,0.07,2.737,0.07
			c1.088,0,2.166-0.041,3.236-0.102C59.615,111.962,59.934,111.931,60.254,111.909 M53.977,1.023
			c0.042-0.042,0.315,0.091,0.647,0.195C54.276,1.592,54.04,1.846,53.802,2.1c-0.102-0.134-0.316-0.299-0.283-0.395
			C53.606,1.457,53.782,1.222,53.977,1.023 M34.99,4.672c0.268,0.365,0.553,0.724,0.789,1.099c0.035,0.058-0.138,0.203-0.252,0.277
			c-0.054,0.036-0.197,0-0.607-0.014c-0.079-0.309-0.202-0.664-0.244-1.026C34.664,4.902,34.878,4.785,34.99,4.672 M5.393,34.174
			c0.35-0.194,0.86-0.241,1.37-0.368c0.043,0.132,0.239,0.375,0.144,0.517c-0.162,0.245-0.457,0.502-0.789,0.61
			c-0.278,0.091-0.69-0.023-1.041-0.047C5.173,34.641,5.166,34.301,5.393,34.174 M7.336,80.728
			c-0.191-0.129-0.324-0.219-0.457-0.309c0.152-0.131,0.292-0.277,0.466-0.387c0.033-0.021,0.302,0.105,0.291,0.135
			C7.576,80.339,7.464,80.501,7.336,80.728 M15.537,93.177c-0.092,0.014-0.203-0.1-0.334-0.17c0.219-0.205,0.386-0.477,0.525-0.463
			c0.164,0.016,0.305,0.283,0.455,0.439C15.969,93.052,15.757,93.144,15.537,93.177 M20.88,98.067
			c-0.052,0.035-0.229-0.125-0.492-0.277c0.235-0.182,0.364-0.355,0.515-0.379c0.193-0.031,0.404,0.059,0.608,0.096
			C21.304,97.7,21.111,97.913,20.88,98.067 M22.314,100.583c-0.113-0.094-0.242-0.199-0.371-0.305
			c0.149-0.033,0.307-0.117,0.447-0.094c0.156,0.025,0.299,0.146,0.447,0.225C22.693,100.458,22.546,100.505,22.314,100.583
			 M39.537,107.394c-0.295-0.111-0.486-0.184-0.678-0.258c0.207-0.096,0.405-0.248,0.62-0.275c0.188-0.023,0.392,0.096,0.589,0.148
			C39.886,107.142,39.705,107.272,39.537,107.394 M112.01,52.562c-0.037-0.607-0.082-1.212-0.139-1.812
			c-0.029-0.304-0.059-0.608-0.092-0.91c-0.066-0.597-0.145-1.191-0.229-1.782c-0.037-0.269-0.072-0.539-0.113-0.807
			c-0.133-0.835-0.277-1.667-0.447-2.491c-0.02-0.096-0.043-0.19-0.064-0.286c-0.152-0.73-0.32-1.456-0.504-2.176
			c-0.074-0.296-0.156-0.589-0.234-0.882c-0.143-0.521-0.287-1.04-0.443-1.555c-0.098-0.321-0.197-0.643-0.299-0.962
			c-0.16-0.499-0.33-0.994-0.504-1.487c-0.107-0.302-0.209-0.606-0.322-0.906c-0.248-0.668-0.51-1.329-0.783-1.984
			c-0.139-0.332-0.861-1.964-1.088-2.444c-0.168-0.352-0.898-1.803-1.096-2.178c-0.195-0.366-0.393-0.733-0.594-1.095
			c-0.191-0.342-1.02-1.763-1.246-2.13c-0.176-0.284-0.359-0.56-0.539-0.84c-0.486-0.756-0.988-1.501-1.51-2.233
			c-0.162-0.227-0.32-0.456-0.484-0.681c-0.305-0.413-0.615-0.819-0.932-1.224c-0.166-0.214-0.334-0.428-0.504-0.64
			c-0.33-0.415-0.668-0.826-1.01-1.23c-0.139-0.164-0.281-0.325-0.422-0.486c-1.289-1.486-2.654-2.908-4.09-4.251
			c-0.029-0.026-0.055-0.053-0.084-0.079c-0.469-0.437-0.949-0.865-1.434-1.286c-0.092-0.078-0.18-0.157-0.271-0.234
			c-0.494-0.425-0.996-0.843-1.504-1.25c-0.027-0.021-0.051-0.04-0.076-0.06c-2.217-1.765-4.568-3.368-7.037-4.787
			c-3.152-1.809-6.455-3.306-9.908-4.476c-0.484,0.864-0.348,1.753-0.352,2.66c0,0.18,0.002,0.363,0.004,0.546
			c20.549,7.27,35.318,26.882,35.318,49.888c0,20.155-11.332,37.706-27.955,46.638c0.018,0.062,0.029,0.131,0.086,0.164
			c0.715,0.422,1.09,0.082,1.414-0.318c0.135-0.168,0.361-0.305,0.549-0.455c0.057,0.199,0.201,0.406,0.156,0.598
			c-0.115,0.484-0.285,0.965-0.484,1.439c-0.229,0.543-0.238,0.891,0.879,0.521c0.143-0.047,0.311-0.066,0.465-0.1
			c3.848-2.191,7.391-4.854,10.576-7.885l0.074-0.07c2.629-2.508,5.014-5.27,7.115-8.244c0.027-0.039,0.057-0.078,0.084-0.117
			c0.4-0.57,0.791-1.146,1.172-1.732l0.09-0.143c1.584-2.455,2.982-5.043,4.174-7.74c-0.133,0.037-0.246,0.066-0.322,0.049
			c-0.119-0.031-0.258-0.191-0.223-0.264c0.033-0.07,0.289-0.156,0.416-0.141c0.078,0.01,0.146,0.074,0.221,0.15
			c1.113-2.551,2.041-5.197,2.771-7.928c0.008-0.023,0.016-0.049,0.02-0.074c0.229-0.852,0.432-1.713,0.617-2.58
			c0.016-0.07,0.035-0.143,0.049-0.213c0.172-0.814,0.32-1.635,0.455-2.461c0.021-0.127,0.047-0.252,0.068-0.381
			c0.121-0.771,0.219-1.553,0.307-2.336c0.021-0.18,0.051-0.359,0.07-0.541c0.078-0.758,0.131-1.521,0.18-2.287
			c0.014-0.207,0.037-0.412,0.047-0.619c0.051-0.971,0.078-1.948,0.078-2.931c0-0.883-0.027-1.76-0.066-2.632
			C112.045,53.106,112.027,52.834,112.01,52.562 M87.453,10.333c-0.16-0.046-0.293-0.161-0.43-0.246
			c0.076-0.212,0.123-0.338,0.168-0.465c0.172,0.151,0.354,0.295,0.5,0.463C87.709,10.107,87.502,10.346,87.453,10.333
			 M109.969,49.304c0.055,0.113,0.172,0.234,0.148,0.34c-0.031,0.125-0.182,0.239-0.361,0.453c-0.213-0.202-0.412-0.333-0.377-0.368
			C109.539,49.573,109.766,49.443,109.969,49.304 M109.061,65.976c-0.064-0.135-0.229-0.293-0.164-0.396
			c0.068-0.111,0.352-0.17,0.539-0.252c0.104,0.121,0.207,0.242,0.367,0.432C109.469,65.856,109.266,65.917,109.061,65.976
			 M59.312,3.211c0.078-0.191,0.07-0.427-0.102-0.738c-0.051-0.092,0.025-0.251,0.07-0.37c0.074-0.191,0.143-0.573,0.447-0.187
			c0.508,0.644,1.326,0.999,2,1.494C60.93,3.325,60.123,3.261,59.312,3.211 M80.486,98.946c-0.092-0.203,0.145-0.469,0.252-0.703
			c0.074-0.16,0.227-0.32,0.271-0.475c-1.809,1.086-3.695,2.055-5.646,2.9c0.053,0.188,0.104,0.344,0.059,0.473
			c-0.039,0.107-0.326,0.178-0.502,0.266c-0.119-0.129-0.332-0.275-0.379-0.393c-3.027,1.248-6.205,2.193-9.498,2.811
			c-0.426,0.514-0.1,1.1,0.166,1.633c5.418-1,10.535-2.867,15.197-5.457C80.566,99.667,80.66,99.339,80.486,98.946 M75.396,102.294
			c0.162-0.338,0.178-0.549,0.35-0.676c0.145-0.107,0.473-0.113,0.721-0.164c-0.023,0.15,0.035,0.344-0.092,0.443
			C76.199,102.036,75.885,102.104,75.396,102.294 M105.16,51.073c0.387-0.167,0.676-0.3,0.902-0.425
			c0.188,1.764,0.289,3.552,0.289,5.364c0,18.054-9.562,33.905-23.885,42.78c-0.01-0.027-0.014-0.057-0.025-0.082
			c-0.213-0.418,1.27-0.998-0.312-1.275c0.07-0.088,0.107-0.211,0.219-0.254c0.377-0.139,0.787-0.246,1.176-0.377
			c0.199-0.068,0.555-0.195,0.533-0.24c-0.078-0.168-0.223-0.334-0.377-0.52c12.701-8.787,21.047-23.447,21.047-40.032
			c0-1.516-0.08-3.015-0.217-4.497C104.705,51.347,104.904,51.184,105.16,51.073 M73.416,8.808
			c17.031,6.281,29.748,21.531,32.41,39.991c-0.08,0.079-0.15,0.175-0.193,0.287c-0.086-0.021-0.158-0.007-0.234,0.005
			c-0.391,0.008-0.779,0.017-1.17,0.025c-2.35-16.467-12.973-30.301-27.518-37.148c-0.303-0.602-1.137-1.009-0.941-1.811
			c0.004-0.018-0.102-0.073-0.102-0.073c-0.723,0.526-0.93-0.502-1.6-0.415C73.697,9.719,73.238,9.496,73.416,8.808 M104.25,49.293
			l1.148-0.202c0.076-0.001,0.16-0.003,0.234-0.005c0.016,0.141,0.084,0.32-0.02,0.385c-0.51,0.321-0.824,0.737-1.197,1.126
			C104.369,50.161,104.311,49.727,104.25,49.293 M11.697,77.983c0.119-0.045,0.342,0.025,0.474,0.092
			c0.185,0.09,0.313,0.244,0.495,0.34c0.056,0.027,0.138,0.02,0.224,0.006c-0.651-1.252-1.257-2.531-1.801-3.844
			c-0.28,0.152-0.548,0.34-0.854,0.42c-0.197,0.049-0.464-0.094-0.699-0.15c0.248-0.137,0.496-0.275,0.695-0.385
			c0.355,0.035,0.604,0.057,0.846,0.08C8.875,69.22,7.601,63.423,7.435,57.353c-0.057-0.033-0.116-0.059-0.175-0.09
			c0.055-0.021,0.111-0.045,0.171-0.07c-0.009-0.393-0.028-0.785-0.028-1.181c0-1.54,0.08-3.061,0.221-4.566
			c-0.176,0.041-0.354,0.081-0.529,0.122c-0.031,0.008-0.091-0.08-0.137-0.123c0.242-0.151,0.479-0.297,0.701-0.435
			c0.572-5.58,2.098-10.88,4.4-15.743c-0.129-0.031-0.283-0.055-0.471-0.066c0,0-0.018-0.284,0.02-0.289
			c0.274-0.042,0.553-0.053,0.645-0.058c2.178-4.492,5.037-8.594,8.426-12.188c-0.105-0.06-0.21-0.129-0.318-0.185
			c0.238-0.141,0.512-0.42,0.707-0.399c0.051,0.004,0.102,0.013,0.15,0.018c0.82-0.841,1.667-1.653,2.545-2.434
			c-0.064-0.992,0.557-1.726,1.141-2.474c-0.154-0.086-0.318-0.162-0.496-0.226c-0.982,0.799-1.93,1.637-2.85,2.505
			c0.078-0.021,0.156-0.043,0.23-0.057c0.045-0.009,0.115,0.072,0.172,0.112c-0.172,0.119-0.338,0.247-0.525,0.348
			c-0.014,0.007-0.085-0.046-0.176-0.118C11.721,28.915,5.764,41.777,5.764,56.012c0,4.808,0.693,9.452,1.957,13.858
			c0.238-0.057,0.482-0.133,0.695-0.086c0.285,0.061,0.527,0.285,0.789,0.439c-0.276,0.068-0.553,0.137-0.994,0.244
			c-0.131-0.117-0.281-0.25-0.428-0.381c0.199,0.68,0.412,1.354,0.639,2.021c0.113,0.045,0.229,0.084,0.341,0.133
			c-0.083,0.049-0.164,0.115-0.247,0.145c0.082,0.238,0.156,0.479,0.242,0.713c0.023,0.008,0.048,0.018,0.072,0.025
			c-0.016,0.027-0.025,0.047-0.039,0.072c0.678,1.859,1.472,3.66,2.355,5.41C11.197,78.347,11.378,78.103,11.697,77.983
			 M8.191,67.505c-0.16-0.121-0.33-0.232-0.47-0.365c-0.026-0.025,0.065-0.129,0.101-0.197c0.18,0.1,0.357,0.199,0.515,0.289
			C8.264,67.37,8.227,67.437,8.191,67.505 M74.82,11.122c0.082,0.02,0.148,0.049,0.211,0.086
			C74.961,11.178,74.891,11.151,74.82,11.122 M25.486,17.656c0.096,0.107,0.182,0.221,0.256,0.343
			c-0.271,0.215-0.543,0.429-0.809,0.651C25.117,18.319,25.304,17.988,25.486,17.656 M64.273,8.063
			c-2.08-0.355-4.201-0.579-6.361-0.66l-0.258-1.058c0.109-0.046,0.219-0.091,0.328-0.136c-0.139-0.151-0.275-0.301-0.412-0.452
			c1.16,0.035,2.312,0.097,3.451,0.208c0.047,0.042,0.088,0.075,0.102,0.069c0.035-0.013,0.066-0.035,0.1-0.051
			c0.91,0.093,1.814,0.215,2.711,0.356c-0.701,0.6,0.168,0.544,0.459,0.73C64.34,7.396,64.326,7.736,64.273,8.063"/>
	</g>
	<g>
		<path fill="#6AA4B5" d="M86.424,53.196c0.268-0.058,0.533-0.113,0.807-0.16c0.549-0.098,1.105-0.182,1.668-0.243
			c-0.223-0.172-0.445-0.341-0.658-0.521c-0.02-0.016,0.088-0.113,0.191-0.243c0.277,0.254,0.533,0.483,0.768,0.722
			c0.58-0.038,1.172-0.075,1.768-0.09c-0.189-0.152-0.309-0.382-0.355-0.711c-0.029-0.211-0.072-0.436-0.127-0.655
			c-2.223,0.095-4.373,0.458-6.375,1.077c-0.664,0.205-1.316,0.44-1.945,0.702c0.281,0.282,0.523,0.584,0.93,0.751
			c0.154,0.063,0.295,0.125,0.434,0.187c0.697-0.25,1.416-0.46,2.154-0.641C85.928,53.309,86.172,53.25,86.424,53.196
			 M89.865,51.761c0.068,0.104,0.139,0.206,0.252,0.378c-0.123,0.086-0.236,0.196-0.391,0.252c-0.047,0.017-0.301-0.166-0.285-0.185
			C89.559,52.049,89.719,51.908,89.865,51.761 M130.773,62.009c0.145,0.346,0.023,0.762-0.256,0.93
			c-0.598,0.367-1.197,0.691-1.797,0.979c-0.447,0.227-0.895,0.424-1.334,0.602c-0.559,0.232-1.117,0.43-1.676,0.609
			c-0.086,0.027-0.172,0.059-0.26,0.084c-0.547,0.168-1.096,0.312-1.641,0.434c-0.07,0.014-0.141,0.029-0.211,0.043
			c-1.18,0.25-2.361,0.398-3.541,0.463c0.051-0.395,0.098-0.791,0.113-1.186c0.004-0.068-0.338-0.221-0.48-0.191
			c-0.25,0.053-0.672,0.229-0.662,0.324c0.033,0.363,0.135,0.723,0.252,1.078c-0.189,0.004-0.381,0.012-0.572,0.012
			c-1.525,0-3.043-0.127-4.562-0.355c-0.518-0.078-1.037-0.168-1.557-0.268c-0.561-0.107-1.127-0.225-1.686-0.355
			c-0.719-0.156-1.43-0.334-2.143-0.523c-1.125-0.301-2.246-0.631-3.363-0.973c-0.156-0.418-0.24-0.863-1.311-0.949
			c-0.443-0.035-0.834-0.127-1.168-0.27c0.225-0.264,0.451-0.525,0.641-0.799l2.863,0.883c-0.018,0.031-0.023,0.062-0.018,0.088
			c0.088,0.305,0.236,0.6,0.398,0.889c0.047,0.08,0.229,0.119,0.348,0.178c0.072-0.119,0.229-0.25,0.203-0.359
			c-0.045-0.199-0.135-0.393-0.229-0.586c0.301,0.088,0.6,0.184,0.9,0.27c0.688,0.188,1.373,0.365,2.061,0.533
			c0.553,0.139,1.096,0.268,1.646,0.375c0.504,0.109,1.006,0.209,1.51,0.297c0.652,0.117,1.305,0.209,1.955,0.287
			c0.027,0.164,0.367,0.254,0.57,0.361c0.07-0.088,0.207-0.195,0.242-0.275c0.373,0.037,0.746,0.064,1.117,0.086
			c0.078,0.006,0.154,0.01,0.23,0.014c1.564,0.078,3.127,0.021,4.686-0.201c0.051-0.008,0.1-0.016,0.15-0.023
			c1.189-0.18,2.381-0.461,3.566-0.861c0.469-0.082,0.754-0.141,1.037-0.199c-0.062-0.031-0.125-0.066-0.186-0.102
			c0.316-0.121,0.631-0.238,0.949-0.381c0.822-0.367,1.646-0.789,2.461-1.285C130.303,61.517,130.639,61.663,130.773,62.009
			 M111.795,49.827c0.018,0.03,0.045,0.061,0.062,0.091c1.094,0.225,2.189,0.408,3.287,0.541c0.111,0.013,0.223,0.024,0.336,0.038
			c0.416,0.045,0.83,0.083,1.244,0.111c0.139,0.009,0.279,0.021,0.418,0.029c0.521,0.029,1.045,0.05,1.566,0.05
			c0,0,1.047-0.021,1.447-0.04c0.588-0.035,1.178-0.098,1.77-0.177c0.127-0.017,0.254-0.036,0.381-0.053
			c0.602-0.091,1.199-0.199,1.799-0.341c0.002-0.065,0.043-0.147,0.17-0.251c0.582-0.478,0.516-0.97-0.078-1.217
			c-0.352,0.088-0.709,0.169-1.062,0.237c-0.029,0.006-0.061,0.011-0.09,0.017c-0.326,0.062-0.654,0.121-0.98,0.166
			c-0.113,0.017-0.227,0.03-0.338,0.044c-0.256,0.033-0.508,0.066-0.764,0.09c-0.387,0.037-0.773,0.065-1.158,0.081
			c-0.391,0.03-0.775,0.03-1.166,0.03c-0.582-0.001-1.162-0.029-1.742-0.068c-0.143-0.009-0.285-0.02-0.432-0.031
			c-0.559-0.046-1.117-0.102-1.676-0.176c-0.014-0.002-0.029-0.003-0.043-0.005c-0.596-0.08-1.189-0.18-1.783-0.289
			c-0.113-0.021-0.227-0.041-0.34-0.063c-0.58-0.112-1.162-0.23-1.742-0.365C111.182,48.794,111.482,49.314,111.795,49.827
			 M119.662,49.455c0.297,0.264,0.568,0.545,0.908,0.882c-0.105,0.047-0.227,0.144-0.297,0.126c-0.219-0.053-0.5-0.113-0.602-0.239
			c-0.178-0.217-0.236-0.485-0.348-0.732C119.441,49.478,119.625,49.421,119.662,49.455 M87.59,60.741
			c-0.506,0.08-1.006,0.178-1.5,0.289c-0.039,0.01-0.078,0.02-0.117,0.029c-1.5,0.346-2.928,0.828-4.252,1.451
			c-0.246-0.361-0.607-0.629-1.244-0.586c-0.184,0.012-0.346,0-0.506-0.016c0.492-0.279,1.004-0.541,1.531-0.785
			c0,0,0.545,0.203,0.793,0.297c0.135-0.072,0.219-0.115,0.303-0.158c-0.254-0.096-0.506-0.205-0.768-0.283
			c0.029-0.012,0.059-0.027,0.088-0.041c0.141-0.061,0.275-0.127,0.418-0.186c0.123,0.092,0.25,0.188,0.365,0.291
			c0.238-0.242,0.451-0.451,0.637-0.658c0.586-0.205,1.182-0.391,1.793-0.549c0.047,0.008,0.061,0.008,0.076,0.008
			c0.059,0.062,0.113,0.119,0.184,0.137c0.34,0.08,0.684,0.146,1.023,0.225C86.877,60.415,87.24,60.581,87.59,60.741
			 M130.773,69.757c0.145,0.355,0.023,0.77-0.256,0.938c-3.266,1.977-6.551,2.914-9.828,3.172c-0.59,0.049-1.189,0.07-1.781,0.08
			h-0.199c-0.6,0-1.199-0.021-1.797-0.061c-0.848-0.049-1.701-0.146-2.549-0.266c-0.518-0.074-1.031-0.16-1.547-0.254
			c-0.008-0.072-0.018-0.141-0.018-0.201c-0.002-0.186-0.215-0.375-0.49-0.809c-0.449,0.311-1.016,0.701-1.016,0.701
			c-0.707-0.156-1.414-0.328-2.119-0.514c-0.156-0.039-0.314-0.08-0.473-0.123c-1.395-0.371-2.785-0.785-4.17-1.217
			c-0.18-0.057-1.836-0.58-2.48-0.787c-2.166-0.689-4.395-1.402-6.592-1.996c-0.566-0.078-1.135-0.131-1.701-0.17
			c-0.463-0.037-0.922-0.055-1.381-0.066c0.041-0.061,0.066-0.111,0.049-0.148c-0.033-0.076-0.234-0.17-0.33-0.154
			c-0.098,0.014-0.221,0.164-0.207,0.242c0.004,0.018,0.018,0.033,0.035,0.051c-0.678-0.008-1.35,0.014-2.016,0.057
			c-0.693,0.047-1.344,0.117-1.984,0.211l-0.049,0.008c-0.641,0.096-1.271,0.215-1.891,0.357c-0.66,0.154-1.271,0.322-1.871,0.518
			c-0.035-0.031-0.068-0.062-0.105-0.094c-0.111-0.09-0.416-0.127-0.584-0.086c-0.146,0.035-0.297,0.209-0.32,0.334
			c-0.014,0.066-0.016,0.129-0.018,0.191c-0.619,0.236-1.223,0.5-1.805,0.791c-0.59,0.297-1.152,0.615-1.688,0.959
			c-0.209-0.084-0.418-0.168-0.631-0.25c-0.066-0.025-0.143-0.037-0.215-0.057c-0.061-0.166-0.064-0.346-0.02-0.506
			c0.037-0.105,0.062-0.168,0.098-0.219c0.045-0.068,0.1-0.127,0.166-0.17c0.383-0.25,0.795-0.469,1.203-0.693
			c0.084,0.062,0.168,0.127,0.252,0.191c0.088,0.062,0.162,0.141,0.217,0.189c0.258-0.193,0.516-0.338,0.66-0.529
			c0.033-0.045-0.123-0.201-0.277-0.303c0.438-0.213,0.883-0.416,1.342-0.6c0.037,0.088,0.082,0.184,0.131,0.303
			c0.215-0.158,0.412-0.273,0.396-0.293c-0.047-0.055-0.104-0.105-0.158-0.156c1.057-0.402,2.168-0.721,3.314-0.967
			c0.053-0.01,0.105-0.027,0.158-0.037c0.574-0.117,1.158-0.215,1.748-0.295c0.025-0.004,0.051-0.008,0.076-0.012
			c0.609-0.082,1.225-0.141,1.846-0.182c0.062,0.424,0.389,0.137,0.826-0.039c0.016-0.006,0.033-0.008,0.049-0.014
			c0.098-0.004,0.189-0.014,0.287-0.018c-0.021,0.188-0.061,0.324,0.008,0.416c0.115,0.152,0.355,0.256,0.543,0.381
			c0.027-0.148,0.135-0.32,0.064-0.436c-0.072-0.123-0.225-0.221-0.414-0.357c0.727-0.01,1.449,0.006,2.176,0.053
			c0.732,0.049,1.467,0.119,2.203,0.225c-0.115,0.086-0.332,0.223-0.633,0.377c0.529,0.16,0.828,0.309,1.135,0.318
			c0.166,0.006,0.535-0.297,0.492-0.336c-0.047-0.043-0.113-0.08-0.172-0.123c1.986,0.553,3.957,1.164,5.867,1.781
			c3.555,1.135,7.156,2.281,10.777,2.934c0.83,0.148,1.662,0.268,2.492,0.365c0.646,0.068,1.303,0.117,1.951,0.139
			c0.582,0.029,1.166,0.039,1.748,0.02c3.588-0.08,7.176-0.939,10.723-3.082C130.303,69.271,130.639,69.411,130.773,69.757
			 M85.312,45.708c-0.191,0.051-0.389,0.096-0.578,0.15c-0.129-0.223-0.246-0.455-0.504-0.551c-0.438-0.162-1.055-0.152-1.611-0.191
			c0.574-0.223,1.17-0.417,1.771-0.593c0.188-0.056,0.377-0.104,0.568-0.156c0.447-0.119,0.902-0.227,1.363-0.322
			c0.195-0.039,0.391-0.083,0.586-0.118c0.627-0.113,1.258-0.209,1.9-0.277c0.016-0.001,0.031-0.005,0.047-0.007
			c0.658-0.067,1.326-0.103,1.996-0.12c0.201-0.006,0.404-0.006,0.605-0.008c0.502-0.003,1.004,0.008,1.51,0.032
			c0.203,0.009,0.404,0.017,0.609,0.032c0.686,0.047,1.375,0.113,2.066,0.211c0.684,0.182,1.359,0.388,2.039,0.586
			c-0.029,0.117-0.076,0.207-0.16,0.231c-1.645,0.509-0.119,0.613,0.176,0.734c0.459,0.188,1.045,0.207,1.506,0.393
			c0.58,0.233,0.85-0.043,1.049-0.3c0.055-0.07,0.098-0.156,0.129-0.244c0.652,0.205,7.375,2.285,7.766,2.394
			c0.65,0.179,1.301,0.346,1.951,0.506c0.309,0.552,0.623,1.103,0.939,1.653c-0.609-0.136-1.217-0.286-1.822-0.442
			c-0.238-0.181-0.477-0.361-0.715-0.543c-0.055,0.083-0.113,0.17-0.201,0.302c-0.383-0.106-2.58-0.75-2.635-0.766
			c-0.041-0.04-0.086-0.083-0.115-0.113c-0.027,0.019-0.053,0.034-0.08,0.051c-0.434-0.132-3.445-1.083-3.459-1.086
			c-0.18-0.167-0.416-0.282-0.652-0.376c-0.025-0.012-0.107,0.049-0.189,0.11c-0.873-0.278-4.686-1.442-5.709-1.716
			c-0.525-0.076-1.049-0.117-1.572-0.16c-0.221-0.276-0.467-0.547-0.707-0.819c-0.115,0.097-0.334,0.198-0.322,0.289
			c0.021,0.156,0.064,0.312,0.111,0.462c-0.967-0.047-1.924-0.031-2.871,0.024c-0.119-0.135-0.217-0.28-0.324-0.42
			c-0.105,0.165-0.211,0.33-0.238,0.371c-0.002,0.032-0.006,0.057-0.008,0.084c-0.385,0.032-0.766,0.072-1.146,0.12
			c-0.215,0.027-0.43,0.062-0.643,0.095c-0.461,0.071-0.918,0.15-1.369,0.246C86.012,45.533,85.662,45.616,85.312,45.708
			 M79.311,63.784c-0.064,0.008-0.123-0.004-0.184-0.021c-0.16-0.053-0.279-0.166-0.354-0.332c0.451,0.113,1.08-0.012,1.555-0.404
			c0.043-0.035,0.166-0.006,0.311,0.039c-0.381,0.207-0.762,0.41-1.119,0.645C79.453,63.753,79.381,63.776,79.311,63.784
			 M93.797,51.804c-0.053,0.168-0.104,0.338-0.156,0.506c-0.164,0.128-0.359,0.243-0.578,0.336c0.266-0.334,0.18-0.676-0.09-1.058
			c-0.041-0.058,0.061-0.172,0.17-0.288c0,0,0.203,0.007,0.307,0.015c0.059,0.075,0.121,0.149,0.168,0.226
			c0.043,0.069,0.027,0.157,0.037,0.237C93.701,51.787,93.75,51.795,93.797,51.804 M93.047,60.45
			c-0.219-0.012-0.434-0.006-0.65-0.014c-0.199-0.393-0.885-0.23-1.086-0.182c-0.176,0.043-0.215,0.096-0.191,0.156
			c-0.217,0.004-0.424,0.027-0.639,0.037c-0.375,0.018-0.754,0.033-1.125,0.068c-0.545,0.047-1.082,0.121-1.615,0.203
			c0.051-0.062,0.104-0.129,0.156-0.191c0.041,0.008,0.08,0.018,0.119,0.025c0.113,0.021,0.363-0.068,0.398-0.145
			c0.18-0.389-0.674-0.736-0.404-1.137c0.381-0.053,0.76-0.105,1.146-0.141c0.166,0.221,0.275,0.467,0.271,0.766
			c0,0.062,0.104,0.129,0.176,0.213c0.223-0.242,0.324-0.465,0.531-0.549c0.27-0.109,0.623-0.117,0.943-0.156
			c0.504-0.061,0.639-0.189,0.49-0.383c0.119,0,0.238,0.006,0.355,0.008c-0.002,0.262-0.018,0.525-0.029,0.787
			c0.148-0.223,0.246-0.48,0.43-0.678c0.096,0.094,0.203,0.176,0.316,0.252c0.043,0.105,0.137,0.225,0.303,0.367
			C93.129,59.919,93.242,60.253,93.047,60.45 M92.938,52.691c0.043-0.014,0.084-0.027,0.125-0.045
			c-0.014,0.016-0.023,0.031-0.035,0.047C92.996,52.692,92.969,52.693,92.938,52.691 M102.695,61.425
			c-0.135,0.227-0.266,0.455-0.398,0.682c-0.219-0.186-0.385-0.406-0.492-0.66c-0.07-0.17-0.459-0.291-0.391-0.25
			c-0.959,0.105-1.451,0.15-1.936,0.215c-0.191,0.025-0.371,0.088-0.555,0.133c0.201,0.086,0.41,0.164,0.602,0.256
			c0.17,0.086,0.361,0.162,0.551,0.24c0,0-3.67-1.113-4.617-1.365c-0.604-0.084-1.205-0.137-1.807-0.182
			c0.037-0.115,0.059-0.236,0.074-0.354c0.051-0.344-0.027-0.697-0.078-1.051c0.273,0.02,0.551,0.055,0.826,0.086
			c0.234,0.191,0.482,0.342,0.996,0.193c0.27-0.08,0.748,0.176,1.107,0.316c0.023,0.01,0.041,0.025,0.064,0.037
			c-0.041,0.053-0.082,0.107-0.111,0.158c-0.053,0.088,0.281,0.32,0.604,0.658c0.268-0.23,0.498-0.426,0.715-0.609
			C97.85,59.929,102.574,61.384,102.695,61.425 M129.852,55.575c-0.426,0.238-0.852,0.451-1.275,0.654
			c-0.201,0.097-0.402,0.193-0.602,0.281c-0.182,0.082-0.361,0.152-0.543,0.227c-0.494,0.203-0.986,0.391-1.479,0.553
			c-0.197-0.197-0.422-0.381-0.637-0.569c-0.104,0.092-0.209,0.184-0.43,0.379c0.174,0.139,0.479,0.379,0.479,0.379
			c-0.461,0.137-0.922,0.256-1.383,0.361c-0.246-0.09-0.68-0.1-1.016-0.125c-0.178-0.014-0.373,0.061-0.582,0.1
			c0.07,0.092,0.125,0.188,0.209,0.271c-0.152,0.057-0.33,0.098-0.514,0.119c-1.125,0.166-2.244,0.236-3.371,0.236
			c-2.836,0-5.664-0.455-8.477-1.137c-0.025-0.004-0.049-0.012-0.074-0.018c0.066-0.051,0.117-0.102,0.117-0.139
			c0.014-0.245-0.199-0.493-0.408-0.926c-0.439,0.347-0.816,0.548-0.781,0.638c0.023,0.061,0.057,0.121,0.096,0.18
			c-0.092-0.025-9.746-2.956-11.066-3.354c0.018-0.114,0.037-0.213,0.014-0.298c-0.018-0.063-0.176-0.105-0.27-0.156
			c-0.072,0.106-0.189,0.214-0.203,0.321c-0.732-0.218-1.467-0.442-2.197-0.636c-0.654-0.092-1.307-0.152-1.957-0.197
			c0.047-0.137,0.098-0.274,0.139-0.412c0.385-0.298,0.584-0.658,0.477-0.927c0.182,0.015,0.934,0.088,1.129,0.113
			c-0.08,0.045-0.141,0.086-0.141,0.086c0.459,0.51,0.939,1.012,1.436,1.505c0.014,0.013,0.199-0.065,0.432-0.141
			c-0.156-0.172-0.299-0.329-0.445-0.49c0.307-0.108,0.586-0.347,0.875-0.41l3.488,1.053c-0.092,0.229-0.178,0.458-0.242,0.691
			c-0.012,0.038,0.25,0.119,0.385,0.179c0.088-0.249,0.178-0.495,0.264-0.741c0.016,0.004,0.031,0.008,0.045,0.013
			c0.262,0.297,0.623,0.499,1.193,0.444c0.076-0.007,0.143,0.002,0.215,0c0.297,0.094,1.369,0.433,1.609,0.508
			c0.104,0.088,0.209,0.179,0.301,0.292c0.092,0.113,0.283,0.175,0.428,0.26c0.051-0.08,0.104-0.162,0.172-0.267
			c0.592,0.185,1.184,0.361,1.768,0.527c0.48,0.148,2.293,0.642,2.717,0.753c3.861,0.976,7.744,1.559,11.609,1.125
			c0.336-0.033,0.676-0.086,1.012-0.145c0.191,0.238,0.615,0.413,0.955,0.588c0.037,0.02,0.291-0.186,0.42-0.274
			c-0.121-0.172-0.35-0.502-0.35-0.502c0.531-0.113,1.064-0.246,1.596-0.403c0.068-0.021,0.135-0.04,0.201-0.062
			c0.52-0.158,1.041-0.332,1.561-0.537c0.967-0.376,1.924-0.84,2.885-1.393c0.121-0.067,0.252-0.143,0.375-0.219
			c0.068,0.085,0.115,0.265,0.094,0.371c-0.039,0.19-0.148,0.39-0.301,0.546C129.467,55.199,129.605,55.402,129.852,55.575
			 M128.414,39.679c0.064,0.012,0.127,0.02,0.189,0.03c0.035,0.029,0.072,0.058,0.107,0.086c0.291,0.245,0.539,0.408,0.346,0.698
			c-0.504,0.258-1,0.486-1.492,0.694c-0.523,0.216-1.012,0.402-1.502,0.568c-0.002-0.038-0.002-0.073,0.012-0.098
			c0.295-0.569,1.215-0.97,1.166-1.655C127.232,39.898,128.031,39.78,128.414,39.679 M129.523,47.165
			c-0.125-0.166-0.244-0.332-0.359-0.501c0.154-0.085,0.309-0.171,0.463-0.26c0.1,0.184,0.193,0.371,0.277,0.558
			c0.023,0.056-0.035,0.165-0.102,0.2C129.738,47.196,129.545,47.196,129.523,47.165 M128.211,39.394
			c0.203-0.097,0.406-0.192,0.609-0.298c0.176,0.31,0.426,0.661,0.779,0.804c0.066,0.027,0.109,0.055,0.166,0.083
			c-0.031-0.014-0.064-0.028-0.088-0.042c-0.227-0.134-0.631-0.162-1.074-0.23C128.475,39.605,128.342,39.5,128.211,39.394
			 M96.145,52.038c-0.148-0.164-0.295-0.324-0.441-0.483c0.25,0.067,0.492,0.145,0.742,0.214c-0.08,0.066-0.16,0.131-0.238,0.195
			C96.182,51.985,96.166,52.013,96.145,52.038 M78.76,55.666c-0.152-0.347-0.039-0.771,0.232-0.948
			c0.486-0.318,1.002-0.604,1.525-0.88c0.111,0.354,0.293,0.687,1.189,0.785c0.078,0.009,0.152,0.024,0.23,0.037
			c-0.383,0.174-0.76,0.354-1.125,0.55c-0.445,0.231-0.881,0.474-1.293,0.743C79.246,56.141,78.904,56.003,78.76,55.666
			 M79.52,40.451c0.307-0.2,0.639-0.373,0.961-0.554c-0.256-0.161-0.441-0.264-0.406-0.311c0.125-0.182,0.396-0.344,0.676-0.454
			c0.066-0.024,0.576,0.201,0.568,0.299c0.4-0.199,0.814-0.378,1.232-0.548c0.279-0.115,0.559-0.226,0.842-0.328
			c-0.064-0.141-0.045-0.306-0.012-0.503c-0.205-0.01-0.41-0.02-0.615-0.033c-0.131-0.009-0.242-0.148-0.361-0.228
			c0.389-0.105,0.773-0.217,1.164-0.32c0.039-0.055,0.074-0.109,0.115-0.169c0.066,0.031,0.137,0.062,0.205,0.092
			c0.121-0.028,0.238-0.064,0.363-0.088c0.186-0.034,0.684,0.136,0.697,0.228c0.014,0.1-0.039,0.245-0.113,0.358
			c0.07,0.042,0.135,0.085,0.193,0.131c0.502-0.14,1.018-0.256,1.539-0.363c0.207-0.042,0.418-0.083,0.631-0.12
			c0.539-0.095,1.082-0.178,1.635-0.237c0.148-0.017,0.301-0.025,0.453-0.04c0.496-0.045,1-0.075,1.506-0.092
			c0.152-0.004,0.301-0.013,0.451-0.015c0.607-0.01,1.221,0.004,1.838,0.036c0.141,0.009,0.283,0.019,0.426,0.03
			c0.648,0.043,1.299,0.104,1.951,0.196c0.957,0.254,1.914,0.536,2.873,0.828c0.65,0.197,1.293,0.395,1.939,0.599
			c-0.016-0.043-0.029-0.079-0.047-0.127c0.121-0.023,0.365-0.071,0.611-0.121c0.039,0.156,0.1,0.312,0.133,0.467
			c0.359,0.115,3.189,1.008,3.279,1.036c0.086-0.056,0.174-0.125,0.264-0.218c0.033-0.033,0.146-0.017,0.223-0.023
			c-0.01,0.128-0.008,0.258-0.008,0.389c0.275,0.084,2.805,0.846,3.174,0.945c0.354,0.099,0.707,0.192,1.062,0.286
			c0.215-0.128,0.422-0.088,0.518,0.134c0,0,1.748,0.415,1.824,0.431c0.551,0.122,1.105,0.235,1.658,0.335
			c0.059-0.033,0.121-0.064,0.166-0.104c0.408-0.366,0.391-0.369,0.748,0.045c0.07,0.083,0.188,0.199,0.279,0.256
			c0,0,0.125,0.016,0.139,0.019c0.174-0.048,0.385-0.166,0.412-0.275c0.098-0.41,0.246-0.734-0.584-1.027
			c-0.164-0.059-0.303-0.134-0.43-0.216c-0.947-0.156-1.893-0.345-2.838-0.562c-0.018-0.004-0.035-0.007-0.053-0.013
			c-0.947-0.218-1.891-0.459-2.832-0.721c-0.375-0.108-5.064-1.541-5.639-1.729c-2.174-0.691-4.42-1.413-6.689-2.015
			c-6.137-0.879-12.209,0.287-16.65,3.181c-0.271,0.179-0.379,0.6-0.232,0.938C78.908,40.497,79.246,40.629,79.52,40.451
			 M112.639,41.05c0.043-0.037,0.322,0.078,0.666,0.167c-0.357,0.321-0.602,0.541-0.844,0.758c-0.105-0.116-0.326-0.257-0.291-0.339
			C112.26,41.421,112.439,41.22,112.639,41.05 M118.113,42.922c0.074-0.164,0.066-0.365-0.109-0.626
			c-0.053-0.079,0.027-0.216,0.074-0.319c0.074-0.164,0.145-0.494,0.457-0.161c0.428,0.455,1.068,0.743,1.668,1.064
			c-0.375,0.022-0.75,0.043-1.125,0.049C119.078,42.93,118.311,42.928,118.113,42.922 M122.924,42.557
			c-0.047-0.04-0.088-0.079-0.104-0.115c-0.174-0.402-0.336-0.807-0.496-1.211c0.402-0.063,0.807-0.135,1.207-0.222
			c0.025-0.006,0.053-0.013,0.078-0.019c0.387-0.084,0.773-0.177,1.158-0.284c0.141,0.164,0.199,0.343-0.016,0.584
			c0.359,0.195,0.504,0.437,0.568,0.694c-0.385,0.115-0.771,0.217-1.156,0.311c-0.031,0.007-0.061,0.014-0.092,0.021
			C123.689,42.407,123.307,42.488,122.924,42.557 M125.904,40.356l0.107-0.04c-0.01,0.034-0.021,0.07-0.033,0.104
			C125.957,40.398,125.93,40.378,125.904,40.356 M78.76,47.911c-0.152-0.347-0.039-0.771,0.232-0.949
			c0.518-0.336,1.059-0.644,1.617-0.933c0.557-0.284,1.129-0.545,1.719-0.784c0.068,0.047,0.141,0.126,0.205,0.124
			c0.965-0.023,0.932,0.482,1.285,0.798c-0.602,0.205-1.186,0.434-1.754,0.687c-0.191,0.084-0.385,0.167-0.574,0.258
			c-0.205,0.1-0.406,0.203-0.605,0.308c-0.471,0.247-0.93,0.503-1.365,0.787C79.246,48.385,78.904,48.246,78.76,47.911
			 M129.885,40.033c-0.033-0.019-0.08-0.032-0.119-0.051C129.803,39.997,129.842,40.015,129.885,40.033"/>
	</g>
	<g>
		<path fill-rule="evenodd" clip-rule="evenodd" fill="#295866" stroke="#FFFFFF" stroke-width="0.2" stroke-miterlimit="10" d="
			M29.303,51.312c1.863-2.348,3.727-4.698,5.594-7.045c1.094-1.375,2.203-2.738,3.288-4.119c0.337-0.426,0.734-0.604,1.273-0.604
			c11.993,0.008,23.984,0.008,35.977-0.001c0.567,0,0.963,0.213,1.31,0.648c2.815,3.536,5.644,7.063,8.467,10.594
			c0.137,0.168,0.253,0.352,0.379,0.527c0,0.221,0,0.44,0,0.661c-0.178,0.229-0.342,0.471-0.537,0.684
			c-8.809,9.745-17.619,19.486-26.434,29.222c-0.255,0.282-0.562,0.513-0.844,0.767c-0.22,0-0.438,0-0.659,0
			c-0.257-0.227-0.538-0.435-0.768-0.688c-7.783-8.593-15.562-17.191-23.339-25.795c-1.251-1.384-2.473-2.792-3.707-4.189
			C29.303,51.752,29.303,51.532,29.303,51.312z M68.938,52.771c-7.688,0-15.295,0-22.984,0c3.826,8.672,7.629,17.293,11.492,26.048
			C61.309,70.064,65.11,61.445,68.938,52.771z M46.226,50.498c7.514,0,14.95,0,22.417,0c-0.056-0.112-0.081-0.179-0.117-0.241
			c-1.639-2.731-3.284-5.457-4.906-8.197c-0.181-0.306-0.398-0.314-0.679-0.314c-3.022,0.003-6.046,0-9.067,0.003
			c-0.787,0-1.725-0.246-2.32,0.096c-0.611,0.353-0.903,1.279-1.316,1.965C48.905,46.018,47.583,48.231,46.226,50.498z
			 M32.88,52.741c6.923,7.655,13.757,15.213,20.592,22.768c0.043-0.128,0.025-0.198-0.004-0.263
			c-3.255-7.377-6.513-14.752-9.754-22.132c-0.152-0.348-0.363-0.377-0.677-0.377c-3.185,0.008-6.372,0.005-9.558,0.005
			C33.323,52.741,33.168,52.741,32.88,52.741z M61.337,75.478c0.024,0.015,0.05,0.028,0.075,0.043
			c6.84-7.564,13.682-15.129,20.602-22.779c-3.45,0-6.745,0.012-10.042-0.013c-0.479-0.003-0.691,0.146-0.882,0.578
			c-3.167,7.219-6.352,14.429-9.532,21.639C61.48,75.121,61.41,75.302,61.337,75.478z M32.733,50.487
			c0.132,0.031,0.18,0.053,0.23,0.053c3.442,0.002,6.888,0.008,10.33-0.014c0.191-0.001,0.451-0.201,0.562-0.38
			c1.606-2.643,3.192-5.297,4.781-7.95c0.079-0.128,0.136-0.268,0.227-0.448c-2.992,0-5.903-0.003-8.815,0.01
			c-0.171,0.001-0.396,0.101-0.501,0.232C37.283,44.796,35.034,47.614,32.733,50.487z M82.17,50.543
			c-0.113-0.163-0.168-0.25-0.231-0.33c-2.173-2.718-4.343-5.438-6.532-8.141c-0.143-0.176-0.449-0.309-0.681-0.311
			c-2.747-0.021-5.494-0.014-8.241-0.014c-0.138,0-0.272,0-0.484,0c0.125,0.223,0.202,0.365,0.285,0.501
			c1.57,2.622,3.15,5.238,4.708,7.867c0.191,0.324,0.402,0.438,0.778,0.436c3.277-0.016,6.556-0.008,9.834-0.008
			C81.764,50.543,81.922,50.543,82.17,50.543z"/>
		<path fill-rule="evenodd" clip-rule="evenodd" fill="#295866" stroke="#FFFFFF" stroke-width="0.2" stroke-miterlimit="10" d="
			M57.775,26.357c0.593,0.323,0.793,0.816,0.782,1.49c-0.035,2.011-0.009,4.021-0.015,6.032c-0.001,0.694-0.339,1.147-0.907,1.253
			c-0.634,0.119-1.271-0.356-1.276-1.036c-0.022-2.229-0.012-4.46-0.007-6.689c0.001-0.524,0.375-0.798,0.764-1.051
			C57.337,26.357,57.556,26.357,57.775,26.357z"/>
		<path fill-rule="evenodd" clip-rule="evenodd" fill="#295866" stroke="#FFFFFF" stroke-width="0.2" stroke-miterlimit="10" d="
			M51.962,33.925c-0.05,0.595-0.258,0.936-0.684,1.127c-0.433,0.194-0.834,0.11-1.169-0.202c-0.48-0.447-0.939-0.921-1.404-1.386
			c-0.984-0.982-1.977-1.958-2.947-2.953c-0.634-0.65-0.499-1.522,0.264-1.857c0.458-0.201,0.874-0.099,1.211,0.236
			c1.47,1.455,2.933,2.914,4.38,4.39C51.802,33.474,51.884,33.775,51.962,33.925z"/>
		<path fill-rule="evenodd" clip-rule="evenodd" fill="#295866" stroke="#FFFFFF" stroke-width="0.2" stroke-miterlimit="10" d="
			M69.663,29.56c-0.189,0.364-0.267,0.667-0.457,0.861c-1.445,1.477-2.903,2.942-4.378,4.39c-0.488,0.478-1.135,0.449-1.569,0.001
			c-0.421-0.433-0.445-1.061,0.012-1.528c1.462-1.487,2.94-2.958,4.424-4.421c0.342-0.338,0.804-0.451,1.207-0.173
			C69.203,28.895,69.402,29.251,69.663,29.56z"/>
		<path fill-rule="evenodd" clip-rule="evenodd" fill="#295866" stroke="#FFFFFF" stroke-width="0.2" stroke-miterlimit="10" d="
			M55.522,54.941c1.301,0,2.6-0.003,3.901,0c0.804,0.002,1.306,0.42,1.315,1.083c0.01,0.681-0.505,1.113-1.34,1.114
			c-2.565,0.003-5.129,0.003-7.694,0c-0.819-0.001-1.297-0.403-1.305-1.083c-0.009-0.704,0.474-1.112,1.329-1.114
			C52.994,54.938,54.257,54.941,55.522,54.941z"/>
		<path fill-rule="evenodd" clip-rule="evenodd" fill="#295866" stroke="#FFFFFF" stroke-width="0.2" stroke-miterlimit="10" d="
			M64.051,57.134c-0.606,0.007-1.113-0.505-1.104-1.112c0.009-0.586,0.498-1.072,1.084-1.078c0.586-0.005,1.084,0.474,1.104,1.058
			C65.158,56.607,64.656,57.129,64.051,57.134z"/>
	</g>
</g>
</svg>
