<?xml version="1.0" encoding="utf-8"?>
<!-- Generator: Adobe Illustrator 16.0.0, SVG Export Plug-In . SVG Version: 6.00 Build 0)  -->
<!DOCTYPE svg PUBLIC "-//W3C//DTD SVG 1.1//EN" "http://www.w3.org/Graphics/SVG/1.1/DTD/svg11.dtd">
<svg version="1.1" id="Laag_1" xmlns="http://www.w3.org/2000/svg" xmlns:xlink="http://www.w3.org/1999/xlink" x="0px" y="0px"
	 width="136px" height="112.082px" viewBox="0 0 136 112.082" enable-background="new 0 0 136 112.082" xml:space="preserve">
<g>
	<g>
		<path fill="#6AA4B5" d="M25.518,16.092c1.772-1.359,3.638-2.598,5.584-3.716c0.337,0.072,0.685,0.132,1.058,0.203
			c0.022-0.018,0.055-0.037,0.086-0.056c0.104,0.308,0.162,0.643,0.205,0.966c-0.527,0.294-1.053,0.59-1.568,0.902
			c-0.169-0.193-0.336-0.383-0.523-0.591c-0.104,0.154-0.209,0.266-0.189,0.284c0.154,0.156,0.32,0.303,0.482,0.454
			c-1.339,0.823-2.634,1.709-3.883,2.653c-0.044-0.047-0.096-0.093-0.127-0.145c-0.195-0.323-0.451-0.548-0.755-0.746
			c-0.022-0.027-0.046-0.054-0.062-0.08C25.705,16.188,25.607,16.14,25.518,16.092 M18.141,88.998
			c-2.544-2.921-4.758-6.132-6.581-9.584c0.087,0.044,0.221,0.066,0.283,0.038c0.02-0.41,0.016-0.591,0.014-0.77
			c0.194,0.066,0.395,0.197,0.584,0.181c0.18-0.016,0.428-0.06,0.617-0.112c1.811,3.408,4.014,6.574,6.549,9.442
			c-0.191-0.05-0.402-0.104-0.664-0.173C18.667,88.352,18.402,88.672,18.141,88.998 M48.374,6.306
			c2.505-0.387,5.072-0.588,7.683-0.588c0.361,0,0.721,0.02,1.082,0.028c-0.059,0.166-0.115,0.331-0.172,0.498
			c-0.012,0.042,0.006,0.091,0.008,0.138c0.002,0.399,0.143,0.898-0.277,0.99c-0.119-0.001-0.238-0.008-0.357-0.009
			c-0.086-0.013-0.17-0.026-0.279-0.055c0,0-0.029,0.02-0.057,0.049c-2.251,0.002-4.466,0.17-6.638,0.471
			c0.015-0.081,0.033-0.17,0.056-0.297C49.116,7.167,48.768,6.72,48.374,6.306 M32.029,12.076c-0.095-0.027-0.195-0.041-0.291-0.066
			c0.062-0.034,0.121-0.071,0.182-0.104C31.96,11.958,31.994,12.019,32.029,12.076 M34.66,10.661c0.008,0.58-0.117,1.08,0.254,1.538
			c2.688-1.304,5.519-2.359,8.455-3.154c0.022-0.175,0.08-0.354,0.238-0.537c-0.138-0.091-0.281-0.13-0.398-0.201
			c-0.191-0.118-0.362-0.263-0.541-0.395c0.103-0.082,0.261-0.251,0.302-0.232c0.229,0.111,0.461,0.244,0.627,0.417
			c0.071,0.073,0.021,0.236,0.007,0.369c0.332,0.081,0.571,0.184,0.752,0.323c1.448-0.36,2.921-0.661,4.417-0.886
			c-0.439-0.222-0.859-0.473-1.306-0.685c-0.306-0.146-0.642-0.245-0.965-0.366c0.025-0.025,0.05-0.053,0.076-0.08
			c-0.238,0.005-0.51,0.055-0.719-0.012c-3.922,0.812-7.676,2.086-11.207,3.755C34.654,10.564,34.66,10.602,34.66,10.661
			 M39.312,9.295c0.189,0.122,0.377,0.246,0.545,0.355c-0.068,0.158-0.104,0.238-0.14,0.318c-0.17-0.143-0.351-0.278-0.499-0.437
			C39.187,9.497,39.279,9.376,39.312,9.295 M35.673,10.713c0.158,0.132,0.326,0.209,0.334,0.297c0.01,0.092-0.121,0.259-0.215,0.274
			c-0.094,0.014-0.285-0.102-0.314-0.191C35.451,11.008,35.578,10.886,35.673,10.713 M9.271,80.683
			c0.16,0.303,0.32,0.605,0.486,0.903C9.342,81.362,9.316,81.02,9.271,80.683 M64.08,105.659c-2.615,0.421-5.291,0.646-8.023,0.646
			c-6.459,0-12.632-1.238-18.311-3.468c-0.014-0.117-0.043-0.227-0.092-0.259c-0.207-0.137-0.605-0.245-0.758-0.131
			c-4.342-1.745-8.33-4.11-11.93-6.949c0-0.1,0.003-0.199,0.001-0.297c-0.001-0.041-0.084-0.12-0.106-0.113
			c-0.08,0.024-0.222,0.097-0.216,0.123c-1.084-0.836-2.131-1.752-3.142-2.709c0.041-0.034,0.083-0.069,0.124-0.103
			c-0.134-0.057-0.267-0.149-0.4-0.162c-0.967-0.93-1.897-1.895-2.788-2.898c0.16-0.082,0.319-0.167,0.485-0.24
			c0.17-0.075,0.424-0.066,0.542-0.166c0.158-0.131,0.279-0.286,0.4-0.44c2.974,3.31,6.398,6.206,10.17,8.603
			c-0.006,0.025-0.021,0.054-0.012,0.071c0.074,0.156,0.204,0.284,0.305,0.413c0.1-0.067,0.17-0.113,0.227-0.151
			c7.421,4.586,16.156,7.24,25.5,7.24c0.176,0,0.348-0.011,0.521-0.014c-0.123,0.132-0.23,0.248-0.307,0.361
			c-0.035,0.053,0.111,0.153,0.178,0.233c0.238-0.106,0.553-0.184,0.684-0.328c0.051-0.054-0.008-0.15-0.092-0.278
			c2.418-0.048,4.793-0.27,7.113-0.66c-0.07,0.375-0.086,0.758-0.098,1.137C64.049,105.299,64.066,105.479,64.08,105.659
			 M60.254,111.908c0.766-0.058,1.527-0.125,2.283-0.214c0.34-0.039,0.676-0.084,1.014-0.129c0.77-0.104,1.533-0.223,2.291-0.356
			c0.281-0.05,0.562-0.098,0.842-0.151c0.951-0.183,1.896-0.389,2.832-0.62c0.068-0.018,0.139-0.03,0.207-0.049
			c2.143-0.54,4.234-1.204,6.27-1.983c0.076-0.028,0.148-0.059,0.223-0.088c0.939-0.362,1.867-0.752,2.781-1.164
			c0.088-0.038,0.176-0.078,0.264-0.118c0.961-0.44,1.91-0.903,2.842-1.394c-0.059-0.202-0.117-0.405-0.201-0.602
			c-0.076-0.184-0.359-0.331-0.564-0.507c-0.176,0.022-0.373,0.033-0.547,0.075c-0.396,0.097-0.783,0.207-1.174,0.312
			c0.145-0.271,0.354-0.536,0.418-0.815c0.074-0.33,0.064-0.668,0.102-1.002c-0.467,0.239-0.932,0.48-1.406,0.707
			c0.02,0.135,0.039,0.271,0.066,0.459c-0.246,0.083-0.459,0.154-0.67,0.227c-0.041-0.106-0.145-0.242-0.166-0.337
			c-3.945,1.801-8.148,3.13-12.537,3.918c0.312,0.321,0.555,0.711,1.459,0.099c0.154,0.275,0.307,0.409,0.279,0.527
			c-0.07,0.299-0.221,0.59-0.34,0.885c-0.201-0.069-0.404-0.137-0.604-0.211c-0.502-0.182-1.016-0.353-1.5-0.552
			c-0.291-0.12-0.371-0.357-0.295-0.57c-2.725,0.435-5.518,0.668-8.365,0.668c-13.337,0-25.528-4.971-34.845-13.145
			c-0.171,0.018-0.347,0.038-0.445-0.041c-0.231-0.187-0.53-0.513-0.509-0.752c-4.139-3.862-7.676-8.336-10.439-13.297
			c-0.027,0.09-0.113,0.265-0.19,0.477c-0.375-0.34-0.865-0.579-0.835-0.8c0.066-0.493-0.184-0.739-0.619-0.983
			c-0.105-0.058-0.165-0.316-0.098-0.367c0.123-0.094,0.406-0.178,0.528-0.131c0.116,0.045,0.242,0.106,0.349,0.178
			c-0.719-1.399-1.375-2.835-1.969-4.304c-0.064,0.073-0.145,0.16-0.221,0.251c-0.232-0.175-0.439-0.263-0.502-0.398
			c-0.04-0.09,0.13-0.244,0.205-0.369c0.137,0.071,0.268,0.148,0.402,0.224c-0.797-2.005-1.486-4.063-2.035-6.179
			c-0.059,0.043-0.107,0.095-0.17,0.132c-0.176,0.104-0.574-0.021-0.869-0.05c-0.029-0.003-0.045-0.061-0.067-0.092
			c0.002-0.038-0.012-0.103,0.009-0.109c0.324-0.128,0.653-0.251,0.98-0.376c-0.967-3.889-1.501-7.944-1.553-12.115
			c-0.5-0.194-0.984-0.433-1.452-0.69c-0.111-0.062-0.159-0.259-0.187-0.402c-0.009-0.047,0.133-0.158,0.221-0.182
			c0.367-0.104,0.961,0.072,1.408,0.351c0.006-1.325,0.072-2.636,0.176-3.937c-0.049,0.013-0.094,0.021-0.144,0.035
			c-0.05-0.13-0.257-0.365-0.17-0.511c0.087-0.143,0.224-0.284,0.38-0.408c0.77-8.024,3.334-15.53,7.293-22.111
			c3.131-5.195,7.09-9.782,11.706-13.6c-0.053-0.08-0.12-0.154-0.21-0.22c-0.035-0.026,0.482-0.538,0.852-0.699
			c0.068-0.029,0.232,0.018,0.406,0.095c2.579-2.026,5.35-3.817,8.279-5.343c-0.154-0.06-0.301-0.117-0.441-0.173
			c0.356-0.195,0.688-0.495,1.084-0.543c0.1-0.011,0.228,0.08,0.362,0.202c2.041-1.008,4.158-1.88,6.336-2.622
			c-0.396-0.1-0.883-0.24-0.302-0.551c-0.189-0.144-0.373-0.289-0.539-0.446c-0.158-0.148-0.186-0.371-0.27-0.556
			c0.05-0.159,0.095-0.301,0.14-0.444c0.135,0.108,0.282,0.208,0.403,0.325c0.162,0.157,0.355,0.313,0.441,0.494
			c0.074,0.152,0.131,0.309,0.186,0.467c0.035-0.014,0.064-0.027,0.104-0.041c0.275-0.102,0.168-0.985,0.243-1.506
			c0.028-0.188,0.071-0.374,0.117-0.609c0.694,0.438,1.297,0.74,1.782,1.148c0.256,0.218,0.436,0.523,0.568,0.833
			c2.534-0.703,5.144-1.221,7.813-1.54c0.293-0.104,0.514-0.282,0.004-0.738c-0.135-0.121,0.216-0.769,0.475-1.091
			c0.288-0.362,0.664-0.332,0.717,0.182c0.061,0.604,0.205,0.984,1.045,0.689c0.172-0.061,0.51,0.113,0.705,0.251
			c0.596,0.413,0.616,0.426,1.275-0.014c0.161-0.108,0.357-0.189,0.482-0.323c0.398-0.425,0.381-0.429,0.729,0.053
			c0.099,0.133,0.28,0.353,0.364,0.334c0.176-0.042,0.418-0.196,0.447-0.334c0.093-0.477,0.238-0.855-0.57-1.196
			C54.808,1.044,54.5,0.546,54.255,0c-2.528,0.081-5.017,0.326-7.451,0.732c0.133,0.184,0.267,0.369,0.396,0.548
			c-0.151,0.307-0.25,0.51-0.35,0.713c-0.154-0.307-0.362-0.604-0.442-0.924c-0.021-0.085,0.016-0.18,0.068-0.277
			c-0.074,0.012-0.148,0.026-0.224,0.04c-0.009,0.349-0.04,0.693-0.15,1.011c-0.173,0.498-0.707,0.884-1.323,0.123
			c-0.113-0.139-0.404-0.184-0.723-0.181c0.132,0.146,0.332,0.299,0.314,0.429c-0.031,0.221-0.243,0.421-0.549,0.9
			c-0.137-0.531-0.263-0.773-0.231-0.995c0.017-0.121,0.211-0.223,0.362-0.329c-0.234,0.01-0.474,0.039-0.662,0.085
			c-0.538,0.13-0.838,0.019-1.038-0.196l-0.356,0.092c0.012,0.024,0.026,0.05,0.037,0.074c0.042,0.1-0.12,0.263-0.189,0.398
			c-0.1-0.115-0.213-0.225-0.31-0.341c-3.307,0.894-6.497,2.077-9.532,3.533C31.941,5.531,32,5.62,32.072,5.701
			c0.166,0.184,0.506,0.319,0.573,0.508c0.062,0.171-0.096,0.412-0.252,0.574c-0.071,0.075-0.44,0.101-0.553,0.039
			c-0.198-0.114-0.375-0.301-0.431-0.477c-0.056-0.177-0.017-0.387,0.01-0.671c-0.825,0.406-1.637,0.83-2.439,1.275
			c-0.822,0.457-1.604,0.916-2.373,1.393c-1.566,0.973-3.068,2.01-4.516,3.116c0.145,0.065,0.249,0.11,0.242,0.125
			c-0.084,0.163-0.206,0.315-0.318,0.47c-0.062-0.033-0.182-0.064-0.182-0.1c0.002-0.098,0.017-0.203,0.037-0.321
			c-2.062,1.591-4.01,3.321-5.83,5.176c-0.879,0.9-1.697,1.799-2.49,2.72c-0.082,0.096-0.166,0.189-0.248,0.286
			c-0.811,0.955-1.594,1.935-2.34,2.943c0.08,0.053,0.16,0.107,0.251,0.16c-0.334,0.23-0.558,0.453-0.767,0.566
			c-0.635,0.888-1.242,1.795-1.828,2.718c-0.053,0.083-0.107,0.164-0.158,0.247c-0.598,0.95-1.168,1.918-1.706,2.908
			c0.112,0.053,0.225,0.102,0.335,0.157c0.115,0.057,0.173,0.253,0.208,0.396c0.011,0.046-0.125,0.161-0.212,0.189
			C6.9,30.159,6.646,30.14,6.383,30.079c-0.492,0.939-0.957,1.895-1.396,2.865c-0.029,0.06-0.057,0.121-0.084,0.182
			c-0.43,0.957-0.834,1.926-1.211,2.91c-0.011,0.026-0.021,0.051-0.031,0.078c-0.78,2.041-1.442,4.138-1.982,6.285
			c-0.02,0.079-0.035,0.16-0.055,0.239c-0.228,0.921-0.428,1.852-0.608,2.789c-0.054,0.276-0.101,0.554-0.149,0.831
			c-0.133,0.757-0.252,1.52-0.354,2.287c-0.045,0.335-0.09,0.67-0.129,1.006c-0.087,0.756-0.154,1.518-0.212,2.283
			c-0.023,0.317-0.053,0.631-0.072,0.95C0.039,53.853,0,54.928,0,56.012c0,0.974,0.025,1.94,0.076,2.9
			c0.013,0.269,0.043,0.534,0.06,0.803c0.046,0.689,0.09,1.379,0.16,2.062c0.028,0.284,0.075,0.563,0.108,0.848
			c0.078,0.662,0.153,1.325,0.256,1.979c0.039,0.264,0.095,0.521,0.139,0.781c0.113,0.671,0.227,1.343,0.365,2.006
			c0.045,0.223,0.104,0.442,0.152,0.663c0.152,0.696,0.309,1.39,0.486,2.075c0.049,0.188,0.109,0.373,0.159,0.56
			c0.194,0.715,0.393,1.428,0.614,2.13c0.047,0.147,0.102,0.292,0.149,0.439c0.239,0.738,0.485,1.472,0.754,2.196
			c0.041,0.11,0.089,0.218,0.132,0.329c0.284,0.756,0.582,1.506,0.897,2.245c0.036,0.081,0.075,0.159,0.11,0.24
			c0.332,0.767,0.677,1.524,1.043,2.273c0.025,0.052,0.054,0.103,0.08,0.155c0.381,0.772,0.775,1.537,1.19,2.29
			c0.015,0.026,0.031,0.054,0.046,0.079c0.43,0.776,0.876,1.542,1.342,2.296c2.404,3.892,5.258,7.457,8.492,10.635
			c0.108,0.023,0.219,0.057,0.326,0.077c-0.041,0.038-0.08,0.078-0.121,0.118c0.678,0.658,1.375,1.303,2.085,1.927
			c0.042-0.03,0.081-0.051,0.103-0.038c0.228,0.118,0.423,0.303,0.631,0.463c-0.043,0.028-0.092,0.06-0.139,0.09
			c0.594,0.507,1.198,1.001,1.812,1.484c0.037,0.027,0.075,0.057,0.11,0.086c0.599,0.467,1.207,0.923,1.824,1.365
			c0.049,0.035,0.098,0.07,0.147,0.106c0.616,0.44,1.241,0.868,1.876,1.284c0.04,0.025,0.08,0.051,0.12,0.078
			c3.239,2.106,6.708,3.884,10.356,5.297c0.162,0.062,0.321,0.129,0.484,0.189c0.525,0.198,1.061,0.38,1.593,0.562
			c0.3,0.103,0.597,0.207,0.897,0.304c0.478,0.155,0.962,0.297,1.445,0.44c0.367,0.105,0.734,0.213,1.104,0.312
			c0.451,0.122,0.904,0.235,1.357,0.347c0.416,0.101,0.832,0.197,1.25,0.289c0.429,0.095,0.859,0.184,1.293,0.269
			c0.457,0.088,2.189,0.383,2.6,0.444c0.506,0.072,1.015,0.134,1.524,0.193c0.377,0.044,0.752,0.093,1.131,0.129
			c0.584,0.058,1.173,0.098,1.762,0.136c0.312,0.02,0.622,0.049,0.936,0.063c0.908,0.043,1.82,0.07,2.738,0.07
			c1.088,0,2.166-0.04,3.236-0.102C59.615,111.962,59.934,111.931,60.254,111.908 M53.976,1.023
			c0.042-0.042,0.315,0.091,0.647,0.195C54.276,1.592,54.04,1.846,53.801,2.1c-0.102-0.134-0.316-0.299-0.283-0.395
			C53.606,1.457,53.782,1.222,53.976,1.023 M34.99,4.672c0.268,0.365,0.553,0.724,0.789,1.099c0.035,0.058-0.138,0.203-0.252,0.277
			c-0.054,0.036-0.197,0-0.607-0.014c-0.079-0.309-0.202-0.664-0.244-1.026C34.664,4.902,34.877,4.785,34.99,4.672 M5.392,34.174
			c0.35-0.194,0.86-0.241,1.37-0.368c0.043,0.132,0.239,0.375,0.144,0.517c-0.162,0.245-0.457,0.502-0.789,0.61
			c-0.278,0.091-0.69-0.023-1.041-0.047C5.172,34.641,5.166,34.301,5.392,34.174 M7.335,80.727
			c-0.191-0.129-0.324-0.219-0.457-0.309c0.152-0.131,0.292-0.276,0.466-0.386c0.033-0.022,0.302,0.104,0.291,0.135
			C7.576,80.338,7.463,80.501,7.335,80.727 M15.537,93.176c-0.092,0.014-0.203-0.099-0.334-0.169
			c0.219-0.206,0.386-0.478,0.525-0.464c0.164,0.017,0.305,0.283,0.455,0.439C15.968,93.051,15.756,93.144,15.537,93.176
			 M20.879,98.067c-0.052,0.035-0.229-0.125-0.492-0.277c0.235-0.183,0.364-0.356,0.515-0.38c0.193-0.031,0.404,0.059,0.608,0.097
			C21.303,97.699,21.111,97.912,20.879,98.067 M22.314,100.583c-0.113-0.095-0.242-0.199-0.371-0.305
			c0.149-0.034,0.307-0.117,0.447-0.095c0.156,0.025,0.299,0.146,0.447,0.226C22.693,100.458,22.545,100.505,22.314,100.583
			 M39.537,107.394c-0.295-0.111-0.486-0.185-0.678-0.258c0.207-0.097,0.405-0.249,0.62-0.276c0.188-0.023,0.392,0.096,0.589,0.149
			C39.885,107.141,39.705,107.272,39.537,107.394 M112.01,52.562c-0.037-0.607-0.082-1.212-0.139-1.812
			c-0.029-0.304-0.059-0.608-0.092-0.91c-0.066-0.597-0.145-1.191-0.229-1.782c-0.037-0.269-0.072-0.539-0.113-0.807
			c-0.133-0.835-0.277-1.667-0.447-2.491c-0.02-0.096-0.043-0.19-0.064-0.286c-0.152-0.73-0.32-1.456-0.504-2.176
			c-0.074-0.296-0.156-0.589-0.234-0.882c-0.143-0.521-0.287-1.04-0.443-1.555c-0.098-0.321-0.197-0.643-0.299-0.962
			c-0.16-0.499-0.33-0.994-0.504-1.487c-0.107-0.302-0.209-0.606-0.322-0.906c-0.248-0.668-0.51-1.329-0.783-1.984
			c-0.139-0.332-0.861-1.964-1.088-2.444c-0.168-0.352-0.898-1.803-1.096-2.178c-0.195-0.366-0.393-0.733-0.594-1.095
			c-0.191-0.342-1.02-1.763-1.246-2.13c-0.176-0.284-0.359-0.56-0.539-0.84c-0.486-0.756-0.988-1.501-1.51-2.233
			c-0.162-0.227-0.32-0.456-0.484-0.681c-0.305-0.413-0.615-0.819-0.932-1.224c-0.166-0.214-0.334-0.428-0.504-0.64
			c-0.33-0.415-0.668-0.826-1.01-1.23c-0.139-0.164-0.281-0.325-0.422-0.486c-1.289-1.486-2.654-2.908-4.09-4.251
			c-0.029-0.026-0.055-0.053-0.084-0.079c-0.469-0.437-0.949-0.865-1.434-1.286c-0.092-0.078-0.18-0.157-0.271-0.234
			c-0.494-0.425-0.996-0.843-1.504-1.25c-0.027-0.021-0.051-0.04-0.076-0.06c-2.217-1.765-4.568-3.368-7.037-4.787
			c-3.152-1.809-6.455-3.306-9.908-4.476c-0.484,0.864-0.348,1.753-0.352,2.66c0,0.18,0.002,0.363,0.004,0.546
			c20.549,7.27,35.318,26.882,35.318,49.888c0,20.154-11.332,37.705-27.955,46.637c0.018,0.063,0.029,0.131,0.086,0.164
			c0.715,0.422,1.09,0.082,1.414-0.318c0.135-0.167,0.361-0.305,0.549-0.454c0.057,0.198,0.201,0.406,0.156,0.597
			c-0.115,0.485-0.285,0.965-0.484,1.439c-0.229,0.543-0.238,0.892,0.879,0.522c0.143-0.047,0.311-0.066,0.465-0.1
			c3.848-2.192,7.391-4.854,10.576-7.886l0.074-0.07c2.629-2.508,5.014-5.27,7.115-8.244c0.027-0.039,0.057-0.077,0.084-0.116
			c0.4-0.57,0.791-1.147,1.172-1.733l0.09-0.142c1.584-2.456,2.982-5.043,4.174-7.741c-0.133,0.037-0.246,0.067-0.322,0.05
			c-0.119-0.032-0.258-0.191-0.223-0.264c0.033-0.07,0.289-0.157,0.416-0.142c0.078,0.01,0.146,0.074,0.221,0.15
			c1.113-2.551,2.041-5.197,2.771-7.927c0.008-0.024,0.016-0.05,0.02-0.074c0.229-0.853,0.432-1.714,0.617-2.581
			c0.016-0.07,0.035-0.142,0.049-0.213c0.172-0.813,0.32-1.635,0.455-2.46c0.021-0.127,0.047-0.253,0.068-0.381
			c0.121-0.771,0.219-1.554,0.307-2.336c0.021-0.181,0.051-0.359,0.07-0.541c0.078-0.758,0.131-1.521,0.18-2.288
			c0.014-0.207,0.037-0.411,0.047-0.619c0.051-0.97,0.078-1.946,0.078-2.93c0-0.883-0.027-1.76-0.066-2.632
			C112.045,53.106,112.027,52.834,112.01,52.562 M87.453,10.333c-0.16-0.046-0.293-0.161-0.43-0.246
			c0.076-0.212,0.123-0.338,0.168-0.465c0.172,0.151,0.354,0.295,0.5,0.463C87.709,10.107,87.502,10.346,87.453,10.333
			 M109.969,49.304c0.055,0.113,0.172,0.234,0.148,0.34c-0.031,0.125-0.182,0.239-0.361,0.453c-0.213-0.202-0.412-0.333-0.377-0.368
			C109.539,49.573,109.766,49.443,109.969,49.304 M109.061,65.976c-0.064-0.135-0.229-0.294-0.164-0.396
			c0.068-0.112,0.352-0.171,0.539-0.253c0.104,0.121,0.207,0.243,0.367,0.433C109.469,65.856,109.266,65.917,109.061,65.976
			 M59.312,3.211c0.078-0.191,0.07-0.427-0.102-0.738c-0.051-0.092,0.025-0.251,0.07-0.37c0.074-0.191,0.143-0.573,0.447-0.187
			c0.508,0.644,1.326,0.999,2,1.494C60.93,3.325,60.123,3.261,59.312,3.211 M80.486,98.946c-0.092-0.203,0.145-0.47,0.252-0.703
			c0.074-0.16,0.227-0.321,0.271-0.475c-1.809,1.085-3.695,2.055-5.646,2.899c0.053,0.188,0.104,0.344,0.059,0.473
			c-0.039,0.107-0.326,0.179-0.502,0.267c-0.119-0.13-0.332-0.275-0.379-0.393c-3.027,1.247-6.205,2.193-9.498,2.811
			c-0.426,0.513-0.1,1.1,0.166,1.632c5.418-1,10.535-2.866,15.197-5.456C80.566,99.667,80.66,99.338,80.486,98.946 M75.396,102.294
			c0.162-0.338,0.178-0.55,0.35-0.676c0.145-0.107,0.473-0.114,0.721-0.164c-0.023,0.15,0.035,0.343-0.092,0.442
			C76.199,102.036,75.885,102.104,75.396,102.294 M105.16,51.073c0.387-0.167,0.676-0.3,0.902-0.425
			c0.188,1.764,0.289,3.552,0.289,5.364c0,18.053-9.562,33.905-23.885,42.779c-0.01-0.027-0.014-0.056-0.025-0.082
			c-0.213-0.417,1.27-0.998-0.312-1.275c0.07-0.087,0.107-0.211,0.219-0.253c0.377-0.14,0.787-0.246,1.176-0.378
			c0.199-0.067,0.555-0.195,0.533-0.239c-0.078-0.168-0.223-0.335-0.377-0.521c12.701-8.787,21.047-23.447,21.047-40.031
			c0-1.516-0.08-3.015-0.217-4.497C104.705,51.347,104.904,51.184,105.16,51.073 M73.416,8.808
			c17.031,6.281,29.748,21.531,32.41,39.991c-0.08,0.079-0.15,0.175-0.193,0.287c-0.086-0.021-0.158-0.007-0.234,0.005
			c-0.391,0.008-0.779,0.017-1.17,0.025c-2.35-16.467-12.973-30.301-27.518-37.148c-0.303-0.602-1.137-1.009-0.941-1.811
			c0.004-0.018-0.102-0.073-0.102-0.073c-0.723,0.526-0.93-0.502-1.6-0.415C73.697,9.719,73.238,9.496,73.416,8.808 M104.25,49.293
			l1.148-0.202c0.076-0.001,0.16-0.003,0.234-0.005c0.016,0.141,0.084,0.32-0.02,0.385c-0.51,0.321-0.824,0.737-1.197,1.126
			C104.369,50.161,104.311,49.727,104.25,49.293 M11.697,77.982c0.119-0.045,0.342,0.025,0.474,0.092
			c0.185,0.091,0.313,0.245,0.495,0.34c0.056,0.027,0.138,0.021,0.224,0.006c-0.651-1.251-1.257-2.531-1.801-3.843
			c-0.28,0.151-0.548,0.34-0.854,0.419c-0.197,0.049-0.464-0.094-0.699-0.149c0.248-0.138,0.496-0.275,0.695-0.386
			c0.355,0.035,0.604,0.058,0.846,0.081c-2.201-5.323-3.476-11.12-3.642-17.19c-0.057-0.032-0.116-0.059-0.175-0.09
			c0.055-0.021,0.111-0.045,0.171-0.069c-0.009-0.394-0.028-0.785-0.028-1.181c0-1.54,0.08-3.061,0.221-4.566
			c-0.176,0.041-0.354,0.081-0.529,0.122c-0.031,0.008-0.091-0.08-0.137-0.123c0.242-0.151,0.479-0.297,0.701-0.435
			c0.572-5.58,2.098-10.88,4.4-15.743c-0.129-0.031-0.283-0.055-0.471-0.066c0,0-0.018-0.284,0.02-0.289
			c0.274-0.042,0.553-0.053,0.645-0.058c2.178-4.492,5.037-8.594,8.426-12.188c-0.105-0.06-0.21-0.129-0.318-0.185
			c0.238-0.141,0.512-0.42,0.707-0.399c0.051,0.004,0.102,0.013,0.15,0.018c0.82-0.841,1.667-1.653,2.545-2.434
			c-0.064-0.992,0.557-1.726,1.141-2.474c-0.154-0.086-0.318-0.162-0.496-0.226c-0.982,0.799-1.93,1.637-2.85,2.505
			c0.078-0.021,0.156-0.043,0.23-0.057c0.045-0.009,0.115,0.072,0.172,0.112c-0.172,0.119-0.338,0.247-0.525,0.348
			c-0.014,0.007-0.085-0.046-0.176-0.118C11.72,28.915,5.763,41.777,5.763,56.012c0,4.807,0.693,9.451,1.957,13.857
			c0.238-0.056,0.482-0.132,0.695-0.085c0.285,0.06,0.527,0.285,0.789,0.438c-0.276,0.069-0.553,0.137-0.994,0.245
			c-0.131-0.117-0.281-0.251-0.428-0.381c0.199,0.68,0.412,1.353,0.639,2.021c0.113,0.045,0.229,0.085,0.341,0.133
			c-0.083,0.049-0.164,0.116-0.247,0.145c0.082,0.238,0.156,0.479,0.242,0.714c0.023,0.008,0.048,0.018,0.072,0.025
			c-0.016,0.027-0.025,0.047-0.039,0.072c0.678,1.858,1.472,3.66,2.355,5.409C11.197,78.347,11.377,78.103,11.697,77.982
			 M8.191,67.504c-0.16-0.12-0.33-0.232-0.47-0.364c-0.026-0.026,0.065-0.13,0.101-0.198c0.18,0.101,0.357,0.2,0.515,0.289
			C8.263,67.369,8.226,67.437,8.191,67.504 M74.82,11.122c0.082,0.02,0.148,0.049,0.211,0.086
			C74.961,11.178,74.891,11.151,74.82,11.122 M25.486,17.656c0.096,0.107,0.182,0.221,0.256,0.343
			c-0.271,0.215-0.543,0.429-0.809,0.651C25.117,18.319,25.303,17.988,25.486,17.656 M64.273,8.063
			c-2.08-0.355-4.201-0.579-6.361-0.66l-0.258-1.058c0.109-0.046,0.219-0.091,0.328-0.136c-0.139-0.151-0.275-0.301-0.412-0.452
			c1.16,0.035,2.312,0.097,3.451,0.208c0.047,0.042,0.088,0.075,0.102,0.069c0.035-0.013,0.066-0.035,0.1-0.051
			c0.91,0.093,1.814,0.215,2.711,0.356c-0.701,0.6,0.168,0.544,0.459,0.73C64.34,7.396,64.326,7.736,64.273,8.063"/>
	</g>
	<g>
		<path fill="#6AA4B5" d="M86.424,53.196c0.268-0.058,0.533-0.113,0.807-0.16c0.549-0.098,1.105-0.182,1.668-0.243
			c-0.223-0.172-0.445-0.341-0.658-0.521c-0.02-0.016,0.088-0.113,0.191-0.243c0.277,0.254,0.533,0.483,0.768,0.722
			c0.58-0.038,1.172-0.075,1.768-0.09c-0.189-0.152-0.309-0.382-0.355-0.711c-0.029-0.211-0.072-0.436-0.127-0.655
			c-2.223,0.095-4.373,0.458-6.375,1.077c-0.664,0.205-1.316,0.44-1.945,0.702c0.281,0.282,0.523,0.584,0.93,0.751
			c0.154,0.063,0.295,0.125,0.434,0.187c0.697-0.25,1.416-0.46,2.154-0.641C85.928,53.309,86.172,53.25,86.424,53.196
			 M89.865,51.761c0.068,0.104,0.139,0.206,0.252,0.378c-0.123,0.086-0.236,0.196-0.391,0.252c-0.047,0.017-0.301-0.166-0.285-0.185
			C89.559,52.049,89.719,51.908,89.865,51.761 M130.773,62.009c0.145,0.346,0.023,0.762-0.256,0.929
			c-0.598,0.367-1.197,0.692-1.797,0.979c-0.447,0.228-0.895,0.425-1.334,0.602c-0.559,0.233-1.117,0.431-1.676,0.609
			c-0.086,0.028-0.172,0.059-0.26,0.085c-0.547,0.167-1.096,0.312-1.641,0.433c-0.07,0.015-0.141,0.03-0.211,0.043
			c-1.18,0.25-2.361,0.399-3.541,0.463c0.051-0.395,0.098-0.79,0.113-1.185c0.004-0.068-0.338-0.221-0.48-0.192
			c-0.25,0.053-0.672,0.229-0.662,0.325c0.033,0.363,0.135,0.723,0.252,1.078c-0.189,0.004-0.381,0.012-0.572,0.012
			c-1.525,0-3.043-0.128-4.562-0.355c-0.518-0.079-1.037-0.168-1.557-0.268c-0.561-0.107-1.127-0.226-1.686-0.355
			c-0.719-0.156-1.43-0.335-2.143-0.523c-1.125-0.301-2.246-0.632-3.363-0.974c-0.156-0.418-0.24-0.863-1.311-0.948
			c-0.443-0.036-0.834-0.128-1.168-0.271c0.225-0.264,0.451-0.525,0.641-0.798l2.863,0.882c-0.018,0.032-0.023,0.062-0.018,0.089
			c0.088,0.305,0.236,0.6,0.398,0.888c0.047,0.081,0.229,0.12,0.348,0.179c0.072-0.12,0.229-0.25,0.203-0.359
			c-0.045-0.199-0.135-0.393-0.229-0.587c0.301,0.089,0.6,0.185,0.9,0.27c0.688,0.188,1.373,0.366,2.061,0.534
			c0.553,0.139,1.096,0.267,1.646,0.374c0.504,0.109,1.006,0.209,1.51,0.297c0.652,0.117,1.305,0.209,1.955,0.288
			c0.027,0.163,0.367,0.254,0.57,0.361c0.07-0.089,0.207-0.196,0.242-0.275c0.373,0.036,0.746,0.064,1.117,0.085
			c0.078,0.006,0.154,0.01,0.23,0.014c1.564,0.079,3.127,0.022,4.686-0.201c0.051-0.008,0.1-0.016,0.15-0.023
			c1.189-0.179,2.381-0.46,3.566-0.861c0.469-0.081,0.754-0.141,1.037-0.199c-0.062-0.03-0.125-0.065-0.186-0.102
			c0.316-0.12,0.631-0.237,0.949-0.38c0.822-0.367,1.646-0.79,2.461-1.285C130.303,61.516,130.639,61.662,130.773,62.009
			 M111.795,49.827c0.018,0.03,0.045,0.061,0.062,0.091c1.094,0.225,2.189,0.408,3.287,0.541c0.111,0.013,0.223,0.024,0.336,0.038
			c0.416,0.045,0.83,0.083,1.244,0.111c0.139,0.009,0.279,0.021,0.418,0.029c0.521,0.029,1.045,0.05,1.566,0.05
			c0,0,1.047-0.021,1.447-0.04c0.588-0.035,1.178-0.098,1.77-0.177c0.127-0.017,0.254-0.036,0.381-0.053
			c0.602-0.091,1.199-0.199,1.799-0.341c0.002-0.065,0.043-0.147,0.17-0.251c0.582-0.478,0.516-0.97-0.078-1.217
			c-0.352,0.088-0.709,0.169-1.062,0.237c-0.029,0.006-0.061,0.011-0.09,0.017c-0.326,0.062-0.654,0.121-0.98,0.166
			c-0.113,0.017-0.227,0.03-0.338,0.044c-0.256,0.033-0.508,0.066-0.764,0.09c-0.387,0.037-0.773,0.065-1.158,0.081
			c-0.391,0.03-0.775,0.03-1.166,0.03c-0.582-0.001-1.162-0.029-1.742-0.068c-0.143-0.009-0.285-0.02-0.432-0.031
			c-0.559-0.046-1.117-0.102-1.676-0.176c-0.014-0.002-0.029-0.003-0.043-0.005c-0.596-0.08-1.189-0.18-1.783-0.289
			c-0.113-0.021-0.227-0.041-0.34-0.063c-0.58-0.112-1.162-0.23-1.742-0.365C111.182,48.794,111.482,49.314,111.795,49.827
			 M119.662,49.455c0.297,0.264,0.568,0.545,0.908,0.882c-0.105,0.047-0.227,0.144-0.297,0.126c-0.219-0.053-0.5-0.113-0.602-0.239
			c-0.178-0.217-0.236-0.485-0.348-0.732C119.441,49.478,119.625,49.421,119.662,49.455 M87.59,60.74
			c-0.506,0.081-1.006,0.179-1.5,0.29c-0.039,0.01-0.078,0.019-0.117,0.028c-1.5,0.346-2.928,0.829-4.252,1.452
			c-0.246-0.361-0.607-0.63-1.244-0.587c-0.184,0.012-0.346,0-0.506-0.015c0.492-0.28,1.004-0.542,1.531-0.785
			c0,0,0.545,0.203,0.793,0.296c0.135-0.071,0.219-0.115,0.303-0.158c-0.254-0.096-0.506-0.205-0.768-0.282
			c0.029-0.013,0.059-0.028,0.088-0.041c0.141-0.061,0.275-0.128,0.418-0.187c0.123,0.092,0.25,0.188,0.365,0.292
			c0.238-0.243,0.451-0.452,0.637-0.659c0.586-0.204,1.182-0.391,1.793-0.549c0.047,0.008,0.061,0.008,0.076,0.008
			c0.059,0.063,0.113,0.12,0.184,0.137c0.34,0.081,0.684,0.147,1.023,0.225C86.877,60.415,87.24,60.581,87.59,60.74 M130.773,69.756
			c0.145,0.355,0.023,0.77-0.256,0.938c-3.266,1.977-6.551,2.915-9.828,3.173c-0.59,0.049-1.189,0.069-1.781,0.079h-0.199
			c-0.6,0-1.199-0.021-1.797-0.061c-0.848-0.049-1.701-0.146-2.549-0.265c-0.518-0.075-1.031-0.16-1.547-0.254
			c-0.008-0.072-0.018-0.142-0.018-0.201c-0.002-0.187-0.215-0.375-0.49-0.81c-0.449,0.311-1.016,0.702-1.016,0.702
			c-0.707-0.156-1.414-0.329-2.119-0.514c-0.156-0.04-0.314-0.081-0.473-0.124c-1.395-0.371-2.785-0.784-4.17-1.217
			c-0.18-0.057-1.836-0.58-2.48-0.787c-2.166-0.689-4.395-1.402-6.592-1.995c-0.566-0.079-1.135-0.132-1.701-0.171
			c-0.463-0.036-0.922-0.055-1.381-0.066c0.041-0.06,0.066-0.11,0.049-0.148c-0.033-0.075-0.234-0.169-0.33-0.154
			c-0.098,0.015-0.221,0.164-0.207,0.243c0.004,0.017,0.018,0.033,0.035,0.051c-0.678-0.008-1.35,0.013-2.016,0.056
			c-0.693,0.047-1.344,0.117-1.984,0.211l-0.049,0.008c-0.641,0.096-1.271,0.216-1.891,0.357c-0.66,0.154-1.271,0.323-1.871,0.519
			c-0.035-0.031-0.068-0.063-0.105-0.094c-0.111-0.09-0.416-0.128-0.584-0.087c-0.146,0.036-0.297,0.209-0.32,0.335
			c-0.014,0.066-0.016,0.128-0.018,0.19c-0.619,0.236-1.223,0.5-1.805,0.792c-0.59,0.297-1.152,0.615-1.688,0.959
			c-0.209-0.085-0.418-0.169-0.631-0.25c-0.066-0.026-0.143-0.038-0.215-0.057c-0.061-0.167-0.064-0.346-0.02-0.506
			c0.037-0.105,0.062-0.168,0.098-0.22c0.045-0.068,0.1-0.126,0.166-0.17c0.383-0.25,0.795-0.468,1.203-0.692
			c0.084,0.062,0.168,0.126,0.252,0.19c0.088,0.063,0.162,0.141,0.217,0.189c0.258-0.193,0.516-0.338,0.66-0.528
			c0.033-0.045-0.123-0.201-0.277-0.303c0.438-0.214,0.883-0.416,1.342-0.6c0.037,0.088,0.082,0.184,0.131,0.303
			c0.215-0.158,0.412-0.274,0.396-0.294c-0.047-0.055-0.104-0.105-0.158-0.156c1.057-0.402,2.168-0.72,3.314-0.967
			c0.053-0.009,0.105-0.026,0.158-0.037c0.574-0.117,1.158-0.215,1.748-0.295c0.025-0.004,0.051-0.008,0.076-0.012
			c0.609-0.081,1.225-0.14,1.846-0.181c0.062,0.423,0.389,0.136,0.826-0.039c0.016-0.006,0.033-0.008,0.049-0.014
			c0.098-0.004,0.189-0.015,0.287-0.019c-0.021,0.188-0.061,0.325,0.008,0.416c0.115,0.152,0.355,0.257,0.543,0.382
			c0.027-0.149,0.135-0.32,0.064-0.437c-0.072-0.123-0.225-0.221-0.414-0.357c0.727-0.01,1.449,0.007,2.176,0.053
			c0.732,0.049,1.467,0.12,2.203,0.226c-0.115,0.086-0.332,0.222-0.633,0.376c0.529,0.16,0.828,0.309,1.135,0.319
			c0.166,0.006,0.535-0.297,0.492-0.336c-0.047-0.044-0.113-0.081-0.172-0.123c1.986,0.552,3.957,1.163,5.867,1.78
			c3.555,1.136,7.156,2.281,10.777,2.934c0.83,0.148,1.662,0.268,2.492,0.365c0.646,0.069,1.303,0.118,1.951,0.14
			c0.582,0.029,1.166,0.039,1.748,0.019c3.588-0.079,7.176-0.938,10.723-3.081C130.303,69.271,130.639,69.41,130.773,69.756
			 M85.312,45.708c-0.191,0.051-0.389,0.096-0.578,0.15c-0.129-0.223-0.246-0.455-0.504-0.551c-0.438-0.162-1.055-0.152-1.611-0.191
			c0.574-0.223,1.17-0.417,1.771-0.593c0.188-0.056,0.377-0.104,0.568-0.156c0.447-0.119,0.902-0.227,1.363-0.322
			c0.195-0.039,0.391-0.083,0.586-0.118c0.627-0.113,1.258-0.209,1.9-0.277c0.016-0.001,0.031-0.005,0.047-0.007
			c0.658-0.067,1.326-0.103,1.996-0.12c0.201-0.006,0.404-0.006,0.605-0.008c0.502-0.003,1.004,0.008,1.51,0.032
			c0.203,0.009,0.404,0.017,0.609,0.032c0.686,0.047,1.375,0.113,2.066,0.211c0.684,0.182,1.359,0.388,2.039,0.586
			c-0.029,0.117-0.076,0.207-0.16,0.231c-1.645,0.509-0.119,0.613,0.176,0.734c0.459,0.188,1.045,0.207,1.506,0.393
			c0.58,0.233,0.85-0.043,1.049-0.3c0.055-0.07,0.098-0.156,0.129-0.244c0.652,0.205,7.375,2.285,7.766,2.394
			c0.65,0.179,1.301,0.346,1.951,0.506c0.309,0.552,0.623,1.103,0.939,1.653c-0.609-0.136-1.217-0.286-1.822-0.442
			c-0.238-0.181-0.477-0.361-0.715-0.543c-0.055,0.083-0.113,0.17-0.201,0.302c-0.383-0.106-2.58-0.75-2.635-0.766
			c-0.041-0.04-0.086-0.083-0.115-0.113c-0.027,0.019-0.053,0.034-0.08,0.051c-0.434-0.132-3.445-1.083-3.459-1.086
			c-0.18-0.167-0.416-0.282-0.652-0.376c-0.025-0.012-0.107,0.049-0.189,0.11c-0.873-0.278-4.686-1.442-5.709-1.716
			c-0.525-0.076-1.049-0.117-1.572-0.16c-0.221-0.276-0.467-0.547-0.707-0.819c-0.115,0.097-0.334,0.198-0.322,0.289
			c0.021,0.156,0.064,0.312,0.111,0.462c-0.967-0.047-1.924-0.031-2.871,0.024c-0.119-0.135-0.217-0.28-0.324-0.42
			c-0.105,0.165-0.211,0.33-0.238,0.371c-0.002,0.032-0.006,0.057-0.008,0.084c-0.385,0.032-0.766,0.072-1.146,0.12
			c-0.215,0.027-0.43,0.062-0.643,0.095c-0.461,0.071-0.918,0.15-1.369,0.246C86.012,45.533,85.662,45.616,85.312,45.708
			 M79.311,63.784c-0.064,0.008-0.123-0.004-0.184-0.022c-0.16-0.053-0.279-0.166-0.354-0.331c0.451,0.112,1.08-0.012,1.555-0.404
			c0.043-0.036,0.166-0.006,0.311,0.039c-0.381,0.207-0.762,0.41-1.119,0.644C79.453,63.752,79.381,63.776,79.311,63.784
			 M93.797,51.804c-0.053,0.168-0.104,0.338-0.156,0.506c-0.164,0.128-0.359,0.243-0.578,0.336c0.266-0.334,0.18-0.676-0.09-1.058
			c-0.041-0.058,0.061-0.172,0.17-0.288c0,0,0.203,0.007,0.307,0.015c0.059,0.075,0.121,0.149,0.168,0.226
			c0.043,0.069,0.027,0.157,0.037,0.237C93.701,51.787,93.75,51.795,93.797,51.804 M93.047,60.449
			c-0.219-0.012-0.434-0.006-0.65-0.014c-0.199-0.393-0.885-0.229-1.086-0.182c-0.176,0.043-0.215,0.096-0.191,0.157
			c-0.217,0.004-0.424,0.026-0.639,0.036c-0.375,0.019-0.754,0.034-1.125,0.069c-0.545,0.047-1.082,0.121-1.615,0.203
			c0.051-0.063,0.104-0.13,0.156-0.191c0.041,0.008,0.08,0.017,0.119,0.024c0.113,0.022,0.363-0.067,0.398-0.145
			c0.18-0.388-0.674-0.736-0.404-1.137c0.381-0.053,0.76-0.105,1.146-0.141c0.166,0.222,0.275,0.468,0.271,0.766
			c0,0.063,0.104,0.13,0.176,0.214c0.223-0.242,0.324-0.465,0.531-0.549c0.27-0.109,0.623-0.117,0.943-0.156
			c0.504-0.061,0.639-0.19,0.49-0.384c0.119,0,0.238,0.006,0.355,0.008c-0.002,0.263-0.018,0.526-0.029,0.788
			c0.148-0.223,0.246-0.481,0.43-0.678c0.096,0.093,0.203,0.175,0.316,0.252c0.043,0.105,0.137,0.225,0.303,0.367
			C93.129,59.919,93.242,60.252,93.047,60.449 M92.938,52.691c0.043-0.014,0.084-0.027,0.125-0.045
			c-0.014,0.016-0.023,0.031-0.035,0.047C92.996,52.692,92.969,52.693,92.938,52.691 M102.695,61.424
			c-0.135,0.228-0.266,0.455-0.398,0.683c-0.219-0.187-0.385-0.406-0.492-0.66c-0.07-0.17-0.459-0.292-0.391-0.25
			c-0.959,0.104-1.451,0.15-1.936,0.214c-0.191,0.026-0.371,0.089-0.555,0.134c0.201,0.085,0.41,0.164,0.602,0.256
			c0.17,0.085,0.361,0.162,0.551,0.24c0,0-3.67-1.113-4.617-1.365c-0.604-0.085-1.205-0.138-1.807-0.183
			c0.037-0.114,0.059-0.236,0.074-0.354c0.051-0.344-0.027-0.697-0.078-1.05c0.273,0.02,0.551,0.055,0.826,0.085
			c0.234,0.191,0.482,0.343,0.996,0.193c0.27-0.08,0.748,0.177,1.107,0.316c0.023,0.01,0.041,0.026,0.064,0.038
			c-0.041,0.052-0.082,0.106-0.111,0.157c-0.053,0.089,0.281,0.32,0.604,0.658c0.268-0.229,0.498-0.425,0.715-0.609
			C97.85,59.928,102.574,61.384,102.695,61.424 M129.852,55.575c-0.426,0.238-0.852,0.451-1.275,0.654
			c-0.201,0.097-0.402,0.193-0.602,0.281c-0.182,0.082-0.361,0.152-0.543,0.227c-0.494,0.202-0.986,0.39-1.479,0.552
			c-0.197-0.197-0.422-0.38-0.637-0.567c-0.104,0.092-0.209,0.184-0.43,0.379c0.174,0.138,0.479,0.379,0.479,0.379
			c-0.461,0.137-0.922,0.256-1.383,0.36c-0.246-0.09-0.68-0.1-1.016-0.124c-0.178-0.015-0.373,0.061-0.582,0.1
			c0.07,0.091,0.125,0.187,0.209,0.271c-0.152,0.057-0.33,0.098-0.514,0.118c-1.125,0.167-2.244,0.237-3.371,0.237
			c-2.836,0-5.664-0.455-8.477-1.137c-0.025-0.005-0.049-0.013-0.074-0.019c0.066-0.051,0.117-0.102,0.117-0.139
			c0.014-0.243-0.199-0.491-0.408-0.925c-0.439,0.348-0.816,0.549-0.781,0.639c0.023,0.061,0.057,0.12,0.096,0.179
			c-0.092-0.024-9.746-2.955-11.066-3.353c0.018-0.114,0.037-0.213,0.014-0.298c-0.018-0.063-0.176-0.105-0.27-0.156
			c-0.072,0.106-0.189,0.214-0.203,0.321c-0.732-0.218-1.467-0.442-2.197-0.636c-0.654-0.092-1.307-0.152-1.957-0.197
			c0.047-0.137,0.098-0.274,0.139-0.412c0.385-0.298,0.584-0.658,0.477-0.927c0.182,0.015,0.934,0.088,1.129,0.113
			c-0.08,0.045-0.141,0.086-0.141,0.086c0.459,0.51,0.939,1.012,1.436,1.505c0.014,0.013,0.199-0.065,0.432-0.141
			c-0.156-0.172-0.299-0.329-0.445-0.49c0.307-0.108,0.586-0.347,0.875-0.41l3.488,1.053c-0.092,0.229-0.178,0.458-0.242,0.691
			c-0.012,0.038,0.25,0.119,0.385,0.179c0.088-0.249,0.178-0.495,0.264-0.741c0.016,0.004,0.031,0.008,0.045,0.013
			c0.262,0.297,0.623,0.499,1.193,0.444c0.076-0.007,0.143,0.002,0.215,0c0.297,0.094,1.369,0.433,1.609,0.508
			c0.104,0.088,0.209,0.179,0.301,0.292c0.092,0.113,0.283,0.175,0.428,0.26c0.051-0.08,0.104-0.162,0.172-0.267
			c0.592,0.185,1.184,0.361,1.768,0.527c0.48,0.148,2.293,0.642,2.717,0.753c3.861,0.976,7.744,1.559,11.609,1.124
			c0.336-0.032,0.676-0.085,1.012-0.144c0.191,0.238,0.615,0.411,0.955,0.588c0.037,0.019,0.291-0.187,0.42-0.273
			c-0.121-0.173-0.35-0.503-0.35-0.503c0.531-0.112,1.064-0.245,1.596-0.402c0.068-0.021,0.135-0.04,0.201-0.062
			c0.52-0.158,1.041-0.332,1.561-0.537c0.967-0.376,1.924-0.84,2.885-1.393c0.121-0.067,0.252-0.143,0.375-0.219
			c0.068,0.085,0.115,0.265,0.094,0.371c-0.039,0.19-0.148,0.39-0.301,0.546C129.467,55.199,129.605,55.402,129.852,55.575
			 M128.414,39.679c0.064,0.012,0.127,0.02,0.189,0.03c0.035,0.029,0.072,0.058,0.107,0.086c0.291,0.245,0.539,0.408,0.346,0.698
			c-0.504,0.258-1,0.486-1.492,0.694c-0.523,0.216-1.012,0.402-1.502,0.568c-0.002-0.038-0.002-0.073,0.012-0.098
			c0.295-0.569,1.215-0.97,1.166-1.655C127.232,39.898,128.031,39.78,128.414,39.679 M129.523,47.165
			c-0.125-0.166-0.244-0.332-0.359-0.501c0.154-0.085,0.309-0.171,0.463-0.26c0.1,0.184,0.193,0.371,0.277,0.558
			c0.023,0.056-0.035,0.165-0.102,0.2C129.738,47.196,129.545,47.196,129.523,47.165 M128.211,39.394
			c0.203-0.097,0.406-0.192,0.609-0.298c0.176,0.31,0.426,0.661,0.779,0.804c0.066,0.027,0.109,0.055,0.166,0.083
			c-0.031-0.014-0.064-0.028-0.088-0.042c-0.227-0.134-0.631-0.162-1.074-0.23C128.475,39.605,128.342,39.5,128.211,39.394
			 M96.145,52.038c-0.148-0.164-0.295-0.324-0.441-0.483c0.25,0.067,0.492,0.145,0.742,0.214c-0.08,0.066-0.16,0.131-0.238,0.195
			C96.182,51.985,96.166,52.013,96.145,52.038 M78.76,55.666c-0.152-0.347-0.039-0.771,0.232-0.948
			c0.486-0.318,1.002-0.604,1.525-0.88c0.111,0.354,0.293,0.687,1.189,0.785c0.078,0.009,0.152,0.024,0.23,0.037
			c-0.383,0.174-0.76,0.354-1.125,0.55c-0.445,0.231-0.881,0.474-1.293,0.743C79.246,56.141,78.904,56.003,78.76,55.666
			 M79.52,40.451c0.307-0.2,0.639-0.373,0.961-0.554c-0.256-0.161-0.441-0.264-0.406-0.311c0.125-0.182,0.396-0.344,0.676-0.454
			c0.066-0.024,0.576,0.201,0.568,0.299c0.4-0.199,0.814-0.378,1.232-0.548c0.279-0.115,0.559-0.226,0.842-0.328
			c-0.064-0.141-0.045-0.306-0.012-0.503c-0.205-0.01-0.41-0.02-0.615-0.033c-0.131-0.009-0.242-0.148-0.361-0.228
			c0.389-0.105,0.773-0.217,1.164-0.32c0.039-0.055,0.074-0.109,0.115-0.169c0.066,0.031,0.137,0.062,0.205,0.092
			c0.121-0.028,0.238-0.064,0.363-0.088c0.186-0.034,0.684,0.136,0.697,0.228c0.014,0.1-0.039,0.245-0.113,0.358
			c0.07,0.042,0.135,0.085,0.193,0.131c0.502-0.14,1.018-0.256,1.539-0.363c0.207-0.042,0.418-0.083,0.631-0.12
			c0.539-0.095,1.082-0.178,1.635-0.237c0.148-0.017,0.301-0.025,0.453-0.04c0.496-0.045,1-0.075,1.506-0.092
			c0.152-0.004,0.301-0.013,0.451-0.015c0.607-0.01,1.221,0.004,1.838,0.036c0.141,0.009,0.283,0.019,0.426,0.03
			c0.648,0.043,1.299,0.104,1.951,0.196c0.957,0.254,1.914,0.536,2.873,0.828c0.65,0.197,1.293,0.395,1.939,0.599
			c-0.016-0.043-0.029-0.079-0.047-0.127c0.121-0.023,0.365-0.071,0.611-0.121c0.039,0.156,0.1,0.312,0.133,0.467
			c0.359,0.115,3.189,1.008,3.279,1.036c0.086-0.056,0.174-0.125,0.264-0.218c0.033-0.033,0.146-0.017,0.223-0.023
			c-0.01,0.128-0.008,0.258-0.008,0.389c0.275,0.084,2.805,0.846,3.174,0.945c0.354,0.099,0.707,0.192,1.062,0.286
			c0.215-0.128,0.422-0.088,0.518,0.134c0,0,1.748,0.415,1.824,0.431c0.551,0.122,1.105,0.235,1.658,0.335
			c0.059-0.033,0.121-0.064,0.166-0.104c0.408-0.366,0.391-0.369,0.748,0.045c0.07,0.083,0.188,0.199,0.279,0.256
			c0,0,0.125,0.016,0.139,0.019c0.174-0.048,0.385-0.166,0.412-0.275c0.098-0.41,0.246-0.734-0.584-1.027
			c-0.164-0.059-0.303-0.134-0.43-0.216c-0.947-0.156-1.893-0.345-2.838-0.562c-0.018-0.004-0.035-0.007-0.053-0.013
			c-0.947-0.218-1.891-0.459-2.832-0.721c-0.375-0.108-5.064-1.541-5.639-1.729c-2.174-0.691-4.42-1.413-6.689-2.015
			c-6.137-0.879-12.209,0.287-16.65,3.181c-0.271,0.179-0.379,0.6-0.232,0.938C78.908,40.497,79.246,40.629,79.52,40.451
			 M112.639,41.05c0.043-0.037,0.322,0.078,0.666,0.167c-0.357,0.321-0.602,0.541-0.844,0.758c-0.105-0.116-0.326-0.257-0.291-0.339
			C112.26,41.421,112.439,41.22,112.639,41.05 M118.113,42.922c0.074-0.164,0.066-0.365-0.109-0.626
			c-0.053-0.079,0.027-0.216,0.074-0.319c0.074-0.164,0.145-0.494,0.457-0.161c0.428,0.455,1.068,0.743,1.668,1.064
			c-0.375,0.022-0.75,0.043-1.125,0.049C119.078,42.93,118.311,42.928,118.113,42.922 M122.924,42.557
			c-0.047-0.04-0.088-0.079-0.104-0.115c-0.174-0.402-0.336-0.807-0.496-1.211c0.402-0.063,0.807-0.135,1.207-0.222
			c0.025-0.006,0.053-0.013,0.078-0.019c0.387-0.084,0.773-0.177,1.158-0.284c0.141,0.164,0.199,0.343-0.016,0.584
			c0.359,0.195,0.504,0.437,0.568,0.694c-0.385,0.115-0.771,0.217-1.156,0.311c-0.031,0.007-0.061,0.014-0.092,0.021
			C123.689,42.407,123.307,42.488,122.924,42.557 M125.904,40.356l0.107-0.04c-0.01,0.034-0.021,0.07-0.033,0.104
			C125.957,40.398,125.93,40.378,125.904,40.356 M78.76,47.911c-0.152-0.347-0.039-0.771,0.232-0.949
			c0.518-0.336,1.059-0.644,1.617-0.933c0.557-0.284,1.129-0.545,1.719-0.784c0.068,0.047,0.141,0.126,0.205,0.124
			c0.965-0.023,0.932,0.482,1.285,0.798c-0.602,0.205-1.186,0.434-1.754,0.687c-0.191,0.084-0.385,0.167-0.574,0.258
			c-0.205,0.1-0.406,0.203-0.605,0.308c-0.471,0.247-0.93,0.503-1.365,0.787C79.246,48.385,78.904,48.246,78.76,47.911
			 M129.885,40.033c-0.033-0.019-0.08-0.032-0.119-0.051C129.803,39.997,129.842,40.015,129.885,40.033"/>
	</g>
	<g>
		<path fill-rule="evenodd" clip-rule="evenodd" fill="#295866" d="M80.838,57.924c-0.029,0.147-0.072,0.296-0.086,0.444
			c-0.365,4.489-1.795,8.619-4.482,12.224c-5.879,7.884-13.795,11.355-23.526,10.036c-7.883-1.067-13.844-5.329-17.803-12.23
			c-3.039-5.299-3.834-11.008-2.662-16.995c0.111-0.567,0.495-0.883,0.953-0.816c0.506,0.074,0.764,0.479,0.687,1.084
			c-0.013,0.102-0.044,0.202-0.058,0.304c-0.155,1.171-0.309,2.343-0.469,3.559c3.551,0,6.973,0,10.425,0
			c0.014-0.18,0.034-0.33,0.036-0.481c0.045-2.786,0.376-5.538,0.945-8.263c0.705-3.362,1.768-6.594,3.624-9.51
			c0.661-1.038,1.467-1.985,2.225-2.998c-0.144,0.03-0.307,0.049-0.459,0.099c-0.884,0.288-1.766,0.583-2.648,0.876
			c-0.526,0.175-0.976-0.012-1.142-0.476c-0.154-0.432,0.062-0.854,0.556-1.071c0.094-0.042,0.191-0.077,0.288-0.113
			c4.804-1.836,9.702-2.193,14.731-1.065c9.246,2.073,16.906,10.124,18.459,19.474c0.156,0.934,0.271,1.873,0.406,2.81
			C80.838,55.851,80.838,56.888,80.838,57.924z M67.533,67.285c2.592,0.618,5.131,1.223,7.719,1.84
			c1.885-1.947,4.238-9.178,3.807-11.875c-3.404,0-6.811,0-10.297,0C68.732,60.695,68.293,64.035,67.533,67.285z M45.017,67.288
			c-0.273-1.618-0.611-3.271-0.82-4.94c-0.207-1.672-0.287-3.361-0.426-5.085c-3.387,0-6.809,0-10.293,0
			c0.166,4.368,1.473,8.326,3.832,11.871C39.926,68.508,42.482,67.896,45.017,67.288z M76.756,46.192
			c-0.391-0.785-0.869-1.527-1.303-2.291c-0.125-0.218-0.254-0.302-0.537-0.232c-2.34,0.578-4.688,1.132-7.029,1.694
			c-0.1,0.023-0.199,0.04-0.369,0.075c0.779,3.331,1.215,6.685,1.252,10.104c3.475,0,6.885,0,10.359,0
			C79.014,52.212,78.219,49.115,76.756,46.192z M67.086,57.261c-3.322,0-6.605,0-9.924,0c0,3.071,0,6.129,0,9.149
			c2.871,0.209,5.719,0.415,8.668,0.629C66.619,63.88,67.062,60.618,67.086,57.261z M55.428,66.405c0-2.993,0-6.054,0-9.148
			c-3.288,0-6.574,0-9.913,0c0.042,3.348,0.469,6.611,1.267,9.777C49.68,66.823,52.53,66.616,55.428,66.405z M67.084,55.542
			c-0.012-3.331-0.469-6.587-1.252-9.777c-2.896,0.212-5.764,0.421-8.668,0.634c0,2.991,0,6.035,0,9.143
			C60.463,55.542,63.736,55.542,67.084,55.542z M46.785,45.771c-0.805,3.15-1.215,6.413-1.275,9.761c3.333,0,6.616,0,9.931,0
			c0-3.057,0-6.102,0-9.133C52.547,46.189,49.698,45.983,46.785,45.771z M65.391,44.141c-1.26-3.652-2.652-7.03-5.707-9.394
			c-0.846-0.653-1.721-1.001-2.518-1.08c0,3.645,0,7.287,0,11.063C59.914,44.534,62.604,44.341,65.391,44.141z M57.154,68.076
			c0,3.777,0,7.411,0,11.172c0.604-0.236,1.178-0.407,1.701-0.68c1.51-0.787,2.596-2.034,3.535-3.416
			c1.301-1.911,2.188-4.02,2.891-6.211c0.014-0.048,0.006-0.101,0.016-0.292C62.572,68.457,59.881,68.269,57.154,68.076z
			 M55.432,44.733c0-3.764,0-7.411,0-11.208c-0.701,0.306-1.373,0.526-1.97,0.875c-1.606,0.94-2.724,2.366-3.681,3.921
			c-1.089,1.771-1.877,3.678-2.543,5.823C50.008,44.343,52.698,44.536,55.432,44.733z M55.456,68.168
			c-2.736-0.002-5.436,0.234-8.229,0.575c0.377,0.993,0.701,1.951,1.1,2.878c0.95,2.219,2.13,4.292,3.959,5.927
			c1.02,0.911,2.184,1.496,3.17,1.59C55.456,75.477,55.456,71.858,55.456,68.168z M45.517,68.903
			c-2.364,0.542-4.691,1.076-7.164,1.642c3.335,4.104,7.418,6.716,12.383,7.964C48.224,75.755,46.492,72.603,45.517,68.903z
			 M67.096,68.901c-0.975,3.695-2.711,6.861-5.23,9.609c4.957-1.243,9.025-3.854,12.25-7.79c-0.002-0.066-0.004-0.134-0.006-0.2
			C71.787,69.984,69.469,69.448,67.096,68.901z M67.092,43.897c2.365-0.545,4.688-1.08,7.031-1.621
			c-1.254-2.81-9.092-7.865-12.297-7.954C64.391,37.064,66.125,40.211,67.092,43.897z"/>
		<path fill-rule="evenodd" clip-rule="evenodd" fill="#295866" d="M27.81,37.623c0.031-0.13,0.075-0.259,0.096-0.39
			c0.941-6.472,8.155-9.794,13.664-6.292c4.219,2.683,5.392,8.344,2.584,12.478c-2.168,3.195-4.337,6.391-6.506,9.585
			c-0.617,0.908-1.167,0.912-1.775,0.015c-2.219-3.267-4.456-6.519-6.635-9.812c-0.484-0.733-0.779-1.6-1.104-2.428
			c-0.174-0.44-0.221-0.93-0.324-1.396C27.81,38.796,27.81,38.209,27.81,37.623z M41.804,43.929c0.329-0.485,0.658-0.97,0.988-1.455
			c2.892-4.258,0.442-10.205-4.631-11.142c-2.891-0.534-5.357,0.359-7.158,2.691c-1.812,2.347-2.02,4.945-0.791,7.649
			c0.07,0.156,0.162,0.305,0.258,0.446c2.012,2.97,4.024,5.938,6.039,8.905c0.065,0.098,0.144,0.187,0.256,0.33
			C38.474,48.836,40.138,46.382,41.804,43.929z"/>
		<path fill-rule="evenodd" clip-rule="evenodd" fill="#295866" d="M30.867,38.422c-0.023-3.212,2.616-5.876,5.835-5.889
			c3.282-0.012,5.916,2.583,5.928,5.838c0.012,3.275-2.593,5.906-5.853,5.914C33.505,44.292,30.894,41.701,30.867,38.422z
			 M32.525,38.378c-0.008,2.371,1.879,4.245,4.278,4.25c2.28,0.004,4.159-1.885,4.169-4.191c0.01-2.362-1.855-4.239-4.217-4.246
			C34.428,34.185,32.533,36.06,32.525,38.378z"/>
	</g>
</g>
</svg>
