<?xml version="1.0" encoding="utf-8"?>
<!-- Generator: Adobe Illustrator 26.1.0, SVG Export Plug-In . SVG Version: 6.00 Build 0)  -->
<svg version="1.1" id="Laag_1" xmlns="http://www.w3.org/2000/svg" xmlns:xlink="http://www.w3.org/1999/xlink" x="0px" y="0px"
	 viewBox="0 0 317.3 80" style="enable-background:new 0 0 317.3 80;" xml:space="preserve">
<style type="text/css">
	.st0{fill:#FFFFFF;stroke:#FFFFFF;stroke-width:0.3;stroke-miterlimit:10;}
	.st1{fill:#FFFFFF;}
</style>
<g>
	<path class="st0" d="M66.5,22.3c-2.1-5-5.3-9.3-9.3-12.6c-4-3.4-9.1-5.9-15-7.6c-3.8-1.1-7.9-1.8-12.3-2C28.5,0,27.1,0,25.7,0H0
		v79.7l0,0V80h22.2c7.5,0,14.2-0.9,20.1-2.6c5.9-1.7,10.9-4.3,15-7.7s7.2-7.6,9.3-12.6c2.1-5,3.2-10.9,3.2-17.4
		C69.7,33.2,68.6,27.3,66.5,22.3z M25.1,59.9L25.1,59.9v19c-1,0-2,0.1-3,0.1H1V40.7h24l0,0l0,0v19.2H25.1z M25.1,22.1L25.1,22.1
		v17.5h-24V1h24V22.1z M26.2,23.1h0.5c3.1,0,5.4,0.7,6.7,2.1s2,3.5,2,6.1s-0.7,4.6-2,6.1c-1.3,1.4-3.6,2.1-6.7,2.1h-0.5V23.1z
		 M34.2,24.5c1.8,0.7,3.4,1.7,4.7,2.8c3.1,2.6,4.6,6.7,4.7,12.2H32.3c0.8-0.4,1.4-0.8,1.9-1.4c1.5-1.6,2.3-3.9,2.3-6.8
		S35.8,26.2,34.2,24.5L34.2,24.5z M26.2,40.6h0.5l0,0h16.9c-0.2,5.2-1.7,9.1-4.7,11.6c-3,2.6-7.3,4-12.7,4.1V40.6z M26.2,57.4
		c5.7-0.1,10.2-1.6,13.4-4.3c3.4-2.9,5.1-7.4,5.1-13.3S43,29.4,39.6,26.5c-1.6-1.4-3.6-2.5-6-3.2l0,0c-1.7-0.6-3.2-0.9-4.5-1
		c-0.1,0-0.2,0-0.3,0c-0.3,0-0.5-0.1-0.8-0.1c-0.1,0-0.2,0-0.3,0c-0.6,0-1.1,0-1.4,0h-0.2v-21c4.8,0,9.3,0.6,13.4,1.6
		c4.3,1.1,8.1,2.8,11.3,5.1c3.2,2.3,5.7,5.3,7.6,9.1c1.8,3.7,2.8,8.3,2.8,13.6c0,5.3-0.9,9.9-2.8,13.6c-1.8,3.7-4.4,6.8-7.6,9.1
		c-3.2,2.3-7,4-11.3,5.1c-4.1,1-8.7,1.6-13.4,1.6v-2.6H26.2z M65.5,56.7c-2.1,4.9-5.1,9-9,12.2c-3.9,3.3-8.8,5.8-14.6,7.5
		c-4.7,1.4-10,2.2-15.7,2.4V60.9c4.9,0,9.5-0.6,13.7-1.7c4.4-1.1,8.3-2.9,11.6-5.3s6-5.6,7.9-9.5s2.9-8.6,2.9-14.1s-1-10.2-2.9-14.1
		c-1.7-3.5-4.1-6.4-6.9-8.7c1.4,0.9,2.8,1.8,4,2.9c3.9,3.3,7,7.4,9,12.2c2.1,4.9,3.1,10.6,3.1,17C68.6,46.1,67.6,51.8,65.5,56.7z"/>
	<g>
		<g>
			<path class="st1" d="M93.4,43h-8v-0.5c1.6,0,2.5-1.4,2.5-3.9V21.3c0-2.3-0.9-3.9-2.5-3.9v-0.5h8c7.4,0,14.7,2.3,14.7,13.1
				C108.2,41.2,100.8,43,93.4,43z M93.4,17.4h-1.6v25.2h1.6c4,0,10.3-0.2,10.3-12.5C103.7,18,97.5,17.4,93.4,17.4z"/>
			<path class="st1" d="M116.7,34.1V20.6c0-2.5-1-3.2-2.6-3.2v-0.5h9.2v0.5c-1.6,0-2.9,0.3-2.9,3.3v13.8c0,4.6,2.7,7.2,6.8,7.2
				c3.8,0,6.7-2.6,6.7-7.4V24.2c0-3.5-0.1-6.8-4.4-6.8v-0.5h9.6v0.5c-4.9,0-4.8,3.3-4.8,6.8v10.1c0,6.6-4.5,9.1-9,9.1
				C120.5,43.3,116.7,40.1,116.7,34.1z"/>
			<path class="st1" d="M168.1,16.9v0.5c-1.6,0-3.5,0-7.6,8.2l-2.8,5.8v7.5c0,3,1.2,3.7,2.8,3.7v0.5h-9.1v-0.5
				c1.6,0,2.8-0.7,2.8-3.7v-6.6c-5.5-9.6-7-12.1-7-12.1c-1.7-2.8-2.7-2.8-3.9-2.9v-0.4h9.5v0.4c-1,0-3.4-0.1-0.9,4.2l5.5,9.2
				l2.8-5.8c1.3-2.6,3.3-7.6-1.7-7.6v-0.5h9.6V16.9z"/>
			<path class="st1" d="M200.6,16.9v0.4c-5.4,0-5.3,5.3-5.3,8.8V43h-1.2l-15.8-20.3v11.1c0,3.3,0,8.8,4.9,8.8v0.5h-10.7v-0.5
				c5.4,0,5.4-5.5,5.4-8.8V22.1l-1.5-2c-2.4-3-3.5-2.7-4.4-2.8v-0.4h6.9l16,20.7V26.1c0-3.5,0-8.8-4.9-8.8v-0.4H200.6z"/>
			<path class="st1" d="M224,37.9c0,4.5,1.3,4.6,3.7,4.6V43h-9.8v-0.5c1.8,0,2.4-1,2.4-4.5V20.8c0-2.6-0.5-3.5-2.4-3.5v-0.5h6.7
				c7.4,0,12.3,0.9,12.3,7.5s-4.9,7.5-12.3,7.5h-0.7L224,37.9L224,37.9z M224.7,31.4c4.5,0,8.2-0.1,8.2-7c0-7.1-3.9-7-8.2-7H224v14
				H224.7z"/>
			<path class="st1" d="M263.4,43h-8.5v-0.5c2,0,1.6-2.1,0.8-4.2l-1.3-3.2h-9.6c-1,3-2.6,7.6,2.5,7.4V43H239v-0.5
				c1.4,0,2.3-0.2,5.6-8.8l6.2-16.9h0.4c4.5,10.9,9.1,22.6,9.1,22.6c1.2,3,2,2.9,3,3L263.4,43L263.4,43z M254.3,34.6l-4.8-12.3
				L245,34.6H254.3z"/>
			<path class="st1" d="M290.8,43H288c-4.8,0-4.2,0-6.3-8.1c-1-3.9-4.8-3.9-5.8-3.9h-1.7v8.1c0,2.6,0.8,3.4,2.4,3.4V43h-8.3v-0.5
				c1.6,0,2.3-0.7,2.3-3.9V20.2c0-2.3-0.7-2.8-2.3-2.8v-0.5h7.1c7.4,0,11.5,0.9,11.5,7.1c0,5-2.9,6.5-6.9,6.8c2.4,0.1,5,0.4,6.9,8.5
				c0.7,2.8,3,3.2,4,3.3V43H290.8z M275.3,17.4h-1.2v13.2h1.2c4.2,0,7.4,0,7.4-6.6C282.7,17.2,279.3,17.4,275.3,17.4z"/>
			<path class="st1" d="M316.9,35.3l0.4,5.7c-2.7,1.8-5,2.3-8.9,2.3c-7.7,0-12.9-5.1-12.9-13.4s5.2-13.4,12.9-13.4
				c3.8,0,6.6,0.4,8.9,2.3l-0.4,5.8h-0.5c-1-6.1-5-7.5-8-7.5c-3.9,0-8.1,1.7-8.1,12.9c0,11.4,4.4,12.9,8.1,12.9c3,0,7.5-1.9,8-7.5
				h0.5V35.3z"/>
		</g>
		<g>
			<path class="st1" d="M96.3,56v11.7h-1.7v-5.3H89v5.3h-1.7V56H89v4.9h5.6V56C94.6,56,96.3,56,96.3,56z"/>
			<path class="st1" d="M104.1,66.2h4.9v1.5h-6.5V56h6.5l-0.2,1.5h-4.6v3.4h4.4v1.5h-4.4L104.1,66.2L104.1,66.2z"/>
			<path class="st1" d="M121.1,67.7h-6.5V56h1.7v10.2h4.9v1.5H121.1z"/>
			<path class="st1" d="M132.5,67.7H126V56h1.7v10.2h4.9v1.5H132.5z"/>
			<path class="st1" d="M139,66.2h4.9v1.5h-6.5V56h6.5l-0.2,1.5h-4.6v3.4h4.4v1.5h-4.4L139,66.2L139,66.2z"/>
			<path class="st1" d="M159.1,56l-4.4,11.7h-2.1L148.2,56h1.8l3.7,10.2l3.7-10.2H159.1z"/>
			<path class="st1" d="M168.7,55.8c0.6,0,1.2,0.1,1.9,0.3c0.7,0.2,1.3,0.5,1.8,0.9s1,1.1,1.4,1.8c0.4,0.8,0.6,1.8,0.6,3
				c0,0.8-0.1,1.5-0.3,2.1c-0.2,0.6-0.4,1.2-0.7,1.6c-0.3,0.5-0.6,0.8-1,1.1s-0.8,0.5-1.2,0.7c-0.4,0.2-0.8,0.3-1.3,0.4
				c-0.4,0.1-0.8,0.1-1.2,0.1c-0.4,0-0.8,0-1.2-0.1s-0.8-0.2-1.3-0.4c-0.4-0.2-0.8-0.4-1.2-0.7c-0.4-0.3-0.7-0.7-1-1.1
				c-0.3-0.4-0.5-1-0.7-1.6s-0.3-1.3-0.3-2.2c0-1.2,0.2-2.2,0.5-3c0.4-0.8,0.8-1.4,1.4-1.8s1.2-0.8,1.8-0.9
				C167.5,55.9,168.1,55.8,168.7,55.8z M168.7,66.4c0.5,0,1-0.1,1.5-0.2c0.5-0.2,0.9-0.4,1.2-0.8c0.3-0.4,0.6-0.8,0.8-1.4
				s0.3-1.3,0.3-2.1s-0.1-1.5-0.3-2.1c-0.2-0.6-0.5-1-0.8-1.4c-0.3-0.4-0.8-0.6-1.2-0.8s-1-0.2-1.5-0.2s-1,0.1-1.5,0.2
				s-0.9,0.4-1.2,0.8c-0.3,0.4-0.6,0.8-0.8,1.4c-0.2,0.6-0.3,1.3-0.3,2.1s0.1,1.5,0.3,2.1s0.5,1,0.8,1.4s0.8,0.6,1.2,0.8
				C167.7,66.3,168.2,66.4,168.7,66.4z"/>
			<path class="st1" d="M181.4,66.2h4.9v1.5h-6.5V56h6.5l-0.2,1.5h-4.6v3.4h4.4v1.5h-4.4L181.4,66.2L181.4,66.2z"/>
			<path class="st1" d="M199.6,56v1.5H196v10.2h-1.7V57.5h-3.6V56H199.6z"/>
			<path class="st1" d="M210.6,56.9l-0.6,1.4c-0.4-0.3-0.9-0.5-1.4-0.7s-1-0.3-1.5-0.3c-0.6,0-1.1,0.1-1.5,0.3
				c-0.4,0.2-0.6,0.6-0.6,1.1c0,0.4,0.1,0.8,0.4,1c0.3,0.3,0.7,0.5,1.1,0.7s0.9,0.4,1.4,0.6c0.5,0.2,1,0.5,1.4,0.8s0.8,0.6,1.1,1.1
				c0.3,0.4,0.4,0.9,0.4,1.6c0,0.6-0.1,1.1-0.3,1.5c-0.2,0.4-0.5,0.8-0.9,1.1s-0.8,0.5-1.3,0.6s-1,0.2-1.5,0.2
				c-0.8,0-1.5-0.1-2.3-0.4c-0.7-0.3-1.4-0.7-1.9-1.2l0.6-1.4c0.5,0.5,1,0.9,1.7,1.1c0.6,0.3,1.3,0.4,1.9,0.4s1.2-0.1,1.6-0.4
				c0.4-0.3,0.6-0.7,0.6-1.3c0-0.4-0.1-0.8-0.4-1.1s-0.7-0.6-1.1-0.8s-0.9-0.4-1.4-0.7s-1-0.5-1.4-0.7s-0.8-0.6-1.1-1
				s-0.5-0.9-0.5-1.4c0-0.6,0.1-1.1,0.3-1.5c0.2-0.4,0.5-0.7,0.9-1s0.8-0.4,1.2-0.5c0.5-0.1,0.9-0.2,1.4-0.2c0.6,0,1.3,0.1,1.9,0.3
				C209.6,56.3,210.1,56.6,210.6,56.9z"/>
			<path class="st1" d="M222.9,67.7h-6.5V56h1.7v10.2h4.9v1.5H222.9z"/>
			<path class="st1" d="M227.8,63.5V56h1.7v7.5c0,0.4,0.1,0.7,0.2,1.1s0.3,0.7,0.5,0.9s0.5,0.5,0.9,0.6s0.8,0.2,1.3,0.2
				s0.9-0.1,1.3-0.2c0.4-0.2,0.6-0.4,0.9-0.6c0.2-0.3,0.4-0.6,0.5-0.9s0.2-0.7,0.2-1.1V56h1.7v7.5c0,0.7-0.1,1.4-0.4,1.9
				s-0.6,1-1,1.4s-0.9,0.6-1.5,0.8c-0.5,0.2-1.1,0.3-1.7,0.3s-1.1-0.1-1.7-0.3c-0.5-0.2-1-0.5-1.4-0.8c-0.4-0.4-0.8-0.8-1-1.4
				C227.9,64.9,227.8,64.3,227.8,63.5z"/>
			<path class="st1" d="M244.5,56v11.7h-1.7V56H244.5z"/>
			<path class="st1" d="M256.8,56.9l-0.6,1.4c-0.4-0.3-0.9-0.5-1.4-0.7s-1-0.3-1.5-0.3c-0.6,0-1.1,0.1-1.5,0.3
				c-0.4,0.2-0.6,0.6-0.6,1.1c0,0.4,0.1,0.8,0.4,1s0.7,0.5,1.1,0.7s0.9,0.4,1.4,0.6s1,0.5,1.4,0.8s0.8,0.6,1.1,1.1
				c0.3,0.4,0.4,0.9,0.4,1.6c0,0.6-0.1,1.1-0.3,1.5c-0.2,0.4-0.5,0.8-0.9,1.1s-0.8,0.5-1.3,0.6s-1,0.2-1.5,0.2
				c-0.8,0-1.5-0.1-2.3-0.4c-0.7-0.3-1.4-0.7-1.9-1.2l0.6-1.4c0.5,0.5,1,0.9,1.7,1.1c0.6,0.3,1.3,0.4,1.9,0.4s1.2-0.1,1.6-0.4
				c0.4-0.3,0.6-0.7,0.6-1.3c0-0.4-0.1-0.8-0.4-1.1s-0.7-0.6-1.1-0.8s-0.9-0.4-1.4-0.7s-1-0.5-1.4-0.7c-0.4-0.3-0.8-0.6-1.1-1
				c-0.3-0.4-0.5-0.9-0.5-1.4c0-0.6,0.1-1.1,0.3-1.5c0.2-0.4,0.5-0.7,0.9-1s0.8-0.4,1.2-0.5c0.5-0.1,0.9-0.2,1.4-0.2
				c0.6,0,1.3,0.1,1.9,0.3C255.8,56.3,256.3,56.6,256.8,56.9z"/>
		</g>
	</g>
</g>
</svg>
