<?xml version="1.0" encoding="utf-8"?>
<!-- Generator: Adobe Illustrator 24.2.1, SVG Export Plug-In . SVG Version: 6.00 Build 0)  -->
<svg version="1.1" id="Laag_1" xmlns="http://www.w3.org/2000/svg" xmlns:xlink="http://www.w3.org/1999/xlink" x="0px" y="0px"
	 viewBox="0 0 1000 1000" style="enable-background:new 0 0 1000 1000;" xml:space="preserve">
<style type="text/css">
	.st0{fill:#FFFFFF;}
</style>
<g>
	<path class="st0" d="M784.5,340.8c-19.1-45-47.3-83.3-83.7-113.5C664.4,197,619.2,174,566.5,159c-36-10.3-73.3-16.3-110.7-17.7
		c-12.9-0.8-25.8-1.3-38.1-1.3H187.1v715.6v0.3v3h199.1c67.1,0,127.8-7.8,180.3-23.2c52.7-15.4,97.9-38.6,134.3-68.8
		c36.4-30.3,64.6-68.5,83.7-113.6c19-44.9,28.7-97.5,28.7-156.3C813.2,438.4,803.5,385.8,784.5,340.8 M197.5,150.4h214.9v344.5
		H197.5V150.4z M412.5,505.3v342.8c-9.3,0.3-17.9,0.4-26.2,0.4H197.5V505.3H412.5z M422.9,494.9V348.7h4.3c28,0,48.2,6.4,60.2,19
		c12,12.7,18.1,30.9,18.1,54.1s-6.1,41.4-18.1,54.1c-12,12.6-32.2,19-60.2,19L422.9,494.9L422.9,494.9z M494.9,483
		c13.9-14.7,21-35.3,21-61.2c0-25.4-6.8-45.8-20.2-60.4c15.6,6.4,29.4,14.5,40.8,24.3c27.4,23.4,41.5,60.1,41.9,109.1h-99.7
		C485.2,491.6,490.6,487.6,494.9,483 M711.3,535.9c-16.5,33.3-39.2,60.6-67.7,81.1c-28.6,20.7-62.5,36.1-100.8,45.7
		c-36.9,9.3-77.2,14.2-119.9,14.6v-21.4c51.4-1.1,91.9-14.2,120.5-39c30.2-26.2,45.6-66.5,45.6-119.8s-15.3-93.4-45.6-119.3
		c-14.3-12.2-31.8-21.7-52.1-28.1l0,0l-1.4-0.5c-13.2-4.4-26.7-7.6-40.2-9.4c-0.6-0.1-1.1-0.1-1.7-0.2c-0.3,0-0.7-0.1-1-0.1
		c-2.4-0.3-4.7-0.5-6.8-0.7l-0.9-0.1c-0.6-0.1-1.3-0.1-1.9-0.1c-6.2-0.4-10.8-0.4-12.9-0.3h-1.6V150.5c42.7,0.4,83,5.3,119.9,14.6
		c38.3,9.7,72.3,25.1,100.8,45.7c28.4,20.6,51.2,47.9,67.7,81.1c16.5,33.3,24.9,74.4,24.9,122C736.2,461.5,727.8,502.6,711.3,535.9
		 M536.6,609c-26.8,23.2-65,35.5-113.7,36.5V505.3h155.4C576.8,551.5,562.7,586.4,536.6,609 M422.9,847.7V687.8
		c43.4-0.4,84.6-5.4,122.5-14.9c39.6-10,74.7-25.9,104.4-47.4c29.8-21.6,53.7-50.2,70.9-84.9c17.2-34.8,25.9-77.4,25.9-126.6
		s-8.7-91.8-25.9-126.6c-14.6-29.5-34.1-54.6-58-74.8c11.5,7.3,22.1,14.9,31.5,22.8c35.1,29.2,62.3,66.1,80.7,109.6
		c18.5,43.7,27.9,94.9,27.9,152.3s-9.4,108.6-27.9,152.3c-18.4,43.5-45.6,80.4-80.7,109.6C658.9,788.5,615,811,563.7,826
		C522.1,838,474.8,845.3,422.9,847.7"/>
</g>
</svg>
