<?xml version="1.0" encoding="utf-8"?>
<!-- Generator: Adobe Illustrator 24.2.1, SVG Export Plug-In . SVG Version: 6.00 Build 0)  -->
<svg version="1.1" id="Layer_1" xmlns="http://www.w3.org/2000/svg" xmlns:xlink="http://www.w3.org/1999/xlink" x="0px" y="0px"
	 viewBox="0 0 124 46.7" style="enable-background:new 0 0 124 46.7;" xml:space="preserve">
<style type="text/css">
	.st0{fill:#C1E3E6;}
	.st1{fill:#4A4A49;}
</style>
<path class="st0" d="M84.1,20l17.4,17.1L119,19.7L107.6,8.4l-4.9,4.9c-0.4,0.4-1.2,0.4-1.6,0l-5.2-5L84.1,20z M101.4,39.8
	c-0.3,0-0.6-0.1-0.8-0.3l-19-18.7c-0.2-0.2-0.3-0.5-0.3-0.8c0-0.3,0.1-0.6,0.3-0.8L95.1,5.9c0.4-0.4,1.2-0.4,1.6,0l5.2,5l4.9-4.9
	c0.4-0.4,1.2-0.4,1.6,0l13.1,12.9c0.2,0.2,0.3,0.5,0.3,0.8c0,0.3-0.1,0.6-0.3,0.8l-19.2,19C102,39.7,101.7,39.8,101.4,39.8"/>
<path class="st0" d="M107.2,26.9H95.6c-0.6,0-1.1-0.5-1.1-1.1v-7.9c0-0.3,0.1-0.6,0.4-0.8l3.5-3.3c0.5-0.4,1.2-0.4,1.6,0
	c0.4,0.5,0.4,1.2,0,1.6l-3.1,3v6.3h9.4v-6.3l-5.3-5.3c-0.4-0.4-0.4-1.2,0-1.6c0.4-0.4,1.2-0.4,1.6,0l5.6,5.6
	c0.2,0.2,0.3,0.5,0.3,0.8v7.9C108.4,26.4,107.9,26.9,107.2,26.9"/>
<path class="st1" d="M6.2,24.8h4.7c1.1,0,1.9-0.2,2.5-0.5c0.6-0.3,0.9-1,0.9-2c0-1.6-1.3-2.3-3.8-2.3H6.2V24.8z M6.2,17.3H10
	c2.2,0,3.2-0.7,3.2-2.2c0-0.8-0.3-1.4-0.8-1.8c-0.5-0.4-1.3-0.6-2.4-0.6H6.2V17.3z M11,27.6H3.3V10h6.9c1.2,0,2.2,0.1,3.1,0.4
	c0.9,0.3,1.5,0.7,1.9,1.2c0.8,0.9,1.2,1.9,1.2,3.1c0,1.4-0.4,2.4-1.3,3.1c-0.3,0.2-0.5,0.4-0.7,0.4c-0.1,0.1-0.3,0.2-0.6,0.3
	c1.1,0.2,2,0.7,2.6,1.5c0.6,0.8,1,1.7,1,2.8c0,1.2-0.4,2.3-1.3,3.3C15.1,27.1,13.4,27.6,11,27.6"/>
<polygon class="st1" points="21.1,27.6 21.1,10 24.1,10 24.1,17.6 32.8,17.6 32.8,10 35.8,10 35.8,27.6 32.8,27.6 32.8,20.4 
	24.1,20.4 24.1,27.6 "/>
<polygon class="st1" points="48.7,27.6 45.4,27.6 38.3,10 41.6,10 47.1,23.1 52.5,10 55.8,10 "/>
<polygon class="st1" points="58.4,10 61.3,10 61.3,18.6 69.4,10 73.2,10 66.1,17.7 73.3,27.6 69.8,27.6 63.9,19.9 61.3,22.7 
	61.3,27.6 58.4,27.6 "/>
<rect x="35.5" y="32.7" class="st1" width="1.4" height="9.4"/>
<g>
	<path class="st1" d="M40,38.2h3.8c0-0.6-0.2-1-0.5-1.3c-0.4-0.3-0.8-0.5-1.3-0.5c-0.5,0-1,0.2-1.4,0.5C40.2,37.2,40,37.7,40,38.2
		 M45.3,39.3H40c0,0.5,0.3,0.9,0.7,1.2c0.4,0.3,0.9,0.4,1.4,0.4c0.8,0,1.5-0.3,1.9-0.8l0.8,0.9c-0.7,0.7-1.7,1.1-2.8,1.1
		c-0.9,0-1.7-0.3-2.4-0.9c-0.7-0.6-1-1.5-1-2.5c0-1.1,0.3-1.9,1-2.5c0.7-0.6,1.5-0.9,2.4-0.9c0.9,0,1.7,0.3,2.3,0.8
		c0.6,0.6,1,1.3,1,2.3V39.3z"/>
	<path class="st1" d="M48.2,42h-1.4v-6.7h1.4V42z M46.9,34c-0.2-0.2-0.3-0.4-0.3-0.6c0-0.2,0.1-0.5,0.3-0.6c0.2-0.2,0.4-0.3,0.6-0.3
		c0.2,0,0.5,0.1,0.6,0.3c0.2,0.2,0.3,0.4,0.3,0.6c0,0.2-0.1,0.5-0.3,0.6c-0.2,0.2-0.4,0.3-0.6,0.3C47.3,34.3,47.1,34.2,46.9,34"/>
	<path class="st1" d="M55,40c0,0.6-0.2,1.1-0.7,1.5c-0.5,0.4-1.1,0.6-1.8,0.6c-0.5,0-1-0.1-1.5-0.3c-0.5-0.2-1-0.4-1.4-0.7l0.7-1.1
		c0.8,0.6,1.5,0.9,2.3,0.9c0.3,0,0.6-0.1,0.8-0.2c0.2-0.1,0.3-0.3,0.3-0.6c0-0.3-0.4-0.6-1.3-0.9c-0.1,0-0.1,0-0.2,0
		c-1.4-0.4-2.1-1-2.1-1.9c0-0.6,0.2-1.1,0.7-1.5c0.5-0.4,1.1-0.6,1.9-0.6c0.8,0,1.5,0.2,2.2,0.7l-0.5,1c-0.5-0.4-1.1-0.5-1.8-0.5
		c-0.3,0-0.6,0.1-0.8,0.2c-0.2,0.1-0.3,0.3-0.3,0.5c0,0.2,0.1,0.4,0.3,0.5c0.2,0.1,0.4,0.1,0.6,0.2c0.3,0.1,0.5,0.1,0.7,0.2
		c0.2,0.1,0.4,0.1,0.6,0.2c0.2,0.1,0.4,0.2,0.6,0.4C54.8,38.9,55,39.4,55,40"/>
	<path class="st1" d="M61.3,39v-3.6h1.4v6.7h-1.4v-1.2c-0.2,0.4-0.5,0.7-0.9,1c-0.4,0.2-0.8,0.4-1.3,0.4c-0.8,0-1.4-0.2-1.8-0.7
		c-0.5-0.5-0.7-1.1-0.7-2v-4.1H58V39c0,1.2,0.5,1.9,1.5,1.9c0.5,0,0.9-0.2,1.3-0.5C61.2,40.1,61.3,39.6,61.3,39"/>
	<path class="st1" d="M68.3,36.7c-0.7,0-1.2,0.2-1.6,0.7c-0.4,0.5-0.5,1.1-0.5,1.8V42h-1.4v-6.7h1.4v1.4c0.2-0.4,0.5-0.8,0.9-1
		c0.4-0.3,0.8-0.4,1.2-0.4L68.3,36.7L68.3,36.7z"/>
	<path class="st1" d="M70.8,38.2h3.8c0-0.6-0.2-1-0.5-1.3c-0.4-0.3-0.8-0.5-1.3-0.5c-0.5,0-1,0.2-1.4,0.5
		C71,37.2,70.8,37.7,70.8,38.2 M76.1,39.3h-5.3c0,0.5,0.3,0.9,0.7,1.2c0.4,0.3,0.9,0.4,1.4,0.4c0.8,0,1.5-0.3,1.9-0.8l0.8,0.9
		c-0.7,0.7-1.7,1.1-2.8,1.1c-0.9,0-1.7-0.3-2.4-0.9c-0.7-0.6-1-1.5-1-2.5c0-1.1,0.3-1.9,1-2.5c0.7-0.6,1.5-0.9,2.4-0.9
		c0.9,0,1.7,0.3,2.3,0.8c0.6,0.6,1,1.3,1,2.3V39.3z"/>
</g>
</svg>
