<?xml version="1.0" encoding="utf-8"?>
<!-- Generator: Adobe Illustrator 26.2.0, SVG Export Plug-In . SVG Version: 6.00 Build 0)  -->
<svg version="1.1" id="Laag_1" xmlns="http://www.w3.org/2000/svg" xmlns:xlink="http://www.w3.org/1999/xlink" x="0px" y="0px"
	 viewBox="0 0 267 221" style="enable-background:new 0 0 267 221;" xml:space="preserve">
<style type="text/css">
	.st0{clip-path:url(#SVGID_00000072259939589798056520000004222975159474487443_);}
	.st1{fill:#FFFFFF;}
</style>
<g>
	<defs>
		<path id="SVGID_1_" d="M235.9,130.4c2-6.9,2.1-14.1,3.2-21.5c0-1.6-0.1-3.2-0.1-4.9c-0.5-4,0.1-8.2-0.4-11.7
			c-0.2-1.5-0.7-2.9-0.9-4.7c-0.1,0-0.2-0.1-0.3-0.1c-0.1-0.1-0.1-0.3-0.2-0.4c-0.2-2.1-1.3-4.1-1.8-5.8c-1.7-5.9-3.8-10.6-6.6-15.2
			c-0.3-0.5-0.9-2.4-1.6-2.3c-0.1,0.1-0.2,0.3-0.2,0.4c-0.4,0.1-0.8-0.8-0.8-1.1c0.2,0,0.4-0.1,0.6-0.1c0-0.1,0-0.2,0.1-0.2
			c-0.2-0.1-0.3-0.2-0.5-0.3c-0.1,0.1-0.2,0.3-0.3,0.4c-0.5-0.1-0.5-0.4-0.6-0.9c-0.2-0.8-0.8-0.6-1.2-1.1c-0.1-0.4-0.2-0.7-0.3-1.1
			c-0.9-0.8-1.8-1.7-2.6-2.5c-2.3-3-4.8-8.4-8-10.4h-0.1l-0.1,0.1c-0.2,1.6,3.5,3.4,2,4.6c-0.5-0.1-0.9-0.5-1.5-0.7
			c0-0.1-0.1-0.3-0.1-0.4c-0.1,0-0.1,0-0.2-0.1c-1,0.6-2.2-0.5-2.9-1c0-0.1,0-0.1,0-0.2c0.3-0.1,0.6-0.2,1-0.2v-0.1v-0.1
			c-0.1-0.3-6.7-7.1-7-4.8c-0.6,0.3-1.5-0.5-2,0.3c0.1,0.2,0.2,0.3,0.2,0.5c-0.4,0.6-1.3,0.1-1.9,0.4v0.2c0.8,0.7,1.7,1.4,2.5,2.1
			c0.6,0.8-0.2,1.6,0.4,2.4c1.1,1.1,2.2,2.1,3.3,3.2c0.1,0.6,0.3,1.1,0.4,1.7c1.2,2.1,3.2,3.9,4.6,6c0.6,0.9,1,3.3,1.7,4
			c0.2,0.3,0.5,0.7,0.1,1c0.1,0.2,0.1,0.3,0.2,0.5c0.1,0,0.3-0.1,0.4-0.1c0.5,0.3,1.2,1.5,1.2,2.1c-0.8,0.7-0.1,0.7-0.1,1.6
			c0,0,0,0-0.1,0.1c-1.8-0.5-2.3-3.3-3.2-4.7c-0.3-0.1-0.6-0.2-0.9-0.3c-1.2-1.5-2.5-2.7-3.8-4.1c-1-1.1-0.7-2.3-1.4-3.5
			c-0.8-1.5-4-4.3-4.4-5.7c0.1-0.3,0.3-0.7,0.4-1c0-0.4-0.2-0.5-0.5-0.5l-0.1,0.1c0,0.2,0.1,0.4,0.1,0.6c-0.8,0.2-3.9-3.7-5.8-3.5
			l-0.1,0.1c-0.1,1.5,3.2,3.1,2.7,4.2c-5.4,1.7-10-5.1-12-8.2c-0.1,0.1-0.2,0.2-0.4,0.3c-0.1,2.7-3.3-1.5-4-1.4
			c-0.8,1.1,1.9,2.3-0.8,2.6c-0.5,0.9,0.1,1.3,0.5,1.6c0.1,0.6-0.5,1.2-0.1,1.8c1.4,1.9,4.6,3,6.2,5c1,1.2,2,2.3,3,3.5
			c0.7,1,0,1.9,0.8,2.7v0.2c0,0,0,0-0.1,0c-0.1-0.1-0.2-0.2-0.3-0.3c-3.7,0.8-6.4-8.3-9.8-6.9c-0.2,0.4,0,0.6,0.2,0.8
			c-0.2,2.1-5.4-3.2-5.5-3.3c0,0-0.1,0-0.1-0.1h-0.1h-0.1c-0.1,0-0.1,0-0.2,0s-0.3,0-0.4,0c0,0.2,0,0.4-0.1,0.6
			c1,1.2,2.1,2.4,3.1,3.6c2.1,2.5,4.5,6.1,5.8,9.1c1,1.9,2.1,3.9,3.1,5.8c2.1,5,3.9,10.6,5.1,16.2c0.5,3.5,1,7,1.5,10.5
			c0.1,1-0.3,2.8-0.1,3.4c0.6,2.1,0.6,8.6,0.1,11.3c-0.7,3.8-0.8,7.9-1.8,11.7c-2.8,10.9-5.8,21.2-10.3,30.1
			c-1.9,3.8-4.9,7-7.5,10.1c-1.6,1.9-2.3,4.2-4.2,5.8c-2.1,1.6-4.3,2.9-6.5,4.5c-3.5,2.5-6.6,6.3-10.9,7.9
			c-5.4,1.9-11.7,3.3-17.5,4.3c-1.6,0.3-3.4-0.4-5,0c-2.7,0.3-5.3,0.6-8,1c-1.4-0.2-3.6-0.9-5.1-0.9c-3.3,0-6.5-0.3-9.8-0.9
			c-0.7,0-1.4,0.1-2,0.1c-1.9-0.8-3.9-1.6-5.8-2.4c-0.8-0.1-1.7-0.1-2.5-0.2c-5.1-1.6-12.4-11.5-15-16.2c-0.6-1.1-0.9-3.8-2-4.5
			c-0.8,0.1-0.1,1.6-0.4,2.2c-2.2,0.3-5.8-10.8-6.8-13.1c-1.8-4.2-3.7-9.1-4.8-14.2c-0.3-1.3,0.2-2.7-0.1-4.2
			c-1.8-9.5,1.2-25.3,3.8-33.4c1.9-5.9,5-11.4,8.1-16.2c3.4-5.4,6.9-10,10.9-14.7c2-2.4,4.8-4.1,7.5-5.9c3.7-2.5,7.6-5.5,11.4-7.9
			c1.3-0.8,2.7-1.1,4.2-1.7c10.4-4.5,22.3-8.7,34.9-10.8c1.3-0.2,3,0.4,4.4,0.4c2.3-0.2,4.7-0.4,7-0.7c2.7,0.3,5.3,0.9,8,1.2
			c0-0.1,0.1-0.1,0.1-0.2c-1.1-1.6-5.4,0.1-5.9-2c-0.4-0.2-0.9-0.4-1.3-0.6c-1.3,0.1-4.9,0.7-5.8-0.5c0.1-0.3,0.6-0.6,0.9-0.6
			c3.2-0.2,6.5-0.3,9.8,0c0.5-0.1,1.1-0.2,1.6-0.3c3.4,0.5,8.3,0.9,12.1,0.4c0.8-0.1,0.6-0.8,1.1-1.1c0.6-0.1,1.1-0.2,1.7-0.2
			c3.7-0.5,10.2,1.6,12.4-1.2c0.3-0.4,0.1-0.9-0.2-1.1c-0.5-0.4-1.1-0.7-1.6-1.1c-0.8-1.1-1.5-2.1-2.3-3.2c-0.9-0.4-1.7-0.9-2.6-1.3
			c-0.7-0.6-1.4-1.2-2.1-1.8c-0.7-0.2-1.3-0.4-2-0.5c-1.3-0.9-2.1-2.6-3.4-3.4c-0.9-0.4-1.7-0.7-2.6-1.1c-1-1.1-1.9-2.2-2.9-3.2
			c-1.1-1.9-0.3-2.2-2.2-3.4c-2.7-1.7-6.9-1.5-9.7-3.3c0,0,0-0.1-0.1-0.1c0.3-0.3,0.6-0.5,0.9-0.8c0-0.1,0-0.1,0-0.2
			c-0.8-0.4-5.5-0.1-7-0.3c-2.4-0.4-4.2-1.6-6.1-2.1c-0.7-0.1-1.4-0.2-2.1-0.2c-0.5-0.4-1.1-0.9-1.6-1.3c-1.1,0-2.2,0-3.3-0.1
			c-0.8-0.2-1.6-0.5-2.4-0.7c-0.9,0.1-1.9,0.2-2.8,0.3c-1.2-0.2-2.7-1.1-4.2-1c-0.9,0-0.8-0.5-1-1.2c-0.1,0-0.1-0.1-0.2-0.1
			c-0.5,0.5-0.9,0.9-1.4,1.4c-2.6,1.1-6,0.1-8.6,0.5c-3.6,0.5-7.3,0.6-10.6,1.1c-2.1,0.4-4.4,1.3-6.3,1.5c-2.7,0.4-5.1-0.1-7.5,0.4
			c-5.4,1-10.6,2.9-15,5c-3.5,1.6-5.8,3.8-8.5,6.2c-1.6,1.3-3.4,2-4.8,3.5c-0.2,0.1-0.4,0.2-0.5,0.3c-0.3-0.3,0.2-0.7,0.3-0.9
			c-0.2-0.3-2.1,2-2.4,2.3c-1.2,1.2-2.8,2.1-4.2,3.1c-1.6,1.5-3.2,3-4.7,4.6c-2.7,3.3-5.4,6.6-8.1,10c-4.2,4.9-7.8,10.3-11.3,15.9
			c-1.3,2.2-1.7,4.5-2.8,6.9c-4.1,9.5-7,22.6-8,34.5c-0.1,0.9-0.3,2.7-0.7,3.8c-0.4,0.6-0.8,1.2-1.1,1.7c0.1,1,0.2,1.9,0.3,2.9
			c0,3.4,0.1,6.9,0.1,10.3c0.4,3,0.9,6,1.3,9c2.5,13.1,7.3,26,13.3,36.1c2.3,3.8,3.9,7.7,6.6,11.1c1.1,1.1,2.2,2.2,3.4,3.2
			c5.2,6.5,10.7,12,17.3,17c4.4,3.3,10.3,5.5,15.8,7.7c3.1,1.5,6.1,3,9.2,4.5c5.1,2.1,10.9,3.8,16.1,5.5c4.2,1.4,9,0.9,13.5,1.7
			c10.3,1.7,22-0.3,30.8-2.3c5-1.2,9.7-1.7,14.2-3.6c10.6-4.2,19.4-10.3,28-16.4c0.8-0.4,1.6-0.8,2.4-1.1c1.7-1.1,3.5-2.5,5.1-3.8
			c0-0.1,0-0.1,0-0.2c-2.1-0.2-5.4,4.1-6.6,3.7l-0.1-0.1c0.1-0.2,0.2-0.4,0.3-0.6c0.7-0.4,1.3-0.8,2-1.3c2.2-1.6,4.3-3.6,6.3-5.5
			c4.9-4.4,9.2-10.2,13-15.7C226.8,156.6,231.6,145.1,235.9,130.4L235.9,130.4z M224.4,154.4c0.6-1.5,1.3-2.9,1.9-4.4
			c0.1,0,0.1,0.1,0.2,0.1C226.4,151.1,225.2,154.2,224.4,154.4L224.4,154.4z M226.8,149.6c-0.1,0-0.1,0-0.2,0
			c0.2-0.3,0.4-0.6,0.5-0.9C227,148.9,226.9,149.2,226.8,149.6z M227.3,147.2l-0.1-0.1c0-0.1,0.1-0.2,0.1-0.3l0.2,0.2
			C227.5,147.1,227.4,147.1,227.3,147.2L227.3,147.2z M229.1,142.1c-0.4,1.2-0.7,2.5-1.1,3.7c-0.1,0-0.1,0-0.2,0
			c-0.1-1.2,1-3.8,1.5-4.8c0.1,0,0.1,0.1,0.2,0.1C229.6,141.4,229.4,142,229.1,142.1z M229.9,140.7
			C229.8,140.7,229.8,140.7,229.9,140.7c-0.2,0-0.3,0-0.4,0v-0.1c0-0.1,0.1-0.1,0.1-0.2h0.2l0.1,0.1L229.9,140.7z M227.6,65.6
			c0.5,0,0.9,0.6,0.8,1.2h-0.1c-0.3,0-0.6-0.8-0.8-1.1C227.6,65.7,227.6,65.6,227.6,65.6z M224.4,63.2c1.1,0.1,0.9,1.1,1.4,1.9
			c2.8,4.3,4.4,9.3,6.5,14.7c0.2,1.2,0.5,2.3,0.7,3.5c0.4,1.5,0.8,3,1.2,4.5c-0.2,0.1-0.4,0.2-0.5,0.3v0.1c2.3,1.1,1.3,6.7,1.8,9.4
			c1.6,8,0.6,16.5-1,23.7c-1.2,5.5-1.5,11.2-3.5,16c-0.4,1-0.7,2-1.1,3c-0.3-0.1,0.7-4.3,1.2-4.7c0-0.3,0.1-0.7,0.1-1h0.3
			c-0.1-0.4,1.6-8.4,1.8-8.6c0-1,0.1-2,0.1-3c2.7-13.3,2.2-29.6-2-40.8c-0.5-1.3-0.6-2.9-1.2-4c-0.4-1.1-0.7-2.2-1.1-3.3
			C228.6,73.5,223.2,64.6,224.4,63.2L224.4,63.2z M191.9,59.8l-0.1-0.1c0-0.1,0-0.2,0-0.2c0.1,0.1,0.2,0.2,0.3,0.3
			C192.1,59.8,192,59.8,191.9,59.8z M193,60.9c-0.1,0-0.2,0-0.2,0c0-0.2-0.1-0.4-0.1-0.6C192.9,60.4,193,60.5,193,60.9z M215.2,51.9
			c0-0.1,0-0.1,0-0.2c0.2-0.1,0.4-0.1,0.6-0.2c0.9,0.1,3.3,4.8,4.7,5.5c0.1,0.6,0.1,1.2,0.2,1.9c0.7,0.9,2.6,2.1,2.3,4
			c-0.1,0.1-0.1,0.1-0.2,0.2h-0.1h-0.1c-0.7-1.3-1.4-2.6-2.1-3.9C219,56.6,216.8,54.3,215.2,51.9L215.2,51.9z M200.7,33.7
			c3-0.1,2.6,1.2,1.7,2.9C200.6,37.2,197.9,35.1,200.7,33.7z M206.8,40.3c0.1-0.1,0.1-0.2,0.2-0.2c0.8,0,2.1,1.3,2.3,2
			c0,0,0,0.1-0.1,0.1C208.4,42.1,207.2,40.9,206.8,40.3z M168.3,41.2c0.1,0,0.1-0.1,0.2-0.1c0.5,0.1,0.9,0.3,1.4,0.4v0.2
			C169.2,42,168.6,41.7,168.3,41.2L168.3,41.2z M170.3,41.7c0.1-0.1,0.2-0.2,0.4-0.4c0.6,0.3,1.2,0.5,1.8,0.8v0.2
			C171.7,42.5,170.3,42.4,170.3,41.7z M175.2,42.8c-0.6-0.1-1.2-0.1-1.9-0.2c0,0,0,0,0-0.1c0.2-0.1,0.4-0.1,0.6-0.2
			C174.3,42.5,174.8,42.6,175.2,42.8L175.2,42.8z M212.1,45.2c-0.5-0.4-1.1-0.9-1.6-1.3c0-0.1,0.1-0.1,0.1-0.2
			C211.1,44.2,211.7,44.7,212.1,45.2z M176.2,45.1c-0.4-0.1-0.8-0.2-1.2-0.3c0-0.1,0.1-0.2,0.1-0.3c0.1,0,0.2-0.1,0.3-0.1
			c0.5,0,0.7,0.2,0.9,0.5C176.2,45,176.2,45,176.2,45.1z M200.2,44.5h0.1v0.1C200.3,44.6,200.3,44.6,200.2,44.5
			C200.2,44.6,200.2,44.6,200.2,44.5z M212.8,46.3c0.1-0.1,0.1-0.2,0.2-0.2C213.2,46.1,213,46.4,212.8,46.3z M203.6,52.1
			c-0.3-0.2-0.5-0.5-0.7-0.8l0.1-0.1C203.3,51.2,203.7,51.6,203.6,52.1L203.6,52.1z M204.4,52.9c-0.2-0.1-0.5-0.3-0.2-0.6
			c0.1,0.1,0.3,0.3,0.4,0.4C204.6,52.8,204.6,52.8,204.4,52.9z M204.9,53.7h-0.1c0-0.1,0-0.1,0-0.2c0.1,0,0.1,0.1,0.2,0.1
			C204.9,53.6,204.9,53.7,204.9,53.7L204.9,53.7z M237.2,74.5c0-0.1-0.1-0.1-0.1-0.2c0,0,0,0,0.1-0.1c0.1,0,0.1,0.1,0.2,0.1
			C237.4,74.4,237.3,74.5,237.2,74.5C237.3,74.6,237.2,74.6,237.2,74.5z M237.3,75.9l0.1-0.1c0.7,0.1,0.8,1.3,1.1,1.9
			c0,0.1-0.1,0.1-0.1,0.2c-0.2-0.1-0.3-0.1-0.5-0.2C237.8,77.1,237.6,76.5,237.3,75.9z M238.8,78.2c0.5,0.1,1.2,1.9,1.2,2.3
			l-0.1,0.1h-0.1C239.4,80.4,238.4,78.8,238.8,78.2L238.8,78.2z M239.9,80.9c0.4,0.1,0.9,1.6,0.9,2.1c-0.3,0.2-1-1.5-1-1.9
			C239.8,81,239.9,80.9,239.9,80.9z M240.7,83.5c0.1,0,0.1,0,0.2,0.1c0.4,1.5,0.9,3,1.3,4.4c-0.1,0-0.2,0.1-0.3,0.1
			c-0.1-0.1-0.2-0.1-0.2-0.2C241.3,87.2,240.4,84.2,240.7,83.5z M242.1,88.7c0.6,0.1,1.8,7.2,1.7,8.2c-0.2,0-0.4,0.1-0.7,0.1
			C242.9,95.9,241.8,89.3,242.1,88.7z M243.4,99.7c0-0.7,0-1.3,0-2C244.3,97.9,244.1,99.9,243.4,99.7z M243.8,103.4
			c-0.1,0-0.1,0-0.2,0c-0.4-0.2-0.3-2.1,0-2.5C244.2,101,244.1,103,243.8,103.4z M243.7,103.9c0.1,0,0.1,0.1,0.2,0.1
			c-0.1,0.1-0.1,0.1-0.2,0.2c0,0,0-0.1-0.1-0.1C243.6,104,243.6,104,243.7,103.9z M243.9,107.2c-0.7-0.1-0.6-2.3-0.2-2.7
			c0.1,0,0.1,0.1,0.2,0.1C244.1,105.1,244.3,106.9,243.9,107.2z M243.7,107.7c0.3,0.1,0.3,6.3-0.2,7.3c-0.1,0-0.1,0-0.2,0
			C243.1,114.9,243.4,108,243.7,107.7z M243.7,115.3c0.3,0.6-0.8,4.7-1,5.4c-0.6,3.1-0.2,6.2-1.2,9.4c-0.6,2.5-1.3,4.9-1.9,7.4
			c-0.1,0.2-0.3,0.4-0.4,0.5c-0.1,0-0.1-0.1-0.2-0.1c-0.7-3,2.8-6.4,1.8-9.2c1.5-2.1,1-12.4,2.5-13.5
			C243.6,115.3,243.6,115.3,243.7,115.3L243.7,115.3z M239.3,138.4c0.2,0.3,0,0.7-0.3,0.9c-0.3,0-0.4-0.2-0.4-0.5
			c0.2-0.1,0.3-0.3,0.5-0.4C239.2,138.3,239.2,138.4,239.3,138.4z M238.8,140.5c-0.7,1.9-3.4,10.6-4.4,11.3
			c-0.1-0.1-0.2-0.1-0.3-0.2c0-0.5,4.6-12,4.6-12C239.3,139.6,239,140.1,238.8,140.5L238.8,140.5z M234.1,152.1
			c0.2,0.8-0.8,3.4-1.5,3.5c-0.1,0-0.1-0.1-0.2-0.1c-0.2-1,1.1-2.7,1.5-3.5C234,152.1,234,152.1,234.1,152.1z M232.8,155.9v0.2
			c-0.1,0.1-0.1,0.2-0.2,0.2s-0.2,0-0.3,0c0-0.1,0-0.3,0-0.4c0.1,0,0.1-0.1,0.2-0.1S232.7,155.8,232.8,155.9z M232.4,156.8
			c0.6,2.1-9,13.9-10.5,15.8c-0.7,0.9-2.6,2-2.7,3.1c-1.1,0.2-1.3,2-2.5,2v-0.1c1.6-1.7,3.3-3.3,4.9-5c0.7-1.3,5.4-7.6,6.4-8.4
			c0,0,3.9-7.3,4.2-7.5C232.2,156.8,232.3,156.8,232.4,156.8L232.4,156.8z M216.6,177.8c0.1,0,0.1,0.1,0.2,0.1
			c-0.5,0.7-5,4.3-5.7,4.3v-0.1C212.5,180.5,214.7,178.9,216.6,177.8z M210.7,182.1l0.2,0.2c-0.3,0.4-2.3,2.2-2.8,2.2
			c0-0.1,0-0.1,0-0.2C208.9,183.5,209.8,182.8,210.7,182.1z M207.3,185.2v0.2c-0.4,0.4-2.4,2-3,1.7c-0.4-0.7,2.2-1.7,2.6-2
			C207.1,185.1,207.2,185.2,207.3,185.2z"/>
	</defs>
	<clipPath id="SVGID_00000036956815168370777920000007771404511891895472_">
		<use xlink:href="#SVGID_1_"  style="overflow:visible;"/>
	</clipPath>
	<g style="clip-path:url(#SVGID_00000036956815168370777920000007771404511891895472_);">
		
			<image style="overflow:visible;enable-background:new    ;" width="450" height="447" xlink:href="41C78E04.jpeg"  transform="matrix(0.5081 0 0 0.5081 19.7748 -8.2078)">
		</image>
	</g>
</g>
<path d="M13.9,108.2H3.7v14.6H0V86.2h14.6c6.1,0,11,4.9,11,11c0,5-3.3,9.2-7.9,10.5l8.9,15.1h-4.2L13.9,108.2z M3.7,104.7h11
	c4,0,7.3-3.4,7.3-7.5c0-4.2-3.3-7.5-7.3-7.5h-11V104.7z"/>
<path d="M35.6,109.7c0-7.7,6.1-13.7,13.8-13.7c7.6,0,13.8,6,13.8,13.7s-6.1,13.7-13.8,13.7S35.6,117.5,35.6,109.7z M59.6,109.7
	c0-5.8-4.5-10.4-10.3-10.4S39,103.9,39,109.7s4.5,10.4,10.3,10.4S59.6,115.5,59.6,109.7z"/>
<path d="M74.3,109.7C74.3,102,80.4,96,88,96s13.8,6,13.8,13.7s-6.1,13.7-13.8,13.7C80.4,123.4,74.3,117.5,74.3,109.7z M98.4,109.7
	c0-5.8-4.5-10.4-10.3-10.4s-10.3,4.5-10.3,10.4c0,5.8,4.5,10.4,10.3,10.4S98.4,115.5,98.4,109.7z"/>
<path d="M152.3,106.5v16.3h-3.5v-16.3c0-4.7-2.7-7.1-6.4-7.1c-4,0-7.3,2.5-7.3,8.9v14.5h-3.5v-16.3c0-4.7-2.4-7.1-6.1-7.1
	c-3.8,0-7.5,2.5-7.5,8.9v14.5h-3.5V96.7h3.5v3.8c2-3.2,4.9-4.4,8-4.4c3.7,0,6.5,1.7,7.9,4.8c1.9-3.2,5.1-4.8,8.5-4.8
	C148.2,96,152.3,99.9,152.3,106.5z"/>
<path d="M194.6,109.7c0,7.7-6.1,13.7-13.5,13.7c-4.7,0-8.4-2.2-10.6-5.8v15.6H167V96.7h3.5v5.1c2.2-3.5,5.9-5.8,10.6-5.8
	C188.4,96,194.6,102,194.6,109.7z M191.1,109.7c0-5.8-4.5-10.4-10.3-10.4s-10.3,4.5-10.3,10.4c0,5.8,4.5,10.4,10.3,10.4
	S191.1,115.5,191.1,109.7z"/>
<path d="M205,109.7c0-7.7,6.1-13.7,13.8-13.7c7.6,0,13.8,6,13.8,13.7s-6.1,13.7-13.8,13.7S205,117.5,205,109.7z M229.1,109.7
	c0-5.8-4.5-10.4-10.3-10.4s-10.3,4.5-10.3,10.4c0,5.8,4.5,10.4,10.3,10.4S229.1,115.5,229.1,109.7z"/>
<path d="M250.3,100v15.8c0,4.5,2.5,4.1,7.5,3.9v3c-7.1,1-11-0.7-11-7V100h-5.5v-3.3h5.5v-6.3l3.5-1v7.3h7.5v3.3L250.3,100z"/>
<circle class="st1" cx="265.4" cy="121.4" r="1.6"/>
</svg>
