<svg id="Laag_1" data-name="Laag 1" xmlns="http://www.w3.org/2000/svg" viewBox="0 0 21.413 22"><defs><style>.cls-1{fill:#fff;}</style></defs><path class="cls-1" d="M15.477,22H6.523A6.247,6.247,0,0,1,.294,15.771V6.229A6.247,6.247,0,0,1,6.523,0h8.954a6.247,6.247,0,0,1,6.229,6.229v9.542A6.247,6.247,0,0,1,15.477,22Zm0-1.646a4.6,4.6,0,0,0,4.583-4.583V6.229a4.6,4.6,0,0,0-4.583-4.583H6.523A4.6,4.6,0,0,0,1.94,6.229v9.542a4.6,4.6,0,0,0,4.583,4.583Z" transform="translate(-0.294 0)"/><path class="cls-1" d="M16.929,10.915a5.9,5.9,0,1,1-5.9-5.9A5.9,5.9,0,0,1,16.929,10.915ZM11.005,7.059a3.861,3.861,0,1,0,3.861,3.861A3.86,3.86,0,0,0,11.005,7.059Z" transform="translate(-0.294 0)"/><circle class="cls-1" cx="16.731" cy="4.927" r="1.396"/></svg>