<svg id="Laag_1" data-name="Laag 1" xmlns="http://www.w3.org/2000/svg" viewBox="0 0 32.323 26.497"><defs><style>.cls-1{fill:#b7b09d;stroke:#fff;stroke-miterlimit:10;stroke-width:0.497px;}</style></defs><path class="cls-1" d="M32.568,13.966V13.36a3.185,3.185,0,0,0-1.45-2.669V4.08A3.158,3.158,0,0,0,27.963.925H8.455A3.159,3.159,0,0,0,5.3,4.08v6.611A3.185,3.185,0,0,0,3.85,13.36v.606A2.088,2.088,0,0,0,2.3,15.982v7.092a2.086,2.086,0,0,0,1.984,2.081v.839a.931.931,0,0,0,1.862,0v-.837H30.276v.837a.931.931,0,1,0,1.861,0v-.839a2.086,2.086,0,0,0,1.985-2.081V15.982A2.088,2.088,0,0,0,32.568,13.966ZM7.162,4.08A1.3,1.3,0,0,1,8.455,2.786H27.963A1.3,1.3,0,0,1,29.257,4.08v6.1H28.016V8.535a2.084,2.084,0,0,0-2.082-2.082H20.927a2.084,2.084,0,0,0-2.082,2.082v1.64H17.574V8.535a2.084,2.084,0,0,0-2.082-2.082H10.485A2.085,2.085,0,0,0,8.4,8.535v1.64H7.162ZM26.155,8.535V9.954a.221.221,0,0,1-.221.221H20.927a.221.221,0,0,1-.221-.221V8.535a.221.221,0,0,1,.221-.221h5.007a.221.221,0,0,1,.221.221Zm-10.442,0V9.954a.221.221,0,0,1-.221.221H10.485a.221.221,0,0,1-.221-.221V8.535a.221.221,0,0,1,.221-.221h5.007A.221.221,0,0,1,15.713,8.535Zm-10,4.825a1.325,1.325,0,0,1,1.324-1.323H29.384a1.325,1.325,0,0,1,1.323,1.323V13.9h-25Zm26.55,9.714a.223.223,0,0,1-.223.222H4.38a.223.223,0,0,1-.222-.222V15.982a.223.223,0,0,1,.222-.223H32.038a.223.223,0,0,1,.223.223v7.092Z" transform="translate(-2.048 -0.676)"/></svg>