<?xml version="1.0" encoding="utf-8"?>
<!-- Generator: Adobe Illustrator 24.2.1, SVG Export Plug-In . SVG Version: 6.00 Build 0)  -->
<svg version="1.1" id="Laag_1" xmlns="http://www.w3.org/2000/svg" xmlns:xlink="http://www.w3.org/1999/xlink" x="0px" y="0px"
	 viewBox="0 0 67.2 62.8" style="enable-background:new 0 0 67.2 62.8;" xml:space="preserve">
<g>
	<path d="M40.9,40.6c-0.3-3.6-1.2-7.2-3.3-9c-0.5-0.4-1-0.7-1.6-1c-0.9,2-3,3.4-5.4,3.4l-0.2,0c-1.4,0-2.7-0.6-3.7-1.5
		c-0.3-0.3-0.6-0.6-0.9-1c0,0-0.1-0.1-0.1-0.1l-0.2,0.3l-0.3,0.5L22,38.1c-0.1,0.2-0.3,0.3-0.5,0.3c-0.1,0-0.2,0-0.3-0.1
		C21.1,38.2,21,38,21,37.9c0-0.1,0-0.3,0.1-0.4l2.6-4.5l0.5-0.8c0.4-0.7,0.7-1.3,1.1-1.9c0.1-0.2,0.2-0.4,0.4-0.7
		c0.1-0.1,0.2-0.3,0.3-0.5c0-0.1,0.1-0.2,0.1-0.2c0.1,0.7,0.4,1.3,0.8,1.9c0.8,1.2,2.2,2.1,3.8,2.1l0.2,0c1.9,0,3.6-1.1,4.3-2.7
		c0.3-0.6,0.5-1.2,0.5-1.9c0-1.3-0.4-2.5-1.3-3.5c-0.9-0.9-2.1-1.5-3.4-1.5l-0.2,0c-2.3,0-4.2,1.6-4.7,3.8c-0.1-0.2-0.3-0.3-0.4-0.4
		c-0.2-0.1-0.3-0.2-0.5-0.2c-0.7-0.1-1.5,0.1-2.1,0.9c0,0-4.6,7.4-5.7,9.1c-1,1.6-0.6,3.3,0.2,4h-5.9v1.8h44.1v-1.8H40.9z
		 M22.1,40.6c1.4-1.2,2.4-2.2,3.3-3.1c0,1.2,0.1,2.3,0.1,3.1H22.1z"/>
	<path d="M48.3,39.7c1.9,0,3.5-1.6,3.5-3.5c0-1.9-1.6-3.5-3.5-3.5c-1.9,0-3.5,1.6-3.5,3.5C44.8,38.1,46.3,39.7,48.3,39.7z M46,36.3
		h0.4c0,0,0-0.1,0-0.1c0-0.1,0-0.1,0-0.2H46v-0.5h0.5c0.1-0.4,0.3-0.7,0.5-0.9c0.4-0.4,1-0.7,1.6-0.7c0.4,0,0.8,0.1,1,0.2l-0.2,0.8
		c-0.2-0.1-0.5-0.2-0.8-0.2c-0.3,0-0.6,0.1-0.9,0.4c-0.1,0.1-0.2,0.3-0.2,0.4h1.7V36h-1.8c0,0.1,0,0.1,0,0.2c0,0,0,0.1,0,0.1h1.8
		v0.5h-1.7c0,0.2,0.1,0.4,0.2,0.5c0.2,0.2,0.6,0.3,0.9,0.3c0.3,0,0.6-0.1,0.8-0.2l0.2,0.8c-0.2,0.1-0.6,0.3-1.1,0.3
		c-0.7,0-1.3-0.3-1.7-0.8c-0.2-0.2-0.3-0.5-0.4-0.9H46V36.3z"/>
	<path d="M49.2,23c0.8,0,1.5,0.7,1.5,1.6c0,0,0,0,0,0c0,0.5-0.1,0.7-0.7,1.2c-0.5,0.4-1.4,0.9-2.1,1.8c-0.8,1.1-1,2.2-1,2.9
		c0,0.2,0,0.4,0,0.6c0,0.1,0,0.1,0,0.2l0.2,0h2.3c0-0.4-0.1-0.5-0.1-0.7c0-0.4,0.1-0.8,0.5-1.4c0.2-0.3,0.9-0.8,1.7-1.4
		c0.7-0.6,1.7-1.7,1.6-3.1c0,0,0,0,0-0.1c0-2.1-1.7-4.2-4.1-4.2c-1.4,0-2.9,0.7-4.3,2.1l1.8,1.8C47.8,23.3,48.7,23,49.2,23z"/>
</g>
</svg>
