<?xml version="1.0" encoding="utf-8"?>
<!-- Generator: Adobe Illustrator 24.2.1, SVG Export Plug-In . SVG Version: 6.00 Build 0)  -->
<svg version="1.1" id="Laag_1" xmlns="http://www.w3.org/2000/svg" xmlns:xlink="http://www.w3.org/1999/xlink" x="0px" y="0px"
	 viewBox="0 0 406 338" style="enable-background:new 0 0 406 338;" xml:space="preserve">
<style type="text/css">
	.st0{fill:#FFFFFF;}
	.st1{fill:#181716;}
</style>
<rect class="st0" width="406" height="338"/>
<path class="st1" d="M264.2,84.3L264.2,84.3c-3.6-8.5-8.9-15.7-15.7-21.3c-6.8-5.7-15.3-10-25.2-12.8c-6.8-1.9-13.7-3-20.7-3.3
	c-2.4-0.2-4.8-0.2-7.1-0.2h-43.5l0,133.9l0,1.1h37.6c12.6,0,23.9-1.5,33.7-4.3c9.9-2.9,18.4-7.2,25.2-12.9
	c6.8-5.7,12.1-12.9,15.7-21.4c3.6-8.4,5.4-18.3,5.4-29.3C269.6,102.6,267.7,92.8,264.2,84.3z M196.9,112.7V86.6h0.3
	c5.1,0,8.7,1.1,10.8,3.4c2.1,2.3,3.2,5.5,3.2,9.7c0,4.2-1.1,7.4-3.2,9.7c-2.1,2.2-5.8,3.4-10.8,3.4H196.9z M210.2,111.4
	c2.7-2.8,4.1-6.8,4.1-11.8c0-3.9-0.9-7.2-2.5-9.8c2,1,3.9,2.2,5.5,3.6c4.9,4.2,7.4,10.7,7.6,19.3h-16
	C209.2,112.3,209.7,111.9,210.2,111.4z M249.5,120.6L249.5,120.6c-3,6.1-7.2,11.1-12.4,14.9c-5.3,3.8-11.5,6.6-18.6,8.4
	c-6.7,1.7-13.9,2.6-21.6,2.7v-2.9c9.4-0.3,16.9-2.8,22.2-7.4c5.8-5,8.7-12.6,8.7-22.7c0-10.1-2.9-17.7-8.7-22.6
	c-2.7-2.3-6-4.1-9.9-5.3l-0.3-0.1c-2.5-0.8-5-1.4-7.6-1.8l-0.4-0.1l-0.1,0c-0.5-0.1-0.9-0.1-1.3-0.1l-0.2,0c-0.1,0-0.2,0-0.4,0
	c-1-0.1-1.8-0.1-2.2-0.1V49.7c7.7,0.1,15,1,21.6,2.7c7.1,1.8,13.3,4.6,18.6,8.4c5.2,3.8,9.4,8.8,12.4,14.9c3,6.1,4.6,13.7,4.6,22.5
	C254.1,107,252.6,114.5,249.5,120.6z M217.1,134.1L217.1,134.1c-4.8,4.1-11.6,6.4-20.3,6.6v-25h27.8
	C224.3,123.9,221.8,130.1,217.1,134.1z M196.9,149.7c7.9-0.1,15.5-1,22.4-2.8c7.4-1.9,14-4.9,19.6-8.9c5.6-4.1,10.1-9.5,13.4-16
	c3.2-6.6,4.9-14.6,4.9-23.8c0-9.3-1.6-17.3-4.9-23.8c-1.7-3.4-3.7-6.5-6.1-9.3c0.1,0.1,0.2,0.2,0.3,0.2c6.5,5.4,11.5,12.2,14.9,20.2
	c3.4,8.1,5.1,17.5,5.1,28.1c0,10.6-1.7,20.1-5.1,28.1c-3.4,8-8.4,14.8-14.9,20.2c-6.5,5.4-14.6,9.6-24.1,12.3
	c-7.5,2.2-16.1,3.6-25.5,4V149.7z M193.8,115.7v62.7c-1.5,0-2.9,0.1-4.3,0.1h-34.6v-62.8H193.8z M193.8,49.7v63h-38.9v-63H193.8z"/>
<g>
	<path class="st1" d="M75.4,248h-9.4v-0.6c1.9,0,3-1.7,3-4.6v-20.3c0-2.7-1-4.6-3-4.6v-0.6h9.4c8.7,0,17.3,2.7,17.3,15.4
		C92.7,245.9,84.1,248,75.4,248 M75.4,217.9h-1.9v29.5h1.9c4.7,0,12.1-0.2,12.1-14.7C87.5,218.7,80.2,217.9,75.4,217.9"/>
	<path class="st1" d="M102.7,237.5v-15.9c0-3-1.2-3.8-3.1-3.8v-0.6h10.9v0.6c-1.9,0-3.4,0.4-3.4,3.8v16.2c0,5.4,3.2,8.5,7.9,8.5
		c4.4,0,7.9-3.1,7.9-8.7v-11.9c0-4.1-0.1-8-5.2-8v-0.6H129v0.6c-5.7,0-5.6,3.9-5.6,8v11.9c0,7.8-5.2,10.7-10.6,10.7
		C107.2,248.4,102.7,244.7,102.7,237.5"/>
	<path class="st1" d="M163,217.3v0.6c-1.9,0-4.1,0-9,9.6l-3.3,6.8v8.8c0,3.5,1.4,4.3,3.3,4.3v0.6h-10.6v-0.6c1.8,0,3.3-0.8,3.3-4.3
		v-7.7c-6.4-11.3-8.2-14.2-8.2-14.2c-2-3.3-3.1-3.3-4.6-3.4v-0.5h11.2v0.5c-1.2,0-4-0.1-1,4.9l6.4,10.8l3.3-6.8c1.5-3,3.9-8.9-2-8.9
		v-0.6H163z"/>
	<path class="st1" d="M201.2,217.3v0.5c-6.3,0-6.2,6.3-6.2,10.3V248h-1.4l-18.5-23.9v13c0,3.8,0,10.3,5.7,10.3v0.6h-12.6v-0.6
		c6.3,0,6.3-6.4,6.3-10.3v-13.6l-1.8-2.3c-2.8-3.5-4.1-3.2-5.2-3.3v-0.5h8.1l18.8,24.3v-13.5c0-4.1,0-10.3-5.7-10.3v-0.5H201.2z"/>
	<path class="st1" d="M228.7,242c0,5.2,1.6,5.4,4.3,5.4v0.6h-11.5v-0.6c2.1,0,2.9-1.1,2.9-5.3V222c0-3-0.6-4.1-2.8-4.1v-0.6h7.9
		c8.7,0,14.4,1,14.4,8.8c0,7.7-5.8,8.8-14.4,8.8h-0.8V242z M229.5,234.3c5.3,0,9.7-0.1,9.7-8.2c0-8.3-4.6-8.2-9.7-8.2h-0.8v16.4
		H229.5z"/>
	<path class="st1" d="M275,248h-9.9v-0.6c2.4,0,1.9-2.5,0.9-4.9l-1.5-3.8h-11.3c-1.2,3.5-3.1,8.9,3,8.7v0.6h-9.7v-0.6
		c1.7,0,2.7-0.2,6.5-10.3l7.3-19.8h0.5c5.3,12.8,10.7,26.6,10.7,26.6c1.4,3.5,2.4,3.4,3.6,3.5V248z M264.3,238.2l-5.7-14.5
		l-5.3,14.5H264.3z"/>
	<path class="st1" d="M307.1,248h-3.3c-5.6,0-4.9,0-7.4-9.5c-1.2-4.6-5.6-4.6-6.8-4.6h-2v9.5c0,3,1,4,2.8,4v0.6h-9.8v-0.6
		c1.9,0,2.7-0.9,2.7-4.5v-21.7c0-2.7-0.8-3.3-2.7-3.3v-0.6h8.3c8.7,0,13.5,1,13.5,8.3c0,5.9-3.4,7.7-8.1,8c2.9,0.1,5.9,0.4,8.1,10
		c0.8,3.3,3.5,3.7,4.7,3.8V248z M289,217.9h-1.4v15.5h1.4c4.9,0,8.7,0,8.7-7.7C297.6,217.7,293.6,217.9,289,217.9"/>
	<path class="st1" d="M338,239l0.5,6.7c-3.2,2.1-5.8,2.7-10.5,2.7c-9,0-15.1-6-15.1-15.7c0-9.8,6.1-15.7,15.1-15.7
		c4.5,0,7.8,0.4,10.5,2.7l-0.5,6.8h-0.6c-1.2-7.2-5.9-8.8-9.4-8.8c-4.5,0-9.5,2-9.5,15.2c0,13.4,5.1,15.2,9.5,15.2
		c3.5,0,8.8-2.2,9.4-8.8H338z"/>
	<polygon class="st1" points="107.7,267.5 107.7,282 105.6,282 105.6,275.4 98.7,275.4 98.7,282 96.6,282 96.6,267.5 98.7,267.5 
		98.7,273.6 105.6,273.6 105.6,267.5 	"/>
	<polygon class="st1" points="117.4,280.2 123.4,280.2 123.4,282 115.3,282 115.3,267.5 123.4,267.5 123.1,269.4 117.4,269.4 
		117.4,273.6 122.9,273.6 122.9,275.4 117.4,275.4 	"/>
	<polygon class="st1" points="138.6,282 130.5,282 130.5,267.5 132.5,267.5 132.5,280.2 138.6,280.2 	"/>
	<polygon class="st1" points="152.7,282 144.6,282 144.6,267.5 146.6,267.5 146.6,280.2 152.7,280.2 	"/>
	<polygon class="st1" points="160.8,280.2 166.9,280.2 166.9,282 158.8,282 158.8,267.5 166.9,267.5 166.6,269.4 160.8,269.4 
		160.8,273.6 166.3,273.6 166.3,275.4 160.8,275.4 	"/>
	<polygon class="st1" points="185.8,267.5 180.3,282 177.7,282 172.2,267.5 174.4,267.5 179,280.1 183.6,267.5 	"/>
	<path class="st1" d="M197.7,267.3c0.7,0,1.5,0.1,2.3,0.3c0.8,0.2,1.6,0.6,2.2,1.2c0.7,0.6,1.3,1.3,1.7,2.3c0.5,1,0.7,2.2,0.7,3.7
		c0,1-0.1,1.9-0.3,2.7c-0.2,0.8-0.5,1.4-0.8,2c-0.4,0.6-0.8,1-1.2,1.4c-0.5,0.4-1,0.7-1.5,0.9c-0.5,0.2-1,0.4-1.6,0.5
		c-0.5,0.1-1,0.1-1.5,0.1s-1,0-1.5-0.1c-0.5-0.1-1-0.2-1.6-0.5c-0.5-0.2-1-0.5-1.5-0.9c-0.5-0.4-0.9-0.8-1.2-1.4
		c-0.4-0.6-0.6-1.2-0.9-2c-0.2-0.8-0.3-1.7-0.3-2.7c0-1.5,0.2-2.7,0.7-3.7c0.5-1,1-1.7,1.7-2.3s1.5-0.9,2.3-1.2
		C196.2,267.4,197,267.3,197.7,267.3 M197.7,280.4c0.7,0,1.3-0.1,1.9-0.3c0.6-0.2,1.1-0.5,1.5-1c0.4-0.5,0.8-1,1-1.8
		c0.2-0.7,0.4-1.6,0.4-2.6c0-1-0.1-1.8-0.4-2.6c-0.2-0.7-0.6-1.3-1-1.8c-0.4-0.5-0.9-0.8-1.5-1c-0.6-0.2-1.2-0.3-1.9-0.3
		c-0.7,0-1.3,0.1-1.9,0.3c-0.6,0.2-1.1,0.5-1.5,1c-0.4,0.5-0.8,1-1,1.8c-0.2,0.7-0.4,1.6-0.4,2.6c0,1,0.1,1.9,0.4,2.6
		c0.2,0.7,0.6,1.3,1,1.8c0.4,0.4,0.9,0.8,1.5,1C196.4,280.3,197.1,280.4,197.7,280.4"/>
	<polygon class="st1" points="213.5,280.2 219.6,280.2 219.6,282 211.4,282 211.4,267.5 219.5,267.5 219.2,269.4 213.5,269.4 
		213.5,273.6 219,273.6 219,275.4 213.5,275.4 	"/>
	<polygon class="st1" points="236.1,267.5 236.1,269.4 231.6,269.4 231.6,282 229.5,282 229.5,269.4 225,269.4 225,267.5 	"/>
	<path class="st1" d="M249.7,268.6l-0.7,1.8c-0.5-0.4-1.1-0.7-1.7-0.9c-0.6-0.2-1.3-0.4-1.9-0.4c-0.7,0-1.4,0.1-1.8,0.4
		c-0.5,0.2-0.7,0.7-0.7,1.4c0,0.5,0.2,0.9,0.5,1.3c0.4,0.3,0.8,0.6,1.4,0.9c0.5,0.3,1.1,0.5,1.8,0.8c0.6,0.3,1.2,0.6,1.8,0.9
		c0.5,0.4,1,0.8,1.4,1.3c0.4,0.5,0.5,1.2,0.5,2c0,0.7-0.1,1.4-0.4,1.9c-0.3,0.5-0.6,1-1.1,1.3c-0.5,0.3-1,0.6-1.6,0.8
		c-0.6,0.2-1.2,0.2-1.8,0.2c-1,0-1.9-0.2-2.8-0.5c-0.9-0.4-1.7-0.9-2.3-1.5l0.8-1.7c0.6,0.6,1.3,1.1,2.1,1.4
		c0.8,0.3,1.6,0.5,2.4,0.5c0.8,0,1.4-0.2,2-0.5c0.5-0.4,0.8-0.9,0.8-1.6c0-0.6-0.2-1-0.5-1.4c-0.4-0.4-0.8-0.7-1.4-1
		c-0.5-0.3-1.1-0.6-1.8-0.8c-0.6-0.3-1.2-0.6-1.8-0.9c-0.5-0.3-1-0.7-1.4-1.2c-0.4-0.5-0.6-1.1-0.6-1.8c0-0.7,0.1-1.3,0.4-1.8
		s0.6-0.9,1.1-1.2c0.4-0.3,1-0.5,1.5-0.7c0.6-0.1,1.2-0.2,1.8-0.2c0.8,0,1.6,0.1,2.3,0.4C248.6,267.9,249.2,268.2,249.7,268.6"/>
	<polygon class="st1" points="265.1,282 257,282 257,267.5 259.1,267.5 259.1,280.2 265.1,280.2 	"/>
	<path class="st1" d="M271.2,276.8v-9.3h2.1v9.4c0,0.5,0.1,0.9,0.2,1.3c0.1,0.4,0.4,0.8,0.6,1.1c0.3,0.3,0.7,0.6,1.1,0.8
		c0.4,0.2,1,0.3,1.6,0.3c0.6,0,1.2-0.1,1.6-0.3c0.4-0.2,0.8-0.5,1.1-0.8c0.3-0.3,0.5-0.7,0.6-1.1c0.1-0.4,0.2-0.9,0.2-1.3v-9.4h2.1
		v9.3c0,0.9-0.2,1.7-0.5,2.4c-0.3,0.7-0.8,1.2-1.3,1.7c-0.5,0.5-1.1,0.8-1.8,1c-0.7,0.2-1.4,0.3-2.1,0.3s-1.4-0.1-2.1-0.3
		c-0.7-0.2-1.3-0.6-1.8-1c-0.5-0.4-0.9-1-1.2-1.7C271.3,278.5,271.1,277.7,271.2,276.8"/>
	<rect x="289.8" y="267.5" class="st1" width="2.1" height="14.5"/>
	<path class="st1" d="M307.2,268.6l-0.7,1.8c-0.5-0.4-1.1-0.7-1.7-0.9c-0.6-0.2-1.3-0.4-1.9-0.4c-0.7,0-1.4,0.1-1.8,0.4
		s-0.7,0.7-0.7,1.4c0,0.5,0.2,0.9,0.5,1.3c0.4,0.3,0.8,0.6,1.4,0.9c0.5,0.3,1.1,0.5,1.8,0.8c0.6,0.3,1.2,0.6,1.8,0.9
		c0.5,0.4,1,0.8,1.4,1.3c0.4,0.5,0.5,1.2,0.5,2c0,0.7-0.1,1.4-0.4,1.9c-0.3,0.5-0.6,1-1.1,1.3c-0.5,0.3-1,0.6-1.6,0.8
		c-0.6,0.2-1.2,0.2-1.8,0.2c-1,0-1.9-0.2-2.8-0.5c-0.9-0.4-1.7-0.9-2.3-1.5l0.8-1.7c0.6,0.6,1.3,1.1,2.1,1.4
		c0.8,0.3,1.6,0.5,2.4,0.5c0.8,0,1.4-0.2,2-0.5c0.5-0.4,0.8-0.9,0.8-1.6c0-0.6-0.2-1-0.5-1.4c-0.4-0.4-0.8-0.7-1.4-1
		c-0.5-0.3-1.1-0.6-1.8-0.8c-0.6-0.3-1.2-0.6-1.8-0.9c-0.5-0.3-1-0.7-1.4-1.2c-0.4-0.5-0.6-1.1-0.6-1.8c0-0.7,0.1-1.3,0.4-1.8
		c0.3-0.5,0.6-0.9,1.1-1.2c0.4-0.3,1-0.5,1.5-0.7c0.6-0.1,1.2-0.2,1.8-0.2c0.8,0,1.6,0.1,2.3,0.4C306,267.9,306.6,268.2,307.2,268.6
		"/>
</g>
</svg>
