<svg id="Laag_1" data-name="Laag 1" xmlns="http://www.w3.org/2000/svg" viewBox="0 0 241.117 76.929"><defs><style>.cls-1{fill:#fff;}</style></defs><path class="cls-1" d="M194.946,68.728a19.594,19.594,0,0,1-5.433,1.71,27.861,27.861,0,0,1-3.256.029,20.656,20.656,0,0,1,2.951-3.808q.416-.386.111-.717c-.185-.2-.422-.173-.717.083h.11a16.727,16.727,0,0,0-3.365,4.442q-1.82-.221-2.731-.3l-4.357-.827a26.156,26.156,0,0,0-4.386-.469,9.658,9.658,0,0,0-5.627,1.6c-.332.275-.488.515-.47.715q.028.417,1.049.416a4.947,4.947,0,0,0,1.738-.278c.074-.017.11-.072.11-.164a.789.789,0,0,0-.166-.138c-.864-.129-1.306-.2-1.323-.221a7.348,7.348,0,0,1,4.467-1.3,25.035,25.035,0,0,1,4.994.689q4.082.856,5.157.992a7.305,7.305,0,0,1,1.077.138c-.24.406-.517.855-.829,1.353q-1.93,3.088-3.861,6.151a28.4,28.4,0,0,1-4.5,5.433q-.5.416-.5.746a.374.374,0,0,0,.11.276c.221.256.486.247.8-.028a26.611,26.611,0,0,0,4.69-5.93l3.915-6.4q.581-.882.994-1.545,1.24.111,2.316.11a13.7,13.7,0,0,0,6.9-1.682,4.025,4.025,0,0,0,.5-.469c.2-.109.22-.267.055-.469-.093-.2-.267-.248-.525-.138M177.292,80.782c-.073-.073-.136-.073-.192,0a9.021,9.021,0,0,1-3.089,2.29,4.316,4.316,0,0,1-1.3.385,3.777,3.777,0,0,0,.745-2.51,14.467,14.467,0,0,0-.138-1.558,14.205,14.205,0,0,1-.138-1.585,2.47,2.47,0,0,1,.276-1.3q.69-.414,1.145-.663a.658.658,0,0,0,.372-.744c-.074-.386-.257-.57-.551-.551a1.684,1.684,0,0,0-1.1.483,2.236,2.236,0,0,0-.717,1.034q-1.022.882-1.793,1.571-2.262,1.767-5.3,4.275a.683.683,0,0,0-.083.332.329.329,0,0,0,.18.11c.1.037.16.047.178.028q4.305-3.476,6.758-5.461c-.066.46-.121.79-.164.993v3.31a2.965,2.965,0,0,1-1.17,2.124q-1.5-.441-1.415-.442-1.361,0-1.387.938-.03.993,1.462,1.048a3.349,3.349,0,0,0,2.4-.745,17.161,17.161,0,0,0,1.849-.5,6.806,6.806,0,0,0,1.958-1.435q.606-.606,1.187-1.212a.154.154,0,0,0,.026-.222m-10.039.165a.208.208,0,0,0-.249,0,18.946,18.946,0,0,1-3.116,2.018,2.739,2.739,0,0,1-1.325.3.937.937,0,0,1-1.075-1.044,1.2,1.2,0,0,1,.082-.467,12.073,12.073,0,0,1,1.876-2.8q.938-1.071,1.27-1.483a.307.307,0,0,0,.055-.165c0-.255-.157-.384-.47-.384a.446.446,0,0,0-.358.164q-1.766,1.987-3.532,3.945-2.1,2.1-3.64,2.152-1.075.028-1.075-.772a.494.494,0,0,1,.055-.221,11.445,11.445,0,0,1,1.626-2.759q.663-.744,1.325-1.516.579-.717.58-.745a.226.226,0,0,0-.111-.166c-.239-.147-.524-.017-.855.386q-.993,1.215-1.959,2.428a9.592,9.592,0,0,0-1.793,3.089,1.033,1.033,0,0,0,.276.938,1.334,1.334,0,0,0,1.186.469,5.641,5.641,0,0,0,2.4-.91,12.3,12.3,0,0,0,2.317-1.848,1.732,1.732,0,0,0,.056,2.129,1.869,1.869,0,0,0,1.433.435,3.881,3.881,0,0,0,2.069-.656,21.594,21.594,0,0,0,2.979-2.324c.092-.073.083-.136-.027-.192m-14.922-5.019a8.131,8.131,0,0,1-2.787.965A12.037,12.037,0,0,1,153.1,75.21a3.274,3.274,0,0,1-.772.718m7.778-13.3h-.028a9.046,9.046,0,0,1-.854,1.241q-1.463,1.905-4.8,5.49a64.038,64.038,0,0,1-4.937,4.964q3.255-4.218,5.738-7.391,2.758-3.834,4.413-4.663l.5-.247.164.21v.027Zm1.268-1.214c-.017-.127-.027-.211-.027-.249l-.221-.163c-.036-.166-.166-.212-.386-.138l-.22.027q-2.814,1.158-6.318,6.041-2.619,3.64-5.13,6.841-1.93,2.51-2.9,3.778-3.366,4.248-5.075,6.428a.331.331,0,0,1-.082.164.339.339,0,0,0-.084.194.594.594,0,0,0,.11.33c.148.148.323.1.525-.137q1.766-2.235,3.034-3.863a20.657,20.657,0,0,1,2.373-1.93,3.8,3.8,0,0,0-.221,1.158,3.743,3.743,0,0,0,.579,1.986,4.17,4.17,0,0,0,3.668,2.428,4.019,4.019,0,0,0,2.179-.662,28.286,28.286,0,0,0,3.034-2.51c.092-.073.083-.137-.027-.194a.208.208,0,0,0-.249,0,15.011,15.011,0,0,1-3.143,2.125,5.49,5.49,0,0,1-2.07.248q-1.1,0-2.316-1.572a3.289,3.289,0,0,1-.636-1.792,3.352,3.352,0,0,1,.36-1.794,2.859,2.859,0,0,1,.468-.331,8.769,8.769,0,0,0,2.952-.746,6.424,6.424,0,0,0,1.682-.979,6.715,6.715,0,0,0,.58-.564c.275-.424.377-.735.3-.939q-.082-.192-.744-.165a6.809,6.809,0,0,0-2.373.828q-.027.027-2.234,1.462-1.047.689-1.93,1.324c.089-.13.16-.23.213-.3.322-.424.545-.708.67-.856.018-.018.036-.037.053-.056V76.81c.094-.128.306-.414.637-.854q1.409-1.159,4.45-4.276.885-.937,4.532-4.828,3.317-3.53,3.87-4.992l.083-.083a1.177,1.177,0,0,0,.027-.194ZM128.608,77.389q-2.51,1.244-5.792,2.51a11.843,11.843,0,0,1,5.655-3.062c.478-.053.718-.036.718.056,0,.054-.194.22-.581.5m3.725,3.255a.232.232,0,0,0-.331,0,11.4,11.4,0,0,1-3.2,1.951,11.977,11.977,0,0,1-2.276.544,10.833,10.833,0,0,1-2.3.209q-2.427-.165-2.621-1.5a2.246,2.246,0,0,1,.608-1.135q3.916-1.526,6.923-2.992.552-.47.661-.553c.129-.167.222-.285.276-.36l.084-.25a.193.193,0,0,0-.028-.222c-.11-.091-.2-.165-.276-.22a8.77,8.77,0,0,0-4.9,1.3,10.651,10.651,0,0,0-4.041,3.338,2.239,2.239,0,0,0-.414,1.13q-.138,2.318,3.475,2.318a13.654,13.654,0,0,0,2.952-.414,11.738,11.738,0,0,0,2.345-.745,11.509,11.509,0,0,0,3.118-2.179c.09-.091.073-.165-.056-.221m-15.309.1q-2.565,2.828-4.606,2.828a2.426,2.426,0,0,1-.993-.2.754.754,0,0,1-.469-.757,2.6,2.6,0,0,1,.689-1.674q2.649-3.128,7.724-3.128a32.436,32.436,0,0,1-2.345,2.936m9.654-22.769A21.969,21.969,0,0,1,126.1,62.8l-3.723,1.323a41.321,41.321,0,0,1-5.848.745,10.057,10.057,0,0,1-5.24-1.377l-.443-.527-.192-.991q.828-5.49,6.289-8.828a8.955,8.955,0,0,1,4.745-1.406,4.954,4.954,0,0,1,4.522,2.345,15.778,15.778,0,0,1,.469,3.889m6.565,1.49a58.263,58.263,0,0,1-5.931,3.006c.128-.864.222-1.508.277-1.931a18.05,18.05,0,0,0,.192-2.593,13.214,13.214,0,0,0-.689-4.357,5.739,5.739,0,0,0-5.241-2.566,7.909,7.909,0,0,0-1.6.165,13.948,13.948,0,0,0-6.619,3.475,13.464,13.464,0,0,0-3.917,5.766,6.872,6.872,0,0,0-.387,2.1,2.261,2.261,0,0,0,.193,1.048.489.489,0,0,0,.056.138l.634.717a10.855,10.855,0,0,0,5.352,1.242,40.582,40.582,0,0,0,7-.939q1.436-.495,3.365-1.214-1.572,4.994-2.509,7.449-2.127,3.807-3.393,5.847-.579-.054-1.159-.055a9.952,9.952,0,0,0-8.109,3.614,3.076,3.076,0,0,0-.772,1.985,2.82,2.82,0,0,0,.11.773q.357,1.3,2.041,1.3a3.366,3.366,0,0,0,.965-.138,9.528,9.528,0,0,0,4.138-2.537,29.009,29.009,0,0,0,3.062-3.917,14.949,14.949,0,0,1,2.179.3c.331.074.514-.064.552-.414.073-.294-.065-.458-.414-.5q-1.105-.273-1.6-.357c-.055.055-.083.073-.083.055A35.861,35.861,0,0,0,127.2,63.156a57.325,57.325,0,0,0,6.289-3.228c.184-.109.211-.237.084-.385-.074-.183-.185-.211-.332-.082M99.84,80.947a.208.208,0,0,0-.249,0,19.29,19.29,0,0,1-3.172,2.207,2.038,2.038,0,0,1-1.572.276q-.937-.219-.965-.745a2.96,2.96,0,0,1,1.048-2.068Q96.2,79.1,96.613,78.493q.386-.523.33-.744-.054-.414-.773-.414a2.145,2.145,0,0,0-.853.164,34.487,34.487,0,0,0-6.207,3.476,6.336,6.336,0,0,0,1.241-1.765,2.638,2.638,0,0,0,.3-.91.929.929,0,0,0-1.1-.523,6.332,6.332,0,0,0-2.289,1.406q-1.217,1.047-2.455,2.1a.481.481,0,0,0-.084.332c.056.2.157.229.305.081q1.24-1.047,2.454-2.1a3.948,3.948,0,0,1,1.545-.966c.073,0,.137.055.193.167a8.168,8.168,0,0,1-1.53,2.081q-1.56,1.836-2.8,3.076l-.275.277a.669.669,0,0,0-.165.5c.017.146.109.22.274.22a1.147,1.147,0,0,0,.5-.137l.495-.332q1.794-1.516,3.615-3.006a18.063,18.063,0,0,1,5.351-2.924q.385-.11.385.11,0,.084-1.764,2.317a2.358,2.358,0,0,0-.5,2.207q.334,1.131,2.042,1.131a3.747,3.747,0,0,0,1.986-.662,28.286,28.286,0,0,0,3.034-2.51c.092-.073.084-.137-.027-.194m-14.233-.22c-.037-.037-.083-.027-.138.028a19.659,19.659,0,0,1-2.923,2.4A2.219,2.219,0,0,1,81,83.43q-.8-.191-.854-.745a2.494,2.494,0,0,1-.028-.385,5.434,5.434,0,0,1,1.021-2.814,5.39,5.39,0,0,1,.689-1.076q.828-.882,1.186-1.269a.386.386,0,0,0,.028-.579q-.194-.249-.524.166a15.411,15.411,0,0,1-3.779,3.586,37.31,37.31,0,0,1-4.027,2.206,4.316,4.316,0,0,1-2.483.441c-.239-.036-.378-.146-.415-.331a2.215,2.215,0,0,1,.664-1.571,14.265,14.265,0,0,1,1.82-1.573A16.422,16.422,0,0,1,79.346,77.2c.128,0,.193-.056.193-.166-.038-.128-.1-.175-.193-.138a12.549,12.549,0,0,0-5.517,2.262,7.785,7.785,0,0,0-2.979,3.227,1.264,1.264,0,0,0,.165,1.517,1.339,1.339,0,0,0,1.021.332,5.47,5.47,0,0,0,1.847-.414q2.154-1.02,3.174-1.628,1.9-1.3,2.73-1.986a4.649,4.649,0,0,0-.661,2,2.764,2.764,0,0,0,.164.916,1.443,1.443,0,0,0,1.241.974,3.64,3.64,0,0,0,.442.026,3.32,3.32,0,0,0,2.013-.667,18.56,18.56,0,0,0,2.648-2.531c.074-.073.065-.138-.027-.194m-14.012,0c-.037-.037-.083-.027-.137.028a19.667,19.667,0,0,1-2.924,2.4,2.219,2.219,0,0,1-1.546.276c-.533-.127-.817-.376-.855-.745a2.931,2.931,0,0,1-.027-.385,5.44,5.44,0,0,1,1.02-2.814,5.511,5.511,0,0,1,.69-1.076q.828-.882,1.186-1.269a.386.386,0,0,0,.028-.579q-.194-.249-.525.166a15.372,15.372,0,0,1-3.778,3.586A37.31,37.31,0,0,1,60.7,82.52a4.316,4.316,0,0,1-2.483.441q-.358-.054-.413-.331a2.213,2.213,0,0,1,.661-1.571,14.259,14.259,0,0,1,1.821-1.573A16.437,16.437,0,0,1,65.333,77.2c.128,0,.193-.056.193-.166-.036-.128-.1-.175-.193-.138a12.551,12.551,0,0,0-5.516,2.262,7.8,7.8,0,0,0-2.98,3.227A1.267,1.267,0,0,0,57,83.9a1.334,1.334,0,0,0,1.02.332,5.48,5.48,0,0,0,1.848-.414q2.151-1.02,3.172-1.628,1.9-1.3,2.73-1.986a4.654,4.654,0,0,0-.662,2,2.768,2.768,0,0,0,.166.916,1.446,1.446,0,0,0,1.242.974,3.624,3.624,0,0,0,.441.026,3.318,3.318,0,0,0,2.013-.667,18.455,18.455,0,0,0,2.648-2.531c.074-.073.064-.138-.027-.194" transform="translate(-4.941 -8.535)"/><path class="cls-1" d="M27.162,30.038c-6.883,4.748-12.564.488-17.7-1.8a11.957,11.957,0,0,0-4.524-1.256l.006-.257h.329a1.639,1.639,0,0,0,1.636-1.612V10.9A1.641,1.641,0,0,0,5.27,9.288H4.944l0-.257h5.614l-.006.257h-.323A1.646,1.646,0,0,0,8.581,10.9V25.711a1.524,1.524,0,0,0,1.235,1.764C20.29,31.117,22.8,31.451,27.035,29.834Z" transform="translate(-4.941 -8.535)"/><path class="cls-1" d="M32.554,9.029v.256h-.418A1.308,1.308,0,0,0,30.782,10.5V20.643c0,4.022-2.766,6.7-6.915,6.7-4.268,0-7.114-2.663-7.114-6.659V10.555A1.307,1.307,0,0,0,15.4,9.285h-.417V9.029H20.19v.256h-.421a1.3,1.3,0,0,0-1.35,1.232v9.792c0,3.739,2.178,6.23,5.446,6.23,3.426,0,5.712-2.359,5.718-5.9V10.52a1.307,1.307,0,0,0-1.356-1.235h-.418V9.029Z" transform="translate(-4.941 -8.535)"/><path class="cls-1" d="M51.1,26.73v.257H44.847V26.73h.324a1.071,1.071,0,0,0,.906-1.563l-3.953-6.239L38.18,25.151a1.075,1.075,0,0,0,.906,1.579h.324v.251H33.592V26.73h.355a3.371,3.371,0,0,0,2.613-1.512l4.912-7.32-4.505-7.1a3.311,3.311,0,0,0-2.585-1.51h-.359V9.029h6.225v.256h-.324a1.083,1.083,0,0,0-.914,1.563L42.545,16.4l3.5-5.524a1.073,1.073,0,0,0-.874-1.593h-.323V9.029H50.63v.256h-.361a3.321,3.321,0,0,0-2.586,1.51l-4.494,6.618,4.982,7.827a3.3,3.3,0,0,0,2.58,1.49Z" transform="translate(-4.941 -8.535)"/><path class="cls-1" d="M64.512,22.843l-1.5,4.144H52.383l0-.257h.324a1.644,1.644,0,0,0,1.644-1.612V10.754A1.58,1.58,0,0,0,52.72,9.285h-.327l0-.256h7.5a11.119,11.119,0,0,0,3.057-.467V11.8l-.258,0v-.458A1.533,1.533,0,0,0,61.25,9.813H56.019v7.932h4.336A1.267,1.267,0,0,0,61.6,16.48V16.1l.251,0v4.06l-.251,0v-.38a1.263,1.263,0,0,0-1.216-1.262H56.019V26.2H59.7c2.718,0,3.761-1.407,4.554-3.359Z" transform="translate(-4.941 -8.535)"/><path class="cls-1" d="M91.315,9.026v.259h-.226a2.527,2.527,0,0,0-2.246,1.588L82.674,24.7a13.545,13.545,0,0,0-.951,2.642h-.229L74.282,10.892A2.527,2.527,0,0,0,72.02,9.285h-.2V9.026H77.59v.256h-.224a1.081,1.081,0,0,0-.97,1.6l5.375,13.442,5.581-13.439a1.084,1.084,0,0,0-.976-1.6h-.224V9.026Z" transform="translate(-4.941 -8.535)"/><path class="cls-1" d="M99.527,9.029c3.108,0,5.015,1.83,5.015,4.82,0,2.483-1.893,4.893-4.36,4.893a6.22,6.22,0,0,1,1.836,1.8s2.211,3.16,3.206,4.243c1.032,1.127,1.981,1.928,3.488,1.939v.259h-1.407a5.513,5.513,0,0,1-4.475-2.249c-.292-.348-3.184-4.556-3.381-4.8-.671-.844-1.418-1.734-2.356-1.734v-.237s.585.013,1.356-.008a3.838,3.838,0,0,0,4-2.664,5.39,5.39,0,0,0,.165-1.537c-.065-2.318-1.273-3.8-3.184-3.909-1.308-.072-2.861-.008-3.192-.021V25.118a1.641,1.641,0,0,0,1.641,1.612h.327l0,.257H92.606l.006-.257h.323a1.639,1.639,0,0,0,1.642-1.6V10.9a1.642,1.642,0,0,0-1.642-1.612h-.326l0-.256Z" transform="translate(-4.941 -8.535)"/><path class="cls-1" d="M115.6,26.987h-5.613l0-.257h.326a1.641,1.641,0,0,0,1.642-1.612V10.886a1.643,1.643,0,0,0-1.642-1.6h-.323l-.006-.256H115.6l0,.256h-.324a1.647,1.647,0,0,0-1.644,1.6V25.118a1.646,1.646,0,0,0,1.644,1.612h.324Z" transform="translate(-4.941 -8.535)"/><path class="cls-1" d="M124.281,9.026l-.005.256h-.323a1.643,1.643,0,0,0-1.642,1.61V26.984a4.871,4.871,0,0,1-4.675,5.133v-.229c1.682-.591,3-2.772,3-4.977V10.9A1.642,1.642,0,0,0,119,9.285h-.327l0-.259Z" transform="translate(-4.941 -8.535)"/><path class="cls-1" d="M134.877,19.422a4.055,4.055,0,0,1,1.288,3.127,4.522,4.522,0,0,1-4.8,4.8c-1.259,0-3.335-.358-4.343-1.4a7.828,7.828,0,0,1,.3-3.575h.224c-.256,2.642,1.418,4.336,3.7,4.209a3.427,3.427,0,0,0,3.44-3.438,3.136,3.136,0,0,0-1.008-2.391l-4.915-4.564a4.337,4.337,0,0,1,3.119-7.514,11.157,11.157,0,0,1,2.2.262h1.017v3.149h-.246a2.654,2.654,0,0,0-2.887-2.642,3.007,3.007,0,0,0-3.154,2.952,3.224,3.224,0,0,0,1.032,2.364Z" transform="translate(-4.941 -8.535)"/><path class="cls-1" d="M149.928,9a11.076,11.076,0,0,0,3.09-.469v3.227l-.256-.005V11.3A1.531,1.531,0,0,0,151.3,9.773h-4.861V25.14a1.641,1.641,0,0,0,1.642,1.59h.323l.006.257h-5.616l0-.257h.323a1.642,1.642,0,0,0,1.642-1.571V9.773H139.9a1.53,1.53,0,0,0-1.463,1.528v.456l-.259.005V8.535A11.1,11.1,0,0,0,141.263,9Z" transform="translate(-4.941 -8.535)"/><path class="cls-1" d="M169.6,25.116a2.539,2.539,0,0,0,2.254,1.614h.213v.257H166.3v-.254h.224a1.092,1.092,0,0,0,.976-1.612l-1.642-4.367h-6.909l-1.718,4.383a1.088,1.088,0,0,0,.979,1.6h.226v.254h-5.162V26.73h.229a2.537,2.537,0,0,0,2.248-1.614l5.818-13.8a13.538,13.538,0,0,0,.949-2.642h.232Zm-4.038-5.134-3.092-8.233-3.228,8.233Z" transform="translate(-4.941 -8.535)"/><path class="cls-1" d="M187.882,25.116a2.539,2.539,0,0,0,2.254,1.614h.213v.257h-5.775v-.254h.224a1.092,1.092,0,0,0,.976-1.612l-1.642-4.367h-6.91l-1.717,4.383a1.088,1.088,0,0,0,.979,1.6h.226v.254h-5.163V26.73h.229a2.538,2.538,0,0,0,2.249-1.614l5.818-13.8a13.538,13.538,0,0,0,.949-2.642h.232Zm-4.038-5.134-3.093-8.233-3.227,8.233Z" transform="translate(-4.941 -8.535)"/><path class="cls-1" d="M210.509,9.029l0,.256h-.475a1.584,1.584,0,0,0-1.582,1.534V24.072a26.09,26.09,0,0,0,.234,3.273h-.234L194.46,12.423V25.2a1.585,1.585,0,0,0,1.583,1.534h.474l0,.257h-5.284l.005-.257h.472a1.586,1.586,0,0,0,1.585-1.552V11.849a22.238,22.238,0,0,0-.237-3.2h.253l13.971,14.917V10.84A1.585,1.585,0,0,0,205.7,9.285h-.472l0-.256Z" transform="translate(-4.941 -8.535)"/><path class="cls-1" d="M221.9,9.031c5.48,0,9.214,3.594,9.214,8.986s-3.734,8.97-9.214,8.97h-8.684l0-.257h.327a1.644,1.644,0,0,0,1.642-1.609V10.751a1.581,1.581,0,0,0-1.634-1.466h-.324l0-.256Zm-5.042,17.176H221.9c4.4,0,7.289-3.275,7.289-8.19S226.267,9.8,221.9,9.8h-5.042Z" transform="translate(-4.941 -8.535)"/><path class="cls-1" d="M246.059,22.843l-1.5,4.144H233.929l0-.257h.324a1.644,1.644,0,0,0,1.644-1.612V10.754a1.58,1.58,0,0,0-1.634-1.469h-.326l0-.256h7.5a11.119,11.119,0,0,0,3.057-.467V11.8l-.259,0v-.458A1.532,1.532,0,0,0,242.8,9.813h-5.23v7.932H241.9a1.267,1.267,0,0,0,1.243-1.265V16.1l.251,0v4.06l-.251,0v-.38a1.263,1.263,0,0,0-1.216-1.262h-4.362V26.2h3.68c2.718,0,3.761-1.407,4.554-3.359Z" transform="translate(-4.941 -8.535)"/><path class="cls-1" d="M17.06,39.836c3.108,0,5.014,1.83,5.014,4.82,0,2.483-1.892,4.893-4.359,4.893a6.22,6.22,0,0,1,1.836,1.8s2.211,3.159,3.205,4.243c1.033,1.127,1.982,1.928,3.489,1.939v.258H24.838a5.519,5.519,0,0,1-4.476-2.248c-.291-.348-3.183-4.556-3.38-4.8-.672-.844-1.418-1.734-2.357-1.734v-.237s.585.013,1.356-.008a3.839,3.839,0,0,0,4-2.664,5.362,5.362,0,0,0,.164-1.537c-.064-2.318-1.272-3.8-3.183-3.909-1.308-.073-2.861-.008-3.193-.021V55.925a1.643,1.643,0,0,0,1.642,1.612h.327l0,.256h-5.6l.006-.256h.323a1.639,1.639,0,0,0,1.642-1.6V41.7a1.642,1.642,0,0,0-1.642-1.612h-.326l0-.256Z" transform="translate(-4.941 -8.535)"/><path class="cls-1" d="M39.649,53.65l-1.5,4.143H27.52l0-.256h.323a1.644,1.644,0,0,0,1.645-1.612V41.561a1.581,1.581,0,0,0-1.634-1.469h-.326l0-.256h7.5a11.119,11.119,0,0,0,3.057-.467v3.238l-.259,0v-.458a1.532,1.532,0,0,0-1.437-1.526h-5.23v7.932h4.335a1.268,1.268,0,0,0,1.243-1.265V46.91l.251,0v4.06l-.251,0v-.381a1.263,1.263,0,0,0-1.216-1.261H31.157v7.686h3.68c2.718,0,3.761-1.407,4.554-3.359Z" transform="translate(-4.941 -8.535)"/><path class="cls-1" d="M59.015,50.307,58.7,54.332a7.938,7.938,0,0,1-7.209,3.823c-5.365-.027-9.161-3.7-9.161-9.366,0-5.565,3.669-9.312,9.312-9.312a10.947,10.947,0,0,1,6.068,1.734l.518,3.623h-.213c-.779-3-3.294-4.586-6.379-4.589-4.51,0-7.381,3.413-7.381,8.517,0,5.157,2.922,8.519,7.236,8.622,3.642-.011,6.726-1.823,7.309-7.077Z" transform="translate(-4.941 -8.535)"/><path class="cls-1" d="M68.761,39.836c3.108,0,5.014,1.83,5.014,4.82,0,2.483-1.893,4.893-4.359,4.893a6.22,6.22,0,0,1,1.836,1.8s2.21,3.159,3.2,4.243c1.033,1.127,1.982,1.928,3.489,1.939v.258H76.538a5.517,5.517,0,0,1-4.475-2.248c-.291-.348-3.184-4.556-3.381-4.8-.671-.844-1.418-1.734-2.356-1.734v-.237s.585.013,1.356-.008a3.839,3.839,0,0,0,4-2.664,5.362,5.362,0,0,0,.164-1.537c-.065-2.318-1.272-3.8-3.184-3.909-1.307-.073-2.86-.008-3.192-.021V55.925a1.641,1.641,0,0,0,1.642,1.612h.326l0,.256h-5.6l0-.256h.324a1.64,1.64,0,0,0,1.642-1.6V41.7a1.642,1.642,0,0,0-1.642-1.612h-.326l0-.256Z" transform="translate(-4.941 -8.535)"/><path class="cls-1" d="M91.353,53.65l-1.5,4.143H79.224l0-.256h.324a1.643,1.643,0,0,0,1.644-1.612V41.561a1.58,1.58,0,0,0-1.633-1.469h-.327l0-.256h7.5a11.112,11.112,0,0,0,3.057-.467v3.238l-.258,0v-.458a1.533,1.533,0,0,0-1.437-1.526H82.86v7.932H87.2a1.268,1.268,0,0,0,1.242-1.265V46.91l.251,0v4.06l-.251,0v-.381a1.262,1.262,0,0,0-1.215-1.261H82.86v7.686h3.68c2.718,0,3.761-1.407,4.554-3.359Z" transform="translate(-4.941 -8.535)"/><path class="cls-1" d="M108.572,55.922a2.538,2.538,0,0,0,2.254,1.615h.213v.256h-5.775V57.54h.224a1.092,1.092,0,0,0,.976-1.612l-1.642-4.368h-6.91L96.2,55.944a1.089,1.089,0,0,0,.978,1.6H97.4v.253H92.237v-.256h.229a2.537,2.537,0,0,0,2.249-1.615l5.818-13.8a13.563,13.563,0,0,0,.949-2.642h.231Zm-4.039-5.133-3.092-8.233-3.227,8.233Z" transform="translate(-4.941 -8.535)"/><path class="cls-1" d="M123.036,39.811a11.062,11.062,0,0,0,3.089-.469v3.227l-.256-.005v-.456a1.53,1.53,0,0,0-1.464-1.528h-4.86V55.944a1.642,1.642,0,0,0,1.641,1.593h.324l0,.256H115.9l0-.256h.324a1.642,1.642,0,0,0,1.642-1.571V40.58H113a1.531,1.531,0,0,0-1.464,1.528v.456l-.259.005V39.342a11.115,11.115,0,0,0,3.09.469Z" transform="translate(-4.941 -8.535)"/><path class="cls-1" d="M133.787,57.793h-5.613l0-.256h.326a1.642,1.642,0,0,0,1.642-1.615V41.693a1.642,1.642,0,0,0-1.642-1.6h-.323l-.006-.256h5.613l0,.256h-.323a1.648,1.648,0,0,0-1.645,1.6V55.922a1.647,1.647,0,0,0,1.645,1.615h.323Z" transform="translate(-4.941 -8.535)"/><path class="cls-1" d="M148.985,53.65l-1.5,4.143H136.855l0-.256h.324a1.644,1.644,0,0,0,1.644-1.612V41.561a1.58,1.58,0,0,0-1.634-1.469h-.326l0-.256h7.5a11.119,11.119,0,0,0,3.057-.467v3.238l-.259,0v-.458a1.532,1.532,0,0,0-1.437-1.526h-5.23v7.932h4.335a1.268,1.268,0,0,0,1.243-1.265V46.91l.251,0v4.06l-.251,0v-.381a1.263,1.263,0,0,0-1.216-1.261h-4.362v7.686h3.68c2.718,0,3.761-1.407,4.554-3.359Z" transform="translate(-4.941 -8.535)"/><path class="cls-1" d="M169.369,39.833v.259h-.227A2.526,2.526,0,0,0,166.9,41.68l-6.169,13.83a13.545,13.545,0,0,0-.951,2.642h-.23L152.336,41.7a2.525,2.525,0,0,0-2.262-1.607h-.205v-.259h5.775v.256h-.224a1.081,1.081,0,0,0-.971,1.6l5.376,13.442,5.581-13.44a1.084,1.084,0,0,0-.976-1.6h-.224v-.256Z" transform="translate(-4.941 -8.535)"/><path class="cls-1" d="M176.273,57.793H170.66l0-.256h.326a1.642,1.642,0,0,0,1.642-1.615V41.693a1.643,1.643,0,0,0-1.642-1.6h-.323l-.006-.256h5.613l0,.256h-.324a1.647,1.647,0,0,0-1.644,1.6V55.922a1.646,1.646,0,0,0,1.644,1.615h.324Z" transform="translate(-4.941 -8.535)"/><path class="cls-1" d="M191.468,53.65l-1.5,4.143H179.336l0-.256h.324a1.642,1.642,0,0,0,1.642-1.612V41.707a1.643,1.643,0,0,0-1.642-1.613h-.324l0-.256h5.613l-.005.256h-.324a1.647,1.647,0,0,0-1.645,1.613v15.3h3.68c2.718,0,3.764-1.407,4.554-3.359Z" transform="translate(-4.941 -8.535)"/><path class="cls-1" d="M205.9,53.65l-1.5,4.143H193.765l.005-.256h.324a1.641,1.641,0,0,0,1.641-1.612V41.707a1.642,1.642,0,0,0-1.641-1.613h-.324l-.005-.256h5.613l-.006.256h-.323a1.647,1.647,0,0,0-1.645,1.613v15.3h3.68c2.718,0,3.764-1.407,4.554-3.359Z" transform="translate(-4.941 -8.535)"/><path class="cls-1" d="M222.73,55.922a2.538,2.538,0,0,0,2.254,1.615h.213v.256h-5.775V57.54h.224a1.092,1.092,0,0,0,.976-1.612L218.98,51.56h-6.91l-1.717,4.384a1.089,1.089,0,0,0,.979,1.6h.226v.253H206.4v-.256h.23a2.537,2.537,0,0,0,2.248-1.615l5.818-13.8a13.563,13.563,0,0,0,.949-2.642h.232Zm-4.038-5.133L215.6,42.556l-3.227,8.233Z" transform="translate(-4.941 -8.535)"/><path class="cls-1" d="M226.084,42.246a1.461,1.461,0,0,0,.874-2.381c-.337-.4-.885-.854-.594-1.515a1.113,1.113,0,0,1,2.028.245,2.684,2.684,0,0,1-2.243,3.864Z" transform="translate(-4.941 -8.535)"/><path class="cls-1" d="M239.216,50.229a4.052,4.052,0,0,1,1.289,3.127,4.522,4.522,0,0,1-4.8,4.8c-1.259,0-3.335-.359-4.344-1.4a7.844,7.844,0,0,1,.3-3.575h.224c-.256,2.642,1.418,4.335,3.7,4.209a3.427,3.427,0,0,0,3.44-3.438,3.131,3.131,0,0,0-1.009-2.391l-4.914-4.564a4.337,4.337,0,0,1,3.119-7.514,11.157,11.157,0,0,1,2.2.262h1.016v3.148h-.245a2.656,2.656,0,0,0-2.888-2.642,3.009,3.009,0,0,0-3.154,2.952,3.226,3.226,0,0,0,1.033,2.365Z" transform="translate(-4.941 -8.535)"/></svg>