<svg id="Laag_1" data-name="Laag 1" xmlns="http://www.w3.org/2000/svg" viewBox="0 0 26.262 26.26"><defs><style>.cls-1{fill:#b7b09d;stroke:#fff;stroke-miterlimit:10;stroke-width:0.259px;}</style></defs><path class="cls-1" d="M31.211,16.918a2.489,2.489,0,0,0-2.487-2.486H8.264V4.271a1.824,1.824,0,0,1,1.822-1.823h1.67a.989.989,0,0,1,.739.332l.764.862a3.387,3.387,0,0,0-.07.688v1a.761.761,0,0,0,.254,1.479h6.3A.761.761,0,0,0,20,5.329v-1a3.4,3.4,0,0,0-6.022-2.175l-.341-.385A2.513,2.513,0,0,0,11.756.925h-1.67A3.35,3.35,0,0,0,6.74,4.271V14.534a.846.846,0,0,0,0,.087,2.486,2.486,0,0,0,0,4.593V20.59a4.95,4.95,0,0,0,4.945,4.945h.435v.628a.762.762,0,0,0,1.524,0v-.628h9.131v.628a.762.762,0,1,0,1.523,0v-.628h.436a4.951,4.951,0,0,0,4.945-4.945V19.214a2.492,2.492,0,0,0,1.532-2.3ZM16.594,2.448A1.884,1.884,0,0,1,18.475,4.33v.954H14.712V4.33A1.884,1.884,0,0,1,16.594,2.448Zm8.14,21.564H11.685A3.425,3.425,0,0,1,8.264,20.59V19.4H28.155V20.59a3.426,3.426,0,0,1-3.421,3.422Zm3.99-6.131H7.694a.963.963,0,0,1,0-1.926h21.03a.963.963,0,1,1,0,1.926Z" transform="translate(-5.078 -0.795)"/><path class="cls-1" d="M20.283,12a.761.761,0,1,0-.455.852A.77.77,0,0,0,20.283,12Z" transform="translate(-5.078 -0.795)"/><path class="cls-1" d="M17.236,12a.761.761,0,1,0-.455.852A.769.769,0,0,0,17.236,12Z" transform="translate(-5.078 -0.795)"/><path class="cls-1" d="M14.189,12a.761.761,0,1,0-.455.852A.769.769,0,0,0,14.189,12Z" transform="translate(-5.078 -0.795)"/><path class="cls-1" d="M20.294,9.031a.761.761,0,1,0-.536.8A.767.767,0,0,0,20.294,9.031Z" transform="translate(-5.078 -0.795)"/><path class="cls-1" d="M17.248,9.031a.761.761,0,1,0-.537.8.768.768,0,0,0,.537-.8Z" transform="translate(-5.078 -0.795)"/><path class="cls-1" d="M14.2,9.031a.761.761,0,1,0-.537.8.768.768,0,0,0,.537-.8Z" transform="translate(-5.078 -0.795)"/></svg>