<?xml version="1.0" encoding="utf-8"?>
<!-- Generator: Adobe Illustrator 26.2.0, SVG Export Plug-In . SVG Version: 6.00 Build 0)  -->
<svg version="1.1" id="Laag_1" xmlns="http://www.w3.org/2000/svg" xmlns:xlink="http://www.w3.org/1999/xlink" x="0px" y="0px"
	 viewBox="0 0 626.1 718.9" style="enable-background:new 0 0 626.1 718.9;" xml:space="preserve">
<style type="text/css">
	.st0{fill:#F6F5F6;}
</style>
<g>
	<path class="st0" d="M597.4,200.8c-19.1-45-47.3-83.3-83.7-113.5C477.3,57,432.1,34,379.4,19c-36-10.3-73.3-16.3-110.7-17.7
		C255.8,0.5,242.9,0,230.6,0H0v715.6v0.3v3h199.1c67.1,0,127.8-7.8,180.3-23.2c52.7-15.4,97.9-38.6,134.3-68.8
		c36.4-30.3,64.6-68.5,83.7-113.6c19-44.9,28.7-97.5,28.7-156.3C626.1,298.4,616.4,245.8,597.4,200.8 M10.4,10.4h214.9v344.5H10.4
		V10.4z M225.4,365.3v342.8c-9.3,0.3-17.9,0.4-26.2,0.4H10.4V365.3H225.4z M235.8,354.9V208.7h4.3c28,0,48.2,6.4,60.2,19
		c12,12.7,18.1,30.9,18.1,54.1s-6.1,41.4-18.1,54.1c-12,12.6-32.2,19-60.2,19L235.8,354.9L235.8,354.9z M307.8,343
		c13.9-14.7,21-35.3,21-61.2c0-25.4-6.8-45.8-20.2-60.4c15.6,6.4,29.4,14.5,40.8,24.3c27.4,23.4,41.5,60.1,41.9,109.1h-99.7
		C298.1,351.6,303.5,347.6,307.8,343 M524.2,395.9c-16.5,33.3-39.2,60.6-67.7,81.1c-28.6,20.7-62.5,36.1-100.8,45.7
		c-36.9,9.3-77.2,14.2-119.9,14.6v-21.4c51.4-1.1,91.9-14.2,120.5-39c30.2-26.2,45.6-66.5,45.6-119.8s-15.3-93.4-45.6-119.3
		c-14.3-12.2-31.8-21.7-52.1-28.1l0,0l-1.4-0.5c-13.2-4.4-26.7-7.6-40.2-9.4c-0.6-0.1-1.1-0.1-1.7-0.2c-0.3,0-0.7-0.1-1-0.1
		c-2.4-0.3-4.7-0.5-6.8-0.7l-0.9-0.1c-0.6-0.1-1.3-0.1-1.9-0.1c-6.2-0.4-10.8-0.4-12.9-0.3h-1.6V10.5c42.7,0.4,83,5.3,119.9,14.6
		C394,34.8,428,50.2,456.5,70.8c28.4,20.6,51.2,47.9,67.7,81.1c16.5,33.3,24.9,74.4,24.9,122C549.1,321.5,540.7,362.6,524.2,395.9
		 M349.5,469c-26.8,23.2-65,35.5-113.7,36.5V365.3h155.4C389.7,411.5,375.6,446.4,349.5,469 M235.8,707.7V547.8
		c43.4-0.4,84.6-5.4,122.5-14.9c39.6-10,74.7-25.9,104.4-47.4c29.8-21.6,53.7-50.2,70.9-84.9c17.2-34.8,25.9-77.4,25.9-126.6
		s-8.7-91.8-25.9-126.6c-14.6-29.5-34.1-54.6-58-74.8c11.5,7.3,22.1,14.9,31.5,22.8c35.1,29.2,62.3,66.1,80.7,109.6
		c18.5,43.7,27.9,94.9,27.9,152.3s-9.4,108.6-27.9,152.3c-18.4,43.5-45.6,80.4-80.7,109.6c-35.3,29.3-79.2,51.8-130.5,66.8
		C335,698,287.7,705.3,235.8,707.7"/>
</g>
</svg>
