<?xml version="1.0" encoding="utf-8"?>
<!-- Generator: Adobe Illustrator 24.2.1, SVG Export Plug-In . SVG Version: 6.00 Build 0)  -->
<svg version="1.1" id="Laag_1" xmlns="http://www.w3.org/2000/svg" xmlns:xlink="http://www.w3.org/1999/xlink" x="0px" y="0px"
	 viewBox="0 0 99.2 113.9" style="enable-background:new 0 0 99.2 113.9;" xml:space="preserve">
<style type="text/css">
	.st0{fill:#EDEAE7;}
</style>
<g>
	<path class="st0" d="M94.7,31.8c-3-7.1-7.5-13.2-13.3-18C75.6,9,68.5,5.4,60.1,3c-5.7-1.6-11.6-2.6-17.6-2.8
		c-2.1-0.1-4.1-0.2-6-0.2H0v113.4l0,0.1l0,0.5h31.6c10.6,0,20.3-1.2,28.6-3.7c8.4-2.4,15.5-6.1,21.3-10.9c5.8-4.8,10.2-10.9,13.3-18
		c3-7.1,4.5-15.5,4.5-24.8C99.2,47.3,97.7,38.9,94.7,31.8 M1.6,1.6h34.1v54.6H1.6V1.6z M35.7,57.9v54.3c-1.5,0-2.8,0.1-4.2,0.1H1.6
		V57.9H35.7z M37.4,56.2V33.1H38c4.4,0,7.6,1,9.5,3c1.9,2,2.9,4.9,2.9,8.6c0,3.7-1,6.6-2.9,8.6c-1.9,2-5.1,3-9.5,3H37.4z M48.8,54.4
		c2.2-2.3,3.3-5.6,3.3-9.7c0-4-1.1-7.2-3.2-9.6c2.5,1,4.7,2.3,6.5,3.9c4.3,3.7,6.6,9.5,6.6,17.3H46.2C47.2,55.7,48.1,55.1,48.8,54.4
		 M83.1,62.7c-2.6,5.3-6.2,9.6-10.7,12.9c-4.5,3.3-9.9,5.7-16,7.2c-5.8,1.5-12.2,2.3-19,2.3v-3.4c8.1-0.2,14.6-2.2,19.1-6.2
		c4.8-4.1,7.2-10.5,7.2-19c0-8.4-2.4-14.8-7.2-18.9c-2.3-1.9-5-3.4-8.3-4.5h0L48,33.2c-2.1-0.7-4.2-1.2-6.4-1.5c-0.1,0-0.2,0-0.3,0
		c-0.1,0-0.1,0-0.2,0c-0.4,0-0.7-0.1-1.1-0.1l-0.1,0c-0.1,0-0.2,0-0.3,0c-1-0.1-1.7-0.1-2,0h-0.2V1.7c6.8,0.1,13.2,0.8,19,2.3
		c6.1,1.5,11.5,4,16,7.2c4.5,3.3,8.1,7.6,10.7,12.9c2.6,5.3,3.9,11.8,3.9,19.3C87,51,85.7,57.5,83.1,62.7 M55.4,74.3
		c-4.2,3.7-10.3,5.6-18,5.8V57.9H62C61.7,65.2,59.5,70.7,55.4,74.3 M37.4,112.1V86.8c6.9-0.1,13.4-0.9,19.4-2.4
		c6.3-1.6,11.8-4.1,16.5-7.5c4.7-3.4,8.5-7.9,11.2-13.5c2.7-5.5,4.1-12.3,4.1-20.1c0-7.8-1.4-14.6-4.1-20.1
		c-2.3-4.7-5.4-8.7-9.2-11.9c1.8,1.2,3.5,2.4,5,3.6c5.6,4.6,9.9,10.5,12.8,17.4c2.9,6.9,4.4,15,4.4,24.1c0,9.1-1.5,17.2-4.4,24.1
		c-2.9,6.9-7.2,12.7-12.8,17.4c-5.6,4.6-12.5,8.2-20.7,10.6C53.1,110.6,45.6,111.8,37.4,112.1"/>
</g>
</svg>
