<?xml version="1.0" encoding="utf-8"?>
<!-- Generator: Adobe Illustrator 26.0.2, SVG Export Plug-In . SVG Version: 6.00 Build 0)  -->
<svg version="1.1" id="Laag_1" xmlns="http://www.w3.org/2000/svg" xmlns:xlink="http://www.w3.org/1999/xlink" x="0px" y="0px"
	 viewBox="0 0 192.6 35.6" style="enable-background:new 0 0 192.6 35.6;" xml:space="preserve">
<style type="text/css">
	.st0{fill:#276C81;}
	.st1{fill:#F8A330;}
	.st2{fill:#FFFFFF;}
	.st3{fill:#9CB6C8;}
	.st4{fill:#9CB6C7;}
	.st5{fill:#6690A7;}
	.st6{fill:#6691A7;}
	.st7{fill:#6A99B5;}
	.st8{fill:#5088A4;}
	.st9{fill:#4C8098;}
	.st10{fill:#4F8299;}
	.st11{fill:#4F87A2;}
	.st12{fill:#5088A2;}
	.st13{fill:#3F7E99;}
	.st14{fill:#407E99;}
	.st15{fill:#3E7890;}
	.st16{fill:#357790;}
	.st17{fill:none;}
</style>
<g>
	<path class="st0" d="M6.5,24.5H4.8V32c0,1-0.2,1.7-0.7,2.2c-0.4,0.5-1,0.7-1.7,0.7c-0.8,0-1.3-0.2-1.8-0.7C0.2,33.7,0,33,0,32V14
		c0-1,0.2-1.8,0.7-2.2c0.5-0.5,1.2-0.7,2.2-0.7h7.7c1.1,0,2,0,2.7,0.1c0.8,0.1,1.4,0.3,2,0.5c0.7,0.3,1.4,0.7,1.9,1.3
		c0.6,0.6,1,1.2,1.3,2s0.4,1.6,0.4,2.4c0,1.7-0.5,3.1-1.5,4.2c-1,1-2.5,1.8-4.5,2.2c0.8,0.4,1.6,1.1,2.4,2c0.8,0.9,1.4,1.8,2,2.8
		s1.1,1.9,1.4,2.7c0.3,0.8,0.5,1.3,0.5,1.6s-0.1,0.6-0.3,0.9c-0.2,0.3-0.5,0.5-0.8,0.7s-0.7,0.3-1.2,0.3s-1-0.1-1.3-0.4
		c-0.4-0.2-0.7-0.6-0.9-0.9c-0.3-0.4-0.6-0.9-1.1-1.7l-1.5-3.1c-0.7-1.2-1.3-2-1.8-2.6s-1.1-1-1.6-1.2C8.1,24.6,7.4,24.5,6.5,24.5
		 M9.2,14.7H4.8v6.4H9c1.1,0,2.1-0.1,2.9-0.3c0.8-0.2,1.4-0.5,1.8-1c0.4-0.5,0.6-1.1,0.6-2c0-0.6-0.2-1.2-0.5-1.7S13,15.2,12.4,15
		C11.9,14.8,10.9,14.7,9.2,14.7"/>
	<path class="st0" d="M34,27.1h-8.5c0,1,0.2,1.9,0.6,2.6c0.4,0.8,0.9,1.3,1.5,1.7s1.3,0.6,2.1,0.6c0.5,0,1-0.1,1.4-0.2
		c0.4-0.1,0.8-0.3,1.2-0.6c0.4-0.3,0.8-0.5,1.1-0.8c0.3-0.3,0.8-0.7,1.3-1.2c0.2-0.2,0.5-0.3,1-0.3c0.4,0,0.8,0.1,1.1,0.4
		c0.3,0.2,0.4,0.6,0.4,1s-0.2,0.9-0.5,1.4c-0.3,0.5-0.8,1-1.4,1.5c-0.6,0.5-1.4,0.9-2.3,1.2c-0.9,0.3-2,0.5-3.2,0.5
		c-2.8,0-5-0.8-6.5-2.4C21.8,30.9,21,28.7,21,26c0-1.3,0.2-2.5,0.6-3.6c0.4-1.1,0.9-2,1.7-2.8c0.7-0.8,1.6-1.4,2.7-1.8
		c1.1-0.4,2.3-0.6,3.6-0.6c1.7,0,3.2,0.4,4.4,1.1c1.2,0.7,2.1,1.6,2.7,2.8c0.6,1.1,0.9,2.3,0.9,3.5c0,1.1-0.3,1.8-0.9,2.1
		C36,27,35.1,27.1,34,27.1 M25.5,24.6h7.9c-0.1-1.5-0.5-2.6-1.2-3.3c-0.7-0.7-1.6-1.1-2.7-1.1c-1.1,0-2,0.4-2.7,1.1
		C26.1,22.1,25.6,23.2,25.5,24.6"/>
	<path class="st0" d="M54.6,29.2c0,1.2-0.3,2.2-0.9,3.1c-0.6,0.9-1.4,1.5-2.6,1.9c-1.1,0.4-2.5,0.7-4.2,0.7c-1.6,0-2.9-0.2-4-0.7
		s-1.9-1.1-2.5-1.8c-0.5-0.7-0.8-1.4-0.8-2.2c0-0.5,0.2-0.9,0.5-1.2c0.3-0.3,0.8-0.5,1.3-0.5s0.8,0.1,1,0.3s0.5,0.5,0.7,0.9
		c0.4,0.8,1,1.3,1.6,1.7s1.5,0.6,2.5,0.6c0.9,0,1.6-0.2,2.1-0.6c0.6-0.4,0.8-0.8,0.8-1.3c0-0.8-0.3-1.3-0.9-1.7s-1.5-0.7-2.9-1
		c-1.5-0.4-2.7-0.8-3.7-1.2c-0.9-0.4-1.7-0.9-2.3-1.6c-0.6-0.7-0.8-1.5-0.8-2.5c0-0.9,0.3-1.7,0.8-2.5s1.3-1.4,2.3-1.9
		s2.2-0.7,3.7-0.7c1.1,0,2.1,0.1,3,0.4c0.9,0.2,1.6,0.5,2.2,0.9s1.1,0.8,1.4,1.3s0.5,0.9,0.5,1.4s-0.2,0.9-0.5,1.2s-0.8,0.5-1.4,0.5
		c-0.4,0-0.8-0.1-1.1-0.4c-0.3-0.3-0.7-0.6-1.1-1.1c-0.3-0.4-0.7-0.8-1.2-1c-0.4-0.3-1.1-0.4-1.8-0.4c-0.8,0-1.4,0.2-2,0.5
		c-0.5,0.3-0.8,0.8-0.8,1.2c0,0.5,0.2,0.8,0.6,1.1s0.9,0.5,1.5,0.7s1.5,0.4,2.7,0.7c1.3,0.3,2.4,0.7,3.3,1.2s1.5,1,1.9,1.6
		C54.4,27.7,54.6,28.4,54.6,29.2"/>
	<path class="st0" d="M73.9,26c0,1.3-0.2,2.5-0.6,3.6s-1,2-1.8,2.8s-1.7,1.4-2.7,1.8s-2.3,0.6-3.6,0.6c-1.3,0-2.5-0.2-3.6-0.6
		c-1-0.4-2-1-2.7-1.8c-0.8-0.8-1.4-1.7-1.8-2.8s-0.6-2.3-0.6-3.6s0.2-2.5,0.6-3.6s1-2,1.7-2.8c0.8-0.8,1.7-1.4,2.7-1.8
		c1.1-0.4,2.3-0.6,3.6-0.6c1.3,0,2.5,0.2,3.6,0.6c1.1,0.4,2,1,2.8,1.8s1.3,1.7,1.7,2.8C73.7,23.5,73.9,24.7,73.9,26 M69.5,26
		c0-1.8-0.4-3.2-1.2-4.1c-0.8-1-1.8-1.5-3.1-1.5c-0.8,0-1.6,0.2-2.2,0.7c-0.6,0.4-1.1,1.1-1.5,1.9c-0.3,0.9-0.5,1.9-0.5,3
		s0.2,2.1,0.5,3c0.3,0.8,0.8,1.5,1.5,2c0.6,0.4,1.4,0.7,2.3,0.7c1.3,0,2.4-0.5,3.1-1.5C69.1,29.2,69.5,27.8,69.5,26"/>
	<path class="st0" d="M80.7,28.6v3.6c0,0.9-0.2,1.5-0.6,2c-0.4,0.4-0.9,0.7-1.6,0.7c-0.6,0-1.1-0.2-1.5-0.7c-0.4-0.4-0.6-1.1-0.6-2
		V20.1c0-2,0.7-2.9,2.1-2.9c0.7,0,1.2,0.2,1.6,0.7c0.3,0.5,0.5,1.1,0.5,2c0.5-0.9,1.1-1.6,1.6-2c0.5-0.5,1.3-0.7,2.2-0.7
		c0.9,0,1.8,0.2,2.7,0.7c0.9,0.5,1.3,1.1,1.3,1.8c0,0.5-0.2,1-0.5,1.3c-0.4,0.3-0.8,0.5-1.2,0.5c-0.2,0-0.5-0.1-1.2-0.3
		c-0.6-0.2-1.2-0.3-1.6-0.3c-0.6,0-1.2,0.2-1.6,0.5s-0.7,0.8-0.9,1.5c-0.2,0.7-0.4,1.4-0.5,2.3C80.7,26.2,80.7,27.3,80.7,28.6"/>
	<path class="st0" d="M90.9,17.6h0.5V15c0-0.7,0-1.3,0.1-1.6c0-0.4,0.1-0.7,0.3-1c0.2-0.3,0.4-0.5,0.7-0.7c0.3-0.2,0.7-0.3,1.1-0.3
		c0.6,0,1.1,0.2,1.5,0.6c0.3,0.3,0.5,0.6,0.6,1s0.1,1,0.1,1.7v3h1.6c0.6,0,1.1,0.1,1.4,0.4c0.3,0.3,0.5,0.7,0.5,1.1
		c0,0.6-0.2,1-0.7,1.2s-1.1,0.4-2,0.4h-0.8v8c0,0.7,0,1.2,0.1,1.6c0,0.4,0.2,0.7,0.4,0.9c0.2,0.2,0.5,0.3,1,0.3c0.3,0,0.6,0,1-0.1
		s0.8-0.1,1-0.1c0.4,0,0.7,0.1,0.9,0.4c0.3,0.3,0.4,0.6,0.4,1c0,0.7-0.4,1.2-1.1,1.6c-0.8,0.4-1.9,0.6-3.3,0.6s-2.4-0.2-3.1-0.7
		s-1.2-1.1-1.4-1.9c-0.2-0.8-0.3-1.9-0.3-3.2v-8.5h-0.6c-0.6,0-1.1-0.1-1.4-0.4c-0.3-0.3-0.5-0.7-0.5-1.1c0-0.5,0.2-0.8,0.5-1.1
		C89.7,17.7,90.2,17.6,90.9,17.6"/>
	<path class="st1" d="M109.2,15l8.5,12.9v-13c0-0.9,0.2-1.5,0.5-1.9c0.4-0.4,0.9-0.6,1.5-0.6s1.1,0.2,1.5,0.6s0.5,1.1,0.5,1.9v17.2
		c0,1.9-0.8,2.9-2.4,2.9c-0.4,0-0.8-0.1-1.1-0.2c-0.3-0.1-0.6-0.3-0.9-0.5c-0.3-0.2-0.5-0.5-0.8-0.9c-0.2-0.3-0.5-0.7-0.7-1
		l-8.3-12.8v12.8c0,0.8-0.2,1.5-0.6,1.9c-0.4,0.4-0.9,0.6-1.5,0.6s-1.1-0.2-1.5-0.7c-0.4-0.4-0.6-1.1-0.6-1.9V15.5
		c0-0.7,0.1-1.3,0.2-1.7c0.2-0.4,0.5-0.8,0.9-1.1c0.4-0.3,0.9-0.4,1.4-0.4c0.4,0,0.7,0.1,1,0.2s0.5,0.3,0.8,0.5
		c0.2,0.2,0.4,0.5,0.7,0.8C108.7,14.2,108.9,14.6,109.2,15"/>
	<path class="st1" d="M137.3,27.7h-8c0,0.9,0.2,1.7,0.6,2.5c0.4,0.7,0.8,1.2,1.5,1.6c0.6,0.4,1.3,0.5,2,0.5c0.5,0,0.9-0.1,1.3-0.2
		c0.4-0.1,0.8-0.3,1.2-0.5s0.7-0.5,1-0.8s0.7-0.7,1.2-1.1c0.2-0.2,0.5-0.3,0.9-0.3s0.8,0.1,1,0.3c0.3,0.2,0.4,0.6,0.4,1
		s-0.1,0.8-0.4,1.3c-0.3,0.5-0.7,1-1.3,1.4c-0.6,0.5-1.3,0.8-2.2,1.1s-1.9,0.4-3,0.4c-2.6,0-4.7-0.7-6.1-2.2
		c-1.4-1.5-2.2-3.5-2.2-6.1c0-1.2,0.2-2.3,0.5-3.4c0.4-1,0.9-1.9,1.6-2.6c0.7-0.7,1.5-1.3,2.5-1.7s2.1-0.6,3.4-0.6
		c1.6,0,3,0.3,4.1,1s2,1.5,2.6,2.6s0.9,2.1,0.9,3.2c0,1-0.3,1.7-0.9,2C139.2,27.5,138.4,27.7,137.3,27.7 M129.3,25.4h7.4
		c-0.1-1.4-0.5-2.4-1.1-3.1c-0.6-0.7-1.5-1-2.6-1c-1,0-1.9,0.3-2.5,1.1C129.8,22.9,129.4,24,129.3,25.4"/>
	<path class="st1" d="M144.3,18.7h0.4v-2.5c0-0.7,0-1.2,0-1.5c0-0.4,0.1-0.7,0.3-1s0.4-0.5,0.7-0.7s0.6-0.3,1-0.3
		c0.5,0,1,0.2,1.4,0.6c0.3,0.3,0.5,0.6,0.5,0.9c0.1,0.4,0.1,0.9,0.1,1.6v2.9h1.5c0.6,0,1,0.1,1.3,0.4c0.3,0.3,0.5,0.6,0.5,1
		c0,0.6-0.2,0.9-0.6,1.2c-0.4,0.2-1,0.3-1.9,0.3h-0.8v7.5c0,0.6,0,1.1,0.1,1.5c0,0.3,0.2,0.6,0.4,0.8s0.5,0.3,0.9,0.3
		c0.2,0,0.6,0,1-0.1s0.7-0.1,1-0.1s0.6,0.1,0.9,0.4c0.3,0.3,0.4,0.6,0.4,1c0,0.7-0.4,1.2-1.1,1.5c-0.7,0.4-1.7,0.5-3.1,0.5
		c-1.3,0-2.3-0.2-2.9-0.6c-0.7-0.4-1.1-1-1.3-1.8s-0.3-1.8-0.3-3v-7.8h-0.5c-0.6,0-1-0.1-1.3-0.4c-0.3-0.3-0.5-0.6-0.5-1.1
		c0-0.4,0.2-0.8,0.5-1C143.2,18.9,143.7,18.7,144.3,18.7"/>
</g>
<path class="st2" d="M185.7,22.5c-0.1,0.1-0.1,0.3-0.2,0.4C185.5,22.8,185.6,22.7,185.7,22.5"/>
<path class="st2" d="M184.9,23.9c0,0.1-0.1,0.1-0.1,0.2C184.8,24.1,184.8,24,184.9,23.9"/>
<path class="st2" d="M186.2,21.3c-0.1,0.2-0.1,0.3-0.2,0.5C186.1,21.7,186.1,21.5,186.2,21.3"/>
<path class="st2" d="M184.1,24.9c-0.1,0.1-0.1,0.2-0.2,0.3C184,25.1,184.1,25,184.1,24.9"/>
<path class="st2" d="M186.9,18.9c0,0.2-0.1,0.3-0.1,0.5C186.8,19.2,186.8,19.1,186.9,18.9"/>
<path class="st2" d="M182.7,26.6c-0.2,0.2-0.4,0.4-0.5,0.5C182.3,26.9,182.5,26.8,182.7,26.6"/>
<path class="st2" d="M186.6,20.1c0,0.2-0.1,0.3-0.1,0.5C186.5,20.5,186.5,20.3,186.6,20.1"/>
<path class="st2" d="M172.5,34.2L172.5,34.2L172.5,34.2z"/>
<path class="st2" d="M187,14.7c0,0.1,0,0.2,0,0.4C187,15,187,14.8,187,14.7"/>
<path class="st2" d="M159.9,14.1c0-0.2,0-0.4,0.1-0.6C159.9,13.8,159.9,13.9,159.9,14.1"/>
<polygon class="st2" points="170.2,32.1 170.2,32.1 172.5,34.2 172.5,34.2 "/>
<path class="st2" d="M186,10.9c0.2,0.4,0.3,0.8,0.5,1.2C186.3,11.7,186.2,11.3,186,10.9"/>
<path class="st2" d="M161.1,22.4c-0.1-0.2-0.1-0.3-0.2-0.5C160.9,22.1,161,22.3,161.1,22.4"/>
<path class="st2" d="M159.8,17.8c0.1,1.2,0.4,2.4,0.8,3.5l0,0C160.1,20.2,159.9,19,159.8,17.8"/>
<path class="st2" d="M161.6,23.5c-0.1-0.1-0.1-0.2-0.2-0.4C161.5,23.3,161.6,23.4,161.6,23.5"/>
<path class="st2" d="M159.7,15.5c0-0.2,0-0.4,0-0.6C159.7,15.1,159.7,15.3,159.7,15.5"/>
<path class="st2" d="M162.3,24.5L162.3,24.5L162.3,24.5"/>
<path class="st2" d="M179.6,3.9c0.2,0.1,0.4,0.2,0.5,0.3C179.9,4.1,179.7,4,179.6,3.9"/>
<path class="st2" d="M180.6,4.5c0.2,0.1,0.3,0.2,0.5,0.3C180.9,4.7,180.7,4.6,180.6,4.5"/>
<path class="st2" d="M178.6,3.5c0.2,0.1,0.4,0.1,0.5,0.2C178.9,3.6,178.7,3.5,178.6,3.5"/>
<path class="st2" d="M177.5,3.1c0.2,0.1,0.4,0.1,0.5,0.2C177.9,3.2,177.7,3.1,177.5,3.1"/>
<path class="st2" d="M176.4,2.8c0.2,0,0.4,0.1,0.5,0.1C176.8,2.9,176.6,2.8,176.4,2.8"/>
<path class="st2" d="M175.3,2.6c0.2,0,0.4,0,0.5,0.1C175.6,2.6,175.5,2.6,175.3,2.6"/>
<path class="st2" d="M187,18c0-0.1,0-0.2,0-0.4C187,17.8,187,17.9,187,18"/>
<path class="st2" d="M185.3,9.5c0.2,0.3,0.3,0.6,0.5,0.9C185.6,10.1,185.5,9.8,185.3,9.5"/>
<path class="st2" d="M186.8,13.5c0,0.1,0,0.2,0.1,0.3C186.9,13.7,186.8,13.6,186.8,13.5"/>
<path class="st2" d="M183.2,6.7c0.3,0.4,0.7,0.7,1,1.1C183.8,7.4,183.5,7,183.2,6.7"/>
<path class="st2" d="M184.4,8.2c0.2,0.3,0.4,0.6,0.6,0.9C184.8,8.7,184.6,8.5,184.4,8.2"/>
<path class="st2" d="M173.4,2.5c-1.6,0-3.2,0.3-4.6,0.8l0,0C170.2,2.7,171.8,2.5,173.4,2.5"/>
<polygon class="st2" points="173.5,35.1 173.5,35.1 172.6,34.4 "/>
<path class="st2" d="M174.1,2.5c0.2,0,0.3,0,0.5,0C174.5,2.5,174.3,2.5,174.1,2.5"/>
<path class="st2" d="M186.5,12.3L186.5,12.3L186.5,12.3"/>
<path class="st2" d="M167.6,3.8c0.1-0.1,0.3-0.1,0.4-0.2C167.8,3.7,167.7,3.7,167.6,3.8"/>
<path class="st2" d="M165.7,4.9c0.1-0.1,0.2-0.1,0.3-0.2C165.9,4.8,165.8,4.8,165.7,4.9"/>
<path class="st2" d="M166.6,4.3c0.1-0.1,0.2-0.1,0.3-0.2C166.8,4.2,166.7,4.2,166.6,4.3"/>
<path class="st3" d="M183.2,6.7l-0.1-0.1c-0.4-0.4-0.7-0.7-1.1-1c0.4,0.3,0.7,0.6,1.1,1C183.1,6.6,183.1,6.6,183.2,6.7"/>
<polyline class="st3" points="185.8,10.4 185.8,10.4 185.8,10.4 "/>
<path class="st3" d="M184.4,8.2L184.4,8.2c-0.1-0.1-0.2-0.3-0.3-0.4l0,0C184.2,7.9,184.3,8,184.4,8.2"/>
<path class="st3" d="M185.3,9.5L185.3,9.5c-0.1-0.2-0.2-0.3-0.3-0.5l0,0C185.1,9.2,185.2,9.3,185.3,9.5"/>
<path class="st3" d="M185,9L185,9c-0.2-0.3-0.4-0.6-0.6-0.9l0,0C184.6,8.4,184.8,8.7,185,9"/>
<path class="st3" d="M185.8,10.4L185.8,10.4c-0.1-0.3-0.3-0.6-0.5-0.9l0,0C185.5,9.8,185.6,10.1,185.8,10.4"/>
<path class="st3" d="M184.1,7.8L184.1,7.8c-0.3-0.4-0.6-0.7-1-1.1L183,6.6C183.5,7,183.8,7.4,184.1,7.8"/>
<path class="st4" d="M186.5,12.2L186.5,12.2c0-0.1,0-0.1-0.1-0.2C186.5,12.1,186.5,12.2,186.5,12.2"/>
<path class="st4" d="M186,10.9c-0.1-0.1-0.1-0.3-0.2-0.4l0,0C185.9,10.6,185.9,10.7,186,10.9"/>
<path class="st4" d="M184.4,8.2c-0.1-0.1-0.2-0.3-0.3-0.4C184.2,7.9,184.3,8,184.4,8.2"/>
<path class="st4" d="M174.6,2.5c0.2,0,0.4,0,0.6,0.1C175.1,2.6,174.9,2.5,174.6,2.5"/>
<path class="st4" d="M185.3,9.5c-0.1-0.2-0.2-0.3-0.3-0.5C185.1,9.2,185.2,9.3,185.3,9.5"/>
<path class="st4" d="M168.8,3.2c-0.2,0.1-0.4,0.1-0.6,0.2l0,0C168.4,3.4,168.6,3.3,168.8,3.2"/>
<path class="st4" d="M175.8,2.7c0.2,0,0.4,0.1,0.6,0.1C176.2,2.8,176,2.7,175.8,2.7"/>
<path class="st4" d="M181.1,4.8c0.3,0.2,0.6,0.5,0.9,0.7C181.7,5.3,181.4,5.1,181.1,4.8"/>
<path class="st4" d="M179.1,3.7c0.2,0.1,0.3,0.2,0.5,0.3C179.4,3.9,179.2,3.8,179.1,3.7"/>
<path class="st4" d="M178,3.3c0.2,0.1,0.4,0.1,0.5,0.2C178.4,3.4,178.2,3.3,178,3.3"/>
<path class="st4" d="M180.1,4.2c0.2,0.1,0.3,0.2,0.5,0.3C180.4,4.4,180.3,4.3,180.1,4.2"/>
<path class="st4" d="M176.9,2.9c0.2,0.1,0.4,0.1,0.6,0.2C177.3,3,177.1,3,176.9,2.9"/>
<path class="st4" d="M175.7,9.3L175.7,9.3L175.7,9.3c0.3,0,0.7,0,1,0h0.5c1.6,0,3.2,0.3,4.8,0.8s3.2,1.2,4.5,2.2
	c0-0.1,0-0.1-0.1-0.2c-0.1-0.4-0.3-0.8-0.5-1.2c-0.1-0.2-0.1-0.3-0.2-0.4c-0.1-0.3-0.3-0.6-0.5-0.9c-0.1-0.2-0.2-0.3-0.3-0.5
	c-0.2-0.3-0.4-0.6-0.6-0.9c-0.1-0.1-0.2-0.3-0.3-0.4c-0.3-0.4-0.7-0.8-1.1-1.2c-0.4-0.4-0.7-0.7-1.1-1c-0.3-0.3-0.6-0.5-0.9-0.7
	c-0.2-0.1-0.3-0.2-0.5-0.3c-0.2-0.1-0.3-0.2-0.5-0.3c-0.2-0.1-0.4-0.2-0.5-0.3c-0.2-0.1-0.3-0.2-0.5-0.3c-0.2-0.1-0.3-0.1-0.5-0.2
	s-0.3-0.2-0.5-0.2c-0.2-0.1-0.4-0.1-0.5-0.2C177.2,3,177,3,176.8,2.9c-0.2,0-0.4-0.1-0.5-0.1c-0.2,0-0.4-0.1-0.6-0.1
	c-0.2,0-0.4,0-0.5-0.1c-0.2,0-0.4-0.1-0.6-0.1c-0.2,0-0.3,0-0.5,0s-0.5,0-0.7,0c-1.6,0-3.2,0.3-4.6,0.8l0,0
	c-0.2,0.1-0.4,0.2-0.6,0.2C171.1,4.8,173.7,6.8,175.7,9.3"/>
<path class="st4" d="M186,10.9c-0.1-0.1-0.1-0.3-0.2-0.4C185.9,10.6,185.9,10.7,186,10.9L186,10.9z"/>
<path class="st4" d="M186.5,12.2c0-0.1,0-0.1-0.1-0.2C186.5,12.1,186.5,12.2,186.5,12.2"/>
<path class="st4" d="M186.5,12.1L186.5,12.1c-0.1-0.4-0.3-0.8-0.5-1.2l0,0C186.2,11.3,186.3,11.7,186.5,12.1"/>
<path class="st5" d="M168.2,3.5c-0.1,0-0.2,0.1-0.3,0.1l0,0C168,3.6,168.1,3.5,168.2,3.5"/>
<path class="st5" d="M167.6,3.8L167.6,3.8c-0.2,0.1-0.4,0.2-0.6,0.3l0,0C167.2,4,167.4,3.9,167.6,3.8"/>
<path class="st5" d="M166.6,4.3L166.6,4.3c-0.2,0.1-0.4,0.3-0.6,0.4l0,0C166.2,4.6,166.4,4.4,166.6,4.3"/>
<path class="st5" d="M165.7,4.9c-0.3,0.2-0.6,0.4-0.9,0.7C165.1,5.3,165.4,5.1,165.7,4.9"/>
<path class="st5" d="M167,4.1C166.9,4.1,166.9,4.1,167,4.1c-0.1,0.1-0.2,0.1-0.3,0.2l0,0C166.7,4.2,166.8,4.2,167,4.1"/>
<path class="st5" d="M166,4.7L166,4.7c-0.1,0.1-0.2,0.1-0.3,0.2C165.8,4.8,165.9,4.8,166,4.7"/>
<path class="st5" d="M167.9,3.6L167.9,3.6c-0.1,0.1-0.3,0.1-0.4,0.2l0,0C167.7,3.7,167.8,3.7,167.9,3.6"/>
<path class="st6" d="M166.6,4.3c-0.2,0.1-0.4,0.3-0.6,0.4C166.2,4.6,166.4,4.4,166.6,4.3"/>
<path class="st6" d="M164.8,5.6c0.3-0.2,0.6-0.5,0.9-0.7C165.4,5.1,165.1,5.3,164.8,5.6"/>
<path class="st6" d="M164.8,5.6c-0.4,0.3-0.7,0.6-1.1,1C164.1,6.2,164.4,5.9,164.8,5.6"/>
<path class="st6" d="M167.6,3.8c-0.2,0.1-0.4,0.2-0.6,0.3C167.2,4,167.4,3.9,167.6,3.8"/>
<path class="st6" d="M168.2,3.5L168.2,3.5c-0.1,0-0.2,0.1-0.3,0.1C168,3.6,168.1,3.5,168.2,3.5"/>
<path class="st6" d="M173.6,9.6c-0.1,0-0.3,0-0.4,0C173.3,9.6,173.4,9.6,173.6,9.6L173.6,9.6z"/>
<path class="st6" d="M169.7,9.9L169.7,9.9L169.7,9.9c0.2,0,0.4-0.1,0.6-0.1c0.7-0.1,1.4-0.2,2.2-0.2h0.2c0.3,0,0.6,0,0.9,0l0,0
	c0.2,0,0.5-0.1,0.8-0.1c0.5-0.1,0.9-0.1,1.4-0.2c-2-2.5-4.6-4.5-7.5-5.9c-0.1,0-0.2,0.1-0.3,0.1c-0.1,0.1-0.3,0.1-0.4,0.2
	c-0.2,0.1-0.4,0.2-0.6,0.3c-0.1,0.1-0.2,0.1-0.3,0.2c-0.2,0.1-0.4,0.3-0.6,0.4c-0.1,0.1-0.2,0.1-0.3,0.2c-0.3,0.2-0.6,0.4-0.9,0.7
	c-0.4,0.3-0.7,0.6-1.1,1C166,7.3,168,8.4,169.7,9.9"/>
<path class="st7" d="M186.5,12.3L186.5,12.3C186.5,12.2,186.5,12.2,186.5,12.3L186.5,12.3"/>
<path class="st7" d="M187.1,16.4c0,0.4,0,0.9-0.1,1.3C187.1,17.2,187.1,16.8,187.1,16.4"/>
<path class="st7" d="M186.9,13.8c0.1,0.3,0.1,0.6,0.1,0.9C187,14.4,186.9,14.1,186.9,13.8"/>
<path class="st7" d="M186.5,12.4c0.1,0.4,0.2,0.7,0.3,1.1C186.7,13.1,186.7,12.7,186.5,12.4"/>
<path class="st7" d="M187.1,16.3c0-0.4,0-0.9-0.1-1.3C187.1,15.5,187.1,15.9,187.1,16.3L187.1,16.3z"/>
<path class="st7" d="M186.9,18.6c0-0.2,0-0.4,0.1-0.6C187,18.2,186.9,18.4,186.9,18.6L186.9,18.6"/>
<path class="st7" d="M187.1,16.4L187.1,16.4c0-0.4,0-0.9-0.1-1.3c0-0.1,0-0.2,0-0.4c0-0.3-0.1-0.6-0.1-0.9c0-0.1,0-0.2-0.1-0.3
	c-0.1-0.4-0.2-0.7-0.3-1.1v-0.1l0,0c-1.4-0.9-2.9-1.7-4.5-2.2s-3.2-0.7-4.8-0.8h-0.5c-0.3,0-0.7,0-1,0c0.2,0.2,0.4,0.5,0.5,0.7l0,0
	c0.3,0.1,0.7,0.2,1,0.3c4.4,1.4,7.7,4.4,9.6,8.3c0-0.2,0.1-0.4,0.1-0.6c0-0.1,0-0.2,0-0.4C187.1,17.2,187.1,16.8,187.1,16.4"/>
<path class="st8" d="M174.4,9.5c-0.3,0-0.5,0.1-0.8,0.1l0,0C173.9,9.6,174.1,9.6,174.4,9.5"/>
<path class="st8" d="M176.3,10c-0.2-0.2-0.3-0.5-0.5-0.7c-0.7,0.1-1.4,0.1-2.1,0.3c0.4,0,0.8,0.1,1.2,0.1
	C175.3,9.8,175.8,9.9,176.3,10"/>
<polygon class="st9" points="175.7,9.3 175.7,9.3 175.7,9.3 "/>
<path class="st9" d="M175.7,9.3c-0.5,0-0.9,0.1-1.4,0.2C174.8,9.4,175.3,9.4,175.7,9.3L175.7,9.3z"/>
<path class="st9" d="M176.3,10L176.3,10L176.3,10L176.3,10L176.3,10c-0.2-0.2-0.3-0.5-0.5-0.7l0,0C175.9,9.6,176.1,9.8,176.3,10"/>
<path class="st9" d="M173.6,9.6c0.7-0.1,1.4-0.2,2.1-0.3c0.2,0.2,0.4,0.5,0.5,0.7c-0.5-0.1-0.9-0.2-1.4-0.3c0.5,0.1,0.9,0.2,1.4,0.3
	c-0.2-0.2-0.3-0.5-0.5-0.7c-0.5,0-0.9,0.1-1.4,0.2C174.1,9.6,173.9,9.6,173.6,9.6"/>
<path class="st9" d="M163.7,6.6c-0.3,0.3-0.6,0.7-0.9,1l0,0C163.1,7.3,163.4,6.9,163.7,6.6"/>
<path class="st9" d="M160,13.6c0-0.2,0.1-0.5,0.2-0.7C160.1,13.1,160,13.3,160,13.6"/>
<polyline class="st9" points="163.7,6.6 163.7,6.6 163.7,6.6 "/>
<path class="st9" d="M159.7,15.5c0,0.2,0,0.5,0,0.7l0,0C159.7,16,159.7,15.8,159.7,15.5"/>
<path class="st9" d="M159.8,14.9c0-0.3,0.1-0.5,0.1-0.8C159.8,14.4,159.8,14.7,159.8,14.9"/>
<path class="st9" d="M168.2,10.2c0.1,0,0.1,0,0.2,0C168.4,10.2,168.3,10.2,168.2,10.2"/>
<path class="st9" d="M162.6,13.2c0.1-0.1,0.2-0.1,0.2-0.2C162.8,13,162.7,13.1,162.6,13.2"/>
<path class="st9" d="M162.5,8c-0.2,0.2-0.4,0.5-0.5,0.7s-0.2,0.3-0.3,0.5s-0.3,0.4-0.4,0.6c-0.1,0.2-0.2,0.4-0.3,0.5
	c-0.1,0.2-0.2,0.4-0.3,0.7c-0.1,0.2-0.1,0.4-0.2,0.6c-0.1,0.2-0.2,0.5-0.2,0.7c-0.1,0.2-0.1,0.4-0.1,0.6c-0.1,0.2-0.1,0.5-0.2,0.7
	c0,0.2-0.1,0.4-0.1,0.6c0,0.3-0.1,0.5-0.1,0.8c0,0.2,0,0.4,0,0.6c0,0.2,0,0.5,0,0.7c1.4-1.7,2.7-3.1,4.4-4.2s3.6-1.8,5.6-2.2
	c-1.7-1.4-3.7-2.6-6-3.3l0,0c-0.3,0.3-0.6,0.7-0.9,1C162.7,7.7,162.6,7.9,162.5,8"/>
<path class="st9" d="M160.4,15.3c0.1-0.1,0.1-0.2,0.2-0.3C160.6,15.1,160.5,15.3,160.4,15.3"/>
<path class="st9" d="M166.8,10.7c0.4-0.1,0.8-0.3,1.1-0.4C167.6,10.4,167.2,10.6,166.8,10.7"/>
<path class="st9" d="M161.1,14.6c0.2-0.2,0.4-0.4,0.6-0.6C161.5,14.1,161.3,14.4,161.1,14.6"/>
<polyline class="st9" points="162.8,7.6 162.8,7.6 162.8,7.6 "/>
<path class="st9" d="M159.9,14.1L159.9,14.1c0,0.2-0.1,0.5-0.1,0.8C159.8,14.7,159.8,14.4,159.9,14.1"/>
<path class="st9" d="M159.7,15.5L159.7,15.5c0,0.2,0,0.5,0,0.7C159.7,16,159.7,15.8,159.7,15.5"/>
<path class="st9" d="M159.8,14.9L159.8,14.9c0,0.2,0,0.4,0,0.6l0,0C159.7,15.3,159.7,15.1,159.8,14.9"/>
<path class="st10" d="M170.3,9.8c-0.2,0-0.4,0-0.6,0.1l0,0C169.9,9.8,170.1,9.8,170.3,9.8"/>
<path class="st10" d="M173.6,9.6c-0.1,0-0.3,0-0.4,0c-0.1,0-0.3,0-0.4,0h-0.2c-0.9,0-1.9,0.1-2.8,0.3c0.3,0.2,0.5,0.5,0.8,0.7
	C171.5,10.2,172.5,9.9,173.6,9.6"/>
<path class="st9" d="M172.7,9.6c0.1,0,0.3,0,0.4,0c0.1,0,0.3,0,0.4,0l0,0l0,0l0,0C173.3,9.6,173,9.6,172.7,9.6h-0.2
	c-0.7,0-1.5,0.1-2.2,0.2c0.7-0.1,1.4-0.2,2.2-0.2H172.7z"/>
<path class="st9" d="M173.6,9.6L173.6,9.6c-1.1,0.2-2.1,0.5-3.1,0.9l0,0c0.2-0.1,0.5-0.2,0.7-0.3C172,10.1,172.8,9.8,173.6,9.6"/>
<path class="st9" d="M169.7,9.9c0.9-0.2,1.8-0.3,2.8-0.3h0.2c0.1,0,0.3,0,0.4,0c-0.1,0-0.3,0-0.4,0h-0.2c-0.7,0-1.5,0.1-2.2,0.2
	C170.1,9.8,169.9,9.8,169.7,9.9L169.7,9.9"/>
<path class="st9" d="M170.5,10.6L170.5,10.6L170.5,10.6"/>
<polyline class="st11" points="184.1,24.9 184.1,24.9 184.1,24.9 "/>
<polygon class="st11" points="178.6,30.3 178.6,30.3 182.1,27.1 "/>
<path class="st11" d="M183.1,26.1c-0.1,0.1-0.2,0.3-0.4,0.4C182.8,26.4,183,26.3,183.1,26.1c0.3-0.3,0.6-0.6,0.8-0.9l0,0
	C183.7,25.5,183.4,25.8,183.1,26.1"/>
<path class="st11" d="M183.9,25.2L183.9,25.2c0.1-0.1,0.1-0.2,0.2-0.3C184.1,25,184,25.1,183.9,25.2"/>
<path class="st12" d="M178.6,30.3l3.5-3.2L178.6,30.3z"/>
<path class="st12" d="M182.7,26.6L182.7,26.6c0.2-0.2,0.3-0.3,0.4-0.4C182.9,26.3,182.8,26.4,182.7,26.6"/>
<path class="st12" d="M185.4,23.1L185.4,23.1c0,0,0-0.1,0.1-0.1c-0.2,0.3-0.4,0.7-0.6,1C185.1,23.7,185.2,23.4,185.4,23.1"/>
<path class="st12" d="M186.9,18.9c0-0.1,0-0.2,0.1-0.3l0,0C186.9,18.7,186.9,18.8,186.9,18.9"/>
<path class="st12" d="M184.1,24.9L184.1,24.9c0.2-0.3,0.4-0.5,0.6-0.8C184.5,24.4,184.3,24.7,184.1,24.9"/>
<path class="st12" d="M183.1,26.1c0.3-0.3,0.6-0.6,0.8-0.9C183.7,25.5,183.4,25.8,183.1,26.1"/>
<path class="st12" d="M186.4,20.6c-0.1,0.2-0.2,0.5-0.2,0.7C186.3,21.1,186.4,20.9,186.4,20.6"/>
<path class="st12" d="M186,21.8c-0.1,0.2-0.2,0.5-0.3,0.7C185.8,22.3,185.9,22.1,186,21.8"/>
<path class="st12" d="M186.8,19.4c-0.1,0.3-0.1,0.5-0.2,0.7C186.7,19.9,186.7,19.6,186.8,19.4"/>
<path class="st12" d="M180.2,23.3c0,0.4,0,0.8-0.1,1.1C180.2,24,180.2,23.6,180.2,23.3"/>
<path class="st12" d="M179.7,17.8c0,0.1,0,0.2,0.1,0.3C179.8,18,179.8,17.9,179.7,17.8"/>
<path class="st12" d="M180,25.2c-0.1,0.4-0.1,0.8-0.2,1.3C179.9,26,180,25.6,180,25.2"/>
<path class="st12" d="M179.6,27.5c-0.1,0.3-0.1,0.6-0.2,0.9C179.4,28.1,179.5,27.8,179.6,27.5"/>
<path class="st12" d="M179.4,16.5c0.1,0.3,0.1,0.5,0.2,0.8C179.6,17.1,179.5,16.8,179.4,16.5"/>
<path class="st12" d="M177.6,12.1c0.8,1.4,1.4,2.8,1.8,4.4C178.9,14.9,178.3,13.4,177.6,12.1"/>
<path class="st12" d="M177.3,10.3c-0.3-0.1-0.7-0.2-1-0.3l0,0l0,0c1.9,2.7,3.2,5.7,3.7,8.9c0.2,1.1,0.3,2.2,0.3,3.3
	c0,2.8-0.5,5.4-1.6,8l3.5-3.2c0.2-0.2,0.4-0.3,0.5-0.5c0.1-0.1,0.3-0.3,0.4-0.4c0.3-0.3,0.6-0.6,0.8-0.9c0.1-0.1,0.1-0.2,0.2-0.3
	c0.2-0.3,0.4-0.5,0.6-0.8c0-0.1,0.1-0.1,0.1-0.2c0.2-0.3,0.4-0.7,0.6-1c0.1-0.1,0.1-0.3,0.2-0.4c0.1-0.2,0.2-0.5,0.3-0.7
	s0.1-0.3,0.2-0.5c0.1-0.2,0.2-0.5,0.2-0.7c0.1-0.2,0.1-0.3,0.1-0.5c0.1-0.2,0.1-0.5,0.2-0.7c0-0.2,0.1-0.3,0.1-0.5
	c0-0.1,0-0.2,0-0.3C185,14.8,181.7,11.7,177.3,10.3"/>
<path class="st12" d="M176.9,11.1c0.1,0.1,0.2,0.3,0.2,0.4C177.1,11.3,177,11.2,176.9,11.1"/>
<polyline class="st12" points="176.3,10 176.3,10 176.3,10 176.3,10 176.3,10 "/>
<path class="st12" d="M184.9,23.9c0.2-0.3,0.4-0.6,0.5-0.9C185.2,23.4,185.1,23.7,184.9,23.9L184.9,23.9"/>
<path class="st12" d="M184.1,24.9c0.2-0.3,0.4-0.5,0.6-0.8l0,0C184.5,24.4,184.3,24.7,184.1,24.9"/>
<path class="st12" d="M184.7,24.1L184.7,24.1c0.1-0.1,0.1-0.1,0.1-0.2l0,0C184.8,24,184.8,24.1,184.7,24.1"/>
<polygon class="st13" points="174.7,34 173.5,35.1 173.5,35.1 173.5,35.1 174.7,34 178.6,30.3 "/>
<path class="st13" d="M173.5,34.1L173.5,34.1L173.5,34.1z"/>
<path class="st14" d="M174.7,30.2L174.7,30.2L174.7,30.2"/>
<path class="st14" d="M173.6,9.6L173.6,9.6c0.1,0,0.3,0,0.4,0C173.9,9.7,173.7,9.7,173.6,9.6"/>
<path class="st14" d="M174.7,34l4-3.6c0.3-0.6,0.5-1.3,0.7-1.9c0.1-0.3,0.2-0.6,0.2-0.9c0.1-0.4,0.2-0.7,0.3-1.1
	c0.1-0.4,0.1-0.8,0.2-1.3c0-0.3,0.1-0.5,0.1-0.8c0-0.4,0-0.8,0.1-1.1c0-0.3,0-0.6,0-0.9c0-1.1-0.1-2.2-0.3-3.3
	c0-0.3-0.1-0.6-0.2-0.9c0-0.1,0-0.2-0.1-0.3c0-0.1-0.1-0.3-0.1-0.4c-0.1-0.3-0.1-0.5-0.2-0.8v-0.1c-0.5-1.5-1.1-3-1.8-4.4
	c-0.1-0.2-0.2-0.4-0.4-0.6c-0.1-0.1-0.2-0.3-0.2-0.4c-0.2-0.3-0.4-0.7-0.7-1c-0.4-0.1-0.9-0.2-1.3-0.3c-0.4-0.1-0.9-0.1-1.3-0.1l0,0
	l0,0c-1.1,0.2-2.1,0.5-3.1,0.9c1.2,1.1,2.2,2.4,3,3.8c0.6-0.3,1.3-0.5,1.9-0.5c0.5,0,0.7,0,1.1,0.1v4.6c-0.3-0.1-0.7-0.1-1.2-0.1
	c0.3,1,0.5,2.1,0.6,3.1c0.1,0.6,0.1,1.2,0.1,1.8c0,0.8-0.1,1.7-0.2,2.5v0.1c-0.1,0.9-0.3,1.8-0.6,2.6c-0.2,0.5-0.3,1-0.5,1.5l0,0
	c-0.2,0.5-0.4,0.9-0.6,1.4c0,0,0,0.1-0.1,0.1c-0.4,0.9-0.9,1.7-1.5,2.4l0.1,0.1l0.9,0.8L174.7,34z"/>
<path class="st14" d="M174.1,31.6c0-0.1,0.1-0.2,0.1-0.3C174.2,31.4,174.1,31.5,174.1,31.6"/>
<path class="st14" d="M173.3,33c0-0.1,0.1-0.1,0.1-0.2C173.4,32.8,173.4,32.9,173.3,33"/>
<path class="st14" d="M173.6,9.6c0.4,0,0.9,0.1,1.3,0.1c-0.3,0-0.6-0.1-0.9-0.1C173.9,9.7,173.7,9.7,173.6,9.6"/>
<polyline class="st14" points="173.6,9.6 173.6,9.6 173.6,9.6 "/>
<path class="st14" d="M170.5,10.6L170.5,10.6c0.2-0.1,0.5-0.2,0.7-0.3C171,10.4,170.7,10.5,170.5,10.6"/>
<path class="st9" d="M172.5,34.2l0.1,0.1L172.5,34.2z"/>
<polygon class="st9" points="173.5,35.1 173.5,35.1 173.5,35.1 172.6,34.3 172.5,34.2 172.5,34.2 172.5,34.2 172.6,34.4 "/>
<polygon class="st9" points="173.6,9.6 173.6,9.6 173.6,9.6 "/>
<polyline class="st9" points="173.6,9.6 173.6,9.6 173.6,9.6 173.6,9.6 173.6,9.6 "/>
<path class="st9" d="M174.6,9.7c0.1,0,0.2,0,0.3,0c-0.4-0.1-0.8-0.1-1.2-0.1l0,0C173.9,9.7,174.2,9.7,174.6,9.7"/>
<polygon class="st9" points="176.3,10 176.3,10 176.3,10 "/>
<polyline class="st9" points="173.6,9.6 173.6,9.6 173.6,9.6 173.6,9.6 "/>
<path class="st9" d="M174.6,9.7c0.6,0.1,1.1,0.2,1.7,0.3l0,0c-0.5-0.1-0.9-0.2-1.4-0.3C174.7,9.8,174.7,9.8,174.6,9.7"/>
<path class="st9" d="M173.6,9.6L173.6,9.6c-0.3,0.1-0.6,0.2-0.9,0.2C173,9.8,173.3,9.7,173.6,9.6"/>
<polyline class="st9" points="173.6,9.6 173.6,9.6 173.6,9.6 "/>
<path class="st9" d="M172.7,9.9c0.3-0.1,0.6-0.2,0.9-0.2c-0.8,0.2-1.6,0.4-2.4,0.7C171.7,10.2,172.2,10,172.7,9.9"/>
<polygon class="st9" points="178.6,30.3 178.6,30.3 178.6,30.3 "/>
<polygon class="st9" points="178.6,30.3 178.6,30.3 178.6,30.3 "/>
<path class="st9" d="M176.9,11.1c0.1,0.1,0.2,0.3,0.2,0.4c0.1,0.2,0.2,0.4,0.4,0.6c0.8,1.4,1.4,2.8,1.8,4.4v0.1
	c0.1,0.3,0.1,0.5,0.2,0.8c0,0.1,0.1,0.3,0.1,0.4c0,0.1,0,0.2,0.1,0.3c0.1,0.3,0.1,0.6,0.2,0.9c0.2,1.1,0.3,2.2,0.3,3.3
	c0,0.3,0,0.6,0,0.9c0,0.4,0,0.8-0.1,1.1c0,0.3-0.1,0.5-0.1,0.8c-0.1,0.4-0.1,0.8-0.2,1.3c-0.1,0.4-0.2,0.7-0.3,1.1
	c-0.1,0.3-0.1,0.6-0.2,0.9c-0.2,0.7-0.4,1.3-0.7,1.9l0,0c1.1-2.5,1.6-5.2,1.6-8c0-1.1-0.1-2.2-0.3-3.3c-0.5-3.3-1.8-6.3-3.7-8.9l0,0
	C176.5,10.4,176.7,10.7,176.9,11.1"/>
<polygon class="st9" points="176.3,10 176.3,10 176.3,10 "/>
<polygon class="st9" points="174.7,34 173.5,35.1 174.7,34 178.6,30.3 178.6,30.3 "/>
<polygon class="st9" points="173.5,35.1 173.5,35.1 173.5,35.1 174.7,34 "/>
<polygon class="st9" points="178.6,30.3 178.6,30.3 174.7,34 "/>
<path class="st9" d="M173.6,9.6c0.1,0,0.3,0,0.4,0c0.2,0,0.4,0,0.6,0.1C174.2,9.7,173.9,9.7,173.6,9.6L173.6,9.6z"/>
<path class="st9" d="M179.4,16.4L179.4,16.4C179.4,16.5,179.4,16.5,179.4,16.4"/>
<path class="st9" d="M179.8,26.4c-0.1,0.4-0.2,0.7-0.3,1.1C179.6,27.1,179.7,26.8,179.8,26.4"/>
<path class="st9" d="M179.6,17.3c0,0.1,0.1,0.3,0.1,0.4C179.7,17.6,179.7,17.5,179.6,17.3"/>
<path class="st9" d="M175.8,26c0.1-0.8,0.2-1.7,0.2-2.5c0-0.6,0-1.2-0.1-1.8c0.1,0.6,0.1,1.2,0.1,1.8C176,24.3,175.9,25.2,175.8,26"
	/>
<path class="st9" d="M180.1,24.4c0,0.3-0.1,0.5-0.1,0.8C180.1,24.9,180.1,24.7,180.1,24.4"/>
<path class="st9" d="M177.2,11.4c0.1,0.2,0.3,0.4,0.4,0.6C177.4,11.9,177.3,11.7,177.2,11.4"/>
<path class="st9" d="M180.2,22.3c0,0.3,0,0.6,0,0.9C180.2,22.9,180.2,22.6,180.2,22.3c0-1.1-0.1-2.2-0.3-3.3
	c-0.1-0.3-0.1-0.6-0.2-0.9c0.1,0.3,0.1,0.6,0.2,0.9C180.1,20.1,180.2,21.2,180.2,22.3"/>
<path class="st9" d="M173.6,9.6c-0.3,0.1-0.6,0.2-0.9,0.2c-0.7,0.2-1.5,0.4-2.2,0.7C171.5,10.2,172.5,9.9,173.6,9.6L173.6,9.6
	L173.6,9.6L173.6,9.6"/>
<path class="st9" d="M174.9,9.8c0.4,0.1,0.9,0.2,1.3,0.3c0.2,0.3,0.5,0.7,0.7,1c-0.2-0.3-0.4-0.7-0.7-1l0,0
	C175.8,9.9,175.4,9.9,174.9,9.8"/>
<path class="st9" d="M175.2,28.8c0.3-0.9,0.5-1.7,0.6-2.6C175.7,27,175.5,27.9,175.2,28.8c-0.1,0.5-0.3,0.9-0.5,1.3v0.1l0,0
	C174.9,29.8,175.1,29.3,175.2,28.8"/>
<path class="st9" d="M178.6,30.3c0.3-0.6,0.5-1.3,0.7-1.9C179.1,29,178.9,29.7,178.6,30.3l-4,3.7l-1.2,1.2l-0.9-0.8l0.9,0.8l1.2-1.2
	L178.6,30.3z"/>
<path class="st9" d="M173.4,32.8c0,0.1-0.1,0.1-0.1,0.2c-0.3,0.4-0.6,0.9-0.9,1.3l0,0c0.6-0.8,1.1-1.6,1.5-2.4
	C173.8,32.1,173.6,32.4,173.4,32.8"/>
<path class="st9" d="M174.7,30.2c-0.1,0.4-0.3,0.7-0.5,1.1c0,0.1-0.1,0.2-0.1,0.3l0,0C174.3,31.2,174.5,30.7,174.7,30.2"/>
<path class="st9" d="M174,9.7c0.3,0,0.6,0.1,0.9,0.1c0.4,0.1,0.9,0.2,1.3,0.3l0,0l0,0c-0.6-0.1-1.1-0.2-1.7-0.3
	C174.4,9.7,174.2,9.7,174,9.7"/>
<path class="st9" d="M173.6,9.6L173.6,9.6L173.6,9.6z"/>
<path class="st9" d="M171.2,10.3c-0.2,0.1-0.5,0.2-0.7,0.3l0,0c0.7-0.3,1.4-0.5,2.2-0.7C172.2,10,171.7,10.2,171.2,10.3"/>
<path class="st15" d="M159.7,16.3L159.7,16.3L159.7,16.3L159.7,16.3"/>
<path class="st15" d="M160.6,21.4L160.6,21.4C160.6,21.3,160.6,21.3,160.6,21.4L160.6,21.4z"/>
<path class="st15" d="M168.8,11.4c-0.2,0.1-0.5,0.3-0.7,0.4C168.3,11.7,168.6,11.5,168.8,11.4"/>
<path class="st15" d="M165.7,13.5c-0.2,0.2-0.4,0.4-0.6,0.6C165.3,13.9,165.5,13.7,165.7,13.5"/>
<path class="st15" d="M161.3,19.6c-0.2,0.4-0.3,0.7-0.4,1.1C161,20.3,161.1,19.9,161.3,19.6"/>
<path class="st15" d="M162.2,17.9c-0.1,0.2-0.2,0.4-0.3,0.6C161.9,18.3,162,18.1,162.2,17.9"/>
<path class="st15" d="M167.2,12.4c-0.2,0.2-0.5,0.4-0.7,0.6C166.7,12.7,167,12.6,167.2,12.4"/>
<path class="st15" d="M163.2,16.3c-0.1,0.2-0.3,0.4-0.4,0.6C162.9,16.7,163.1,16.5,163.2,16.3"/>
<path class="st15" d="M170.2,10.7c0.1,0,0.2-0.1,0.3-0.1l0,0C170.4,10.6,170.3,10.7,170.2,10.7"/>
<path class="st15" d="M169.7,9.9L169.7,9.9L169.7,9.9c-0.4,0.1-0.8,0.2-1.3,0.3c-0.1,0-0.1,0-0.2,0.1c-0.1,0-0.2,0.1-0.3,0.1
	c-0.4,0.1-0.8,0.3-1.2,0.4c-0.9,0.4-1.8,0.8-2.7,1.4c-0.4,0.3-0.8,0.6-1.2,0.9c-0.1,0.1-0.2,0.1-0.2,0.2c-0.3,0.3-0.6,0.5-0.9,0.8
	c-0.2,0.2-0.4,0.4-0.6,0.6c-0.2,0.2-0.3,0.3-0.5,0.5c-0.1,0.1-0.2,0.2-0.2,0.3c-0.2,0.3-0.5,0.6-0.7,0.9c0,0,0,0,0,0.1l0,0
	c0,1.7,0.3,3.4,0.9,4.9l0,0v0.1c0.2-0.6,0.4-1.2,0.7-1.8c0.1-0.2,0.2-0.3,0.3-0.5c0.2-0.4,0.4-0.8,0.6-1.2c0.1-0.2,0.3-0.4,0.4-0.7
	c0.2-0.3,0.4-0.6,0.6-0.9c0.2-0.2,0.3-0.4,0.5-0.6c0.2-0.3,0.5-0.6,0.7-0.9c0.2-0.2,0.3-0.3,0.5-0.5c0.3-0.3,0.6-0.6,0.9-0.8
	c0.2-0.1,0.3-0.2,0.5-0.4c0.3-0.3,0.7-0.5,1-0.8c0.2-0.1,0.3-0.2,0.5-0.3c0.4-0.2,0.7-0.5,1.1-0.7c0.2-0.1,0.5-0.2,0.7-0.3
	c0.3-0.2,0.6-0.3,0.9-0.5C170.2,10.3,170,10.1,169.7,9.9L169.7,9.9"/>
<path class="st15" d="M163.9,15.4c0.2-0.2,0.3-0.4,0.5-0.6C164.2,15,164.1,15.2,163.9,15.4"/>
<path class="st15" d="M169.7,9.9L169.7,9.9C169.7,9.9,169.8,9.9,169.7,9.9C169.8,9.9,169.7,9.9,169.7,9.9"/>
<polygon class="st15" points="170.5,10.6 170.5,10.6 170.5,10.6 "/>
<path class="st15" d="M169.7,9.9L169.7,9.9L169.7,9.9"/>
<path class="st15" d="M169.7,9.9L169.7,9.9L169.7,9.9z"/>
<path class="st15" d="M170.4,10.6c-0.2-0.2-0.4-0.4-0.7-0.6c0,0,0,0-0.1,0C170,10.1,170.2,10.3,170.4,10.6
	C170.5,10.6,170.5,10.6,170.4,10.6C170.5,10.6,170.5,10.6,170.4,10.6"/>
<path class="st9" d="M159.7,16.3L159.7,16.3L159.7,16.3L159.7,16.3L159.7,16.3L159.7,16.3c0,0.5,0,1,0.1,1.4
	C159.7,17.3,159.7,16.8,159.7,16.3L159.7,16.3z"/>
<polygon class="st9" points="160.6,21.3 160.6,21.3 160.6,21.4 160.6,21.4 160.6,21.4 160.6,21.4 "/>
<path class="st9" d="M160.6,21.3L160.6,21.3L160.6,21.3z"/>
<path class="st9" d="M159.7,16.3L159.7,16.3c0,0.5,0,1,0.1,1.4c0.1,1.2,0.4,2.4,0.8,3.5C160,19.7,159.7,18.1,159.7,16.3"/>
<polygon class="st9" points="169.7,9.9 169.7,9.9 169.7,9.9 "/>
<polygon class="st9" points="159.7,16.3 159.7,16.3 159.7,16.3 "/>
<path class="st9" d="M159.7,16.3L159.7,16.3L159.7,16.3z"/>
<polyline class="st9" points="169.7,9.9 169.7,9.9 169.7,9.9 169.7,9.9 169.7,9.9 "/>
<path class="st9" d="M170.2,10.4c0.1,0.1,0.2,0.2,0.3,0.2l0,0c-0.3-0.2-0.5-0.5-0.8-0.7l0,0C169.9,10,170.1,10.2,170.2,10.4"/>
<polygon class="st9" points="169.7,9.9 169.7,9.9 169.7,9.9 "/>
<path class="st9" d="M170.5,10.6L170.5,10.6c-0.1-0.1-0.2-0.2-0.3-0.2C170.3,10.4,170.4,10.5,170.5,10.6L170.5,10.6L170.5,10.6
	L170.5,10.6z"/>
<path class="st9" d="M160.6,21.4L160.6,21.4L160.6,21.4C160.6,21.3,160.6,21.3,160.6,21.4L160.6,21.4L160.6,21.4L160.6,21.4"/>
<path class="st9" d="M159.7,16.3L159.7,16.3L159.7,16.3L159.7,16.3L159.7,16.3L159.7,16.3L159.7,16.3L159.7,16.3z"/>
<path class="st9" d="M160.6,21.3c-0.6-1.5-0.9-3.2-0.9-4.9l0,0l0,0C159.7,18.1,160,19.7,160.6,21.3L160.6,21.3L160.6,21.3
	L160.6,21.3z"/>
<path class="st9" d="M159.7,16.3L159.7,16.3c0.2-0.3,0.5-0.6,0.7-0.9C160.2,15.6,159.9,15.9,159.7,16.3"/>
<path class="st9" d="M167.9,10.3c0.1,0,0.2-0.1,0.3-0.1C168.1,10.3,168,10.3,167.9,10.3"/>
<path class="st9" d="M169.7,9.9C169.7,9.9,169.8,9.9,169.7,9.9c0.2,0.2,0.4,0.3,0.5,0.5C170.1,10.2,169.9,10,169.7,9.9L169.7,9.9z"
	/>
<path class="st9" d="M169.7,9.9L169.7,9.9c-0.4,0.1-0.9,0.2-1.3,0.3C168.8,10.1,169.3,10,169.7,9.9L169.7,9.9z"/>
<path class="st9" d="M160.7,15.1c0.2-0.2,0.3-0.3,0.5-0.5C161,14.7,160.8,14.9,160.7,15.1"/>
<path class="st9" d="M170.4,10.6c-0.1-0.1-0.1-0.1-0.2-0.2c-0.1-0.1-0.3-0.3-0.4-0.4C170,10.1,170.2,10.3,170.4,10.6"/>
<polyline class="st9" points="170.5,10.6 170.5,10.6 170.5,10.6 170.5,10.6 170.5,10.6 "/>
<polygon class="st9" points="169.7,9.9 169.7,9.9 169.7,9.9 "/>
<path class="st16" d="M161.1,22.4L161.1,22.4c0.1,0.2,0.3,0.5,0.4,0.7l0,0C161.3,22.9,161.2,22.7,161.1,22.4"/>
<path class="st16" d="M165.3,27.6c-0.8-0.7-1-0.9-1.6-1.4C164.3,26.7,164.7,27.1,165.3,27.6"/>
<path class="st16" d="M161.6,23.5L161.6,23.5c0.2,0.3,0.4,0.6,0.6,1c0-0.1-0.1-0.1-0.1-0.2C162,24,161.8,23.8,161.6,23.5"/>
<path class="st16" d="M163.1,25.5c-0.3-0.3-0.5-0.7-0.8-1l0,0C162.6,24.9,162.8,25.2,163.1,25.5L163.1,25.5c0.2,0.2,0.4,0.4,0.6,0.6
	C163.5,26,163.3,25.8,163.1,25.5L163.1,25.5z"/>
<path class="st16" d="M160.6,21.4L160.6,21.4c0.1,0.2,0.2,0.4,0.2,0.6l0,0C160.8,21.8,160.7,21.6,160.6,21.4"/>
<path class="st16" d="M162.2,24.3c0,0.1,0.1,0.1,0.1,0.2c0,0,0,0,0,0.1l0,0C162.3,24.5,162.2,24.4,162.2,24.3"/>
<path class="st16" d="M161.4,23.1L161.4,23.1c0.1,0.2,0.1,0.3,0.2,0.4l0,0C161.6,23.4,161.5,23.2,161.4,23.1"/>
<path class="st16" d="M160.8,22L160.8,22c0.1,0.2,0.1,0.3,0.2,0.5l0,0C161,22.3,160.9,22.1,160.8,22"/>
<polyline class="st16" points="160.6,21.4 160.6,21.4 160.6,21.4 "/>
<path class="st16" d="M162.3,24.5c0.2,0.3,0.5,0.7,0.8,1C162.8,25.2,162.6,24.9,162.3,24.5"/>
<path class="st16" d="M160.6,21.4c0.1,0.2,0.2,0.4,0.2,0.6C160.8,21.8,160.7,21.6,160.6,21.4L160.6,21.4L160.6,21.4z"/>
<path class="st16" d="M161.1,22.4c0.1,0.2,0.2,0.5,0.4,0.7C161.3,22.9,161.2,22.7,161.1,22.4"/>
<path class="st16" d="M161.6,23.5c0.2,0.3,0.3,0.5,0.5,0.8C162,24,161.8,23.8,161.6,23.5"/>
<path class="st16" d="M166.3,28.5V14.8h3.9V32l2.3,2.1c0.3-0.4,0.6-0.8,0.9-1.3c0-0.1,0.1-0.1,0.1-0.2c0.2-0.4,0.4-0.8,0.6-1.2
	c0-0.1,0.1-0.2,0.1-0.3c0.2-0.4,0.3-0.7,0.5-1.1v-0.1c0.2-0.4,0.3-0.9,0.5-1.3c0.5-1.7,0.8-3.5,0.8-5.2s-0.3-3.3-0.7-4.9
	c-0.1,0-0.1,0-0.2,0c-1.8,0-3.2,1.1-3.9,3v-4.7c0.5-1.3,1.4-2.1,2.3-2.6c-0.8-1.4-1.8-2.7-3-3.8l0,0c-0.1,0-0.2,0.1-0.3,0.1
	c-0.5,0.2-0.9,0.4-1.4,0.7c-0.2,0.1-0.5,0.3-0.7,0.4c-0.3,0.2-0.6,0.4-0.9,0.6c-0.2,0.2-0.5,0.4-0.8,0.5c-0.3,0.2-0.5,0.4-0.7,0.6
	s-0.5,0.4-0.7,0.6c-0.2,0.2-0.5,0.5-0.7,0.7s-0.4,0.4-0.5,0.6c-0.2,0.3-0.5,0.6-0.7,0.9c-0.1,0.2-0.3,0.4-0.4,0.6
	c-0.2,0.3-0.4,0.6-0.6,1c-0.1,0.2-0.2,0.4-0.4,0.7c-0.2,0.4-0.4,0.6-0.5,1c-0.2,0.4-0.3,0.7-0.4,1.1c-0.1,0.2-0.1,0.5-0.2,0.7
	c0.1,0.2,0.2,0.4,0.2,0.6c0.1,0.2,0.1,0.3,0.2,0.5c0.1,0.2,0.2,0.5,0.4,0.7c0.1,0.1,0.1,0.3,0.2,0.4c0.2,0.3,0.3,0.5,0.5,0.8
	c0.1,0.1,0.1,0.2,0.2,0.2c0.2,0.3,0.5,0.7,0.8,1h0.1c0.2,0.2,0.3,0.4,0.5,0.6c0.6,0.5,0.8,0.7,1.6,1.4L166.3,28.5z"/>
<path class="st16" d="M174.1,31.6c0,0,0,0.1-0.1,0.1C174,31.7,174,31.7,174.1,31.6"/>
<polyline class="st16" points="174.7,30.2 174.7,30.2 174.7,30.2 "/>
<path class="st16" d="M164.4,14.8c0.2-0.2,0.3-0.3,0.5-0.5C164.7,14.5,164.6,14.6,164.4,14.8"/>
<path class="st16" d="M167.7,12.1c-0.2,0.1-0.3,0.2-0.5,0.3C167.4,12.3,167.6,12.2,167.7,12.1"/>
<path class="st16" d="M169.5,11c-0.2,0.1-0.5,0.2-0.7,0.3C169,11.3,169.3,11.2,169.5,11"/>
<path class="st16" d="M166.2,13.1c-0.2,0.1-0.3,0.2-0.5,0.4C165.9,13.4,166.1,13.3,166.2,13.1"/>
<path class="st16" d="M161.5,19c-0.1,0.2-0.2,0.3-0.3,0.5C161.4,19.4,161.5,19.2,161.5,19"/>
<path class="st16" d="M163.7,15.7c-0.2,0.2-0.3,0.4-0.5,0.6C163.4,16.1,163.5,15.9,163.7,15.7"/>
<path class="st16" d="M175.9,21.7c-0.1-1.1-0.3-2.1-0.6-3.1l0,0C175.6,19.6,175.8,20.6,175.9,21.7"/>
<path class="st16" d="M175.8,26C175.8,26.1,175.8,26.1,175.8,26C175.8,26.1,175.8,26.1,175.8,26"/>
<path class="st16" d="M162.6,17.2c-0.1,0.2-0.3,0.4-0.4,0.7C162.3,17.6,162.4,17.4,162.6,17.2"/>
<path class="st16" d="M173.5,14.4L173.5,14.4c-0.8-1.4-1.8-2.7-3-3.8l0,0C171.7,11.7,172.6,13,173.5,14.4"/>
<path class="st16" d="M170.5,10.6L170.5,10.6L170.5,10.6z"/>
<polyline class="st16" points="170.5,10.6 170.5,10.6 170.5,10.6 "/>
<path class="st16" d="M170.5,10.6L170.5,10.6L170.5,10.6z"/>
<path class="st16" d="M172.5,34.2L172.5,34.2c0.3-0.4,0.6-0.8,0.9-1.3C173.1,33.4,172.8,33.8,172.5,34.2"/>
<path class="st16" d="M174.1,31.6L174.1,31.6c-0.2,0.4-0.4,0.8-0.6,1.1C173.7,32.4,173.9,32,174.1,31.6
	C174,31.7,174,31.7,174.1,31.6"/>
<path class="st16" d="M174.7,30.2L174.7,30.2c-0.1,0.4-0.3,0.7-0.5,1.1C174.4,31,174.5,30.6,174.7,30.2L174.7,30.2"/>
<path class="st16" d="M170.5,10.6L170.5,10.6c1.2,1.1,2.2,2.4,3,3.8l0,0C172.6,13,171.7,11.7,170.5,10.6"/>
<path class="st16" d="M175.8,26.1L175.8,26.1c0.1-0.9,0.2-1.8,0.2-2.6c0-0.6,0-1.2-0.1-1.8c-0.1-1.1-0.3-2.1-0.6-3.1l0,0
	c0.5,1.6,0.7,3.3,0.7,4.9c0,1.8-0.3,3.5-0.8,5.2c-0.1,0.4-0.3,0.9-0.5,1.3c0.2-0.4,0.3-0.9,0.5-1.3C175.5,27.9,175.7,27,175.8,26.1"
	/>
<polygon class="st16" points="170.5,10.6 170.5,10.6 170.5,10.6 170.5,10.6 "/>
<polyline class="st16" points="160.6,21.4 160.6,21.4 160.6,21.4 160.6,21.4 160.6,21.4 160.6,21.4 "/>
<path class="st16" d="M165.8,13.5C165.8,13.5,165.7,13.5,165.8,13.5c0.2-0.2,0.5-0.4,0.7-0.6c-0.1,0.1-0.2,0.1-0.3,0.2
	C166.1,13.3,165.9,13.4,165.8,13.5"/>
<path class="st16" d="M160.6,21.4c0.1-0.2,0.2-0.5,0.3-0.7C160.8,20.9,160.7,21.1,160.6,21.4L160.6,21.4z"/>
<path class="st16" d="M168.8,11.4L168.8,11.4c0.4-0.2,0.9-0.5,1.4-0.7c-0.2,0.1-0.5,0.2-0.7,0.3C169.3,11.2,169,11.3,168.8,11.4"/>
<path class="st16" d="M164.4,14.8L164.4,14.8c0.2-0.2,0.5-0.5,0.7-0.7c-0.1,0.1-0.2,0.1-0.2,0.2C164.7,14.5,164.6,14.6,164.4,14.8"
	/>
<path class="st16" d="M163.2,16.3L163.2,16.3c0.2-0.3,0.5-0.6,0.7-0.9c-0.1,0.1-0.1,0.2-0.2,0.3C163.5,15.9,163.4,16.1,163.2,16.3"
	/>
<path class="st16" d="M162.2,17.9L162.2,17.9c0.2-0.3,0.4-0.7,0.6-1c-0.1,0.1-0.1,0.2-0.2,0.3C162.4,17.4,162.3,17.6,162.2,17.9"/>
<path class="st16" d="M161.3,19.6L161.3,19.6c0.2-0.3,0.3-0.7,0.5-1c-0.1,0.2-0.2,0.4-0.3,0.5C161.5,19.2,161.4,19.4,161.3,19.6"/>
<path class="st16" d="M167.2,12.4L167.2,12.4c0.3-0.2,0.6-0.3,0.9-0.5c-0.1,0.1-0.2,0.1-0.4,0.2C167.6,12.2,167.4,12.3,167.2,12.4"
	/>
<polygon class="st2" points="170.2,14.8 166.3,14.8 166.3,28.5 170.2,32.1 "/>
<path class="st2" d="M175.4,13.9c-1.5,0-3.3,0.9-4.2,3v4.7c0.7-2,2.2-3,3.9-3c0.6,0,1,0.1,1.4,0.1V14
	C176.1,13.9,175.8,13.9,175.4,13.9"/>
<path class="st17" d="M159.7,16.3c0,4.3,1.9,8.1,4.9,10.6c2.4,2,8.8,8.2,8.8,8.2s6.6-6.3,9.1-8.5c2.8-2.5,4.6-6.2,4.6-10.3
	c0-7.6-6.1-13.8-13.7-13.8C165.8,2.5,159.7,8.7,159.7,16.3"/>
<g>
	<path class="st2" d="M192.6,8.1c0,3.9-3.2,7.1-7.1,7.1c-3.9,0-7.1-3.2-7.1-7.1s3.2-7.1,7.1-7.1S192.6,4.2,192.6,8.1"/>
	<path class="st1" d="M191.3,8.1c0,3.2-2.6,5.8-5.8,5.8s-5.8-2.6-5.8-5.8s2.6-5.8,5.8-5.8C188.7,2.3,191.3,4.9,191.3,8.1"/>
	<path class="st2" d="M185.4,4.7c1.8,0,3.2,1.5,3.2,3.2v2.4c0,0.5-0.4,0.9-0.9,0.9s-0.9-0.4-0.9-0.9V7.9c0-0.8-0.7-1.5-1.5-1.5
		s-1.5,0.7-1.5,1.5v2.4c0,0.5-0.4,0.9-0.9,0.9s-0.9-0.4-0.9-0.9V7.9C182.1,6.1,183.6,4.7,185.4,4.7"/>
</g>
</svg>
